<svg width="40" height="40" viewBox="0 0 40 40" fill="none" xmlns="http://www.w3.org/2000/svg">
<g id="Fire / 24 / Outline">
<path id="Vector" d="M14.1129 13.991L14.1092 13.994L14.1056 13.9975L14.1129 13.991ZM30.7031 13.6801C30.5872 13.5684 30.4585 13.4706 30.3198 13.3888C30.1234 13.2732 29.9055 13.1991 29.6793 13.1712C29.4532 13.1432 29.2238 13.1619 29.0052 13.2261C28.7866 13.2903 28.5835 13.3987 28.4084 13.5446C28.2334 13.6904 28.0901 13.8706 27.9874 14.074C27.4133 15.2051 26.6215 16.2118 25.6574 17.0362C25.8049 16.2056 25.8792 15.3636 25.8796 14.5199C25.8827 11.9535 25.2057 9.43196 23.9174 7.21222C22.6291 4.99248 20.7756 3.15376 18.5456 1.88328C18.3 1.74403 18.023 1.66946 17.7406 1.66659C17.4582 1.66372 17.1798 1.73263 16.9313 1.86685C16.6829 2.00108 16.4726 2.19622 16.3203 2.43397C16.1679 2.67171 16.0785 2.94427 16.0603 3.22606C15.967 4.80635 15.5539 6.35126 14.8459 7.76718C14.138 9.18309 13.1499 10.4405 11.9417 11.4633L11.5575 11.7758C10.2941 12.626 9.17571 13.674 8.24538 14.8797C6.79924 16.7015 5.79746 18.8352 5.31948 21.1116C4.8415 23.388 4.90046 25.7445 5.49171 27.9941C6.08295 30.2438 7.1902 32.3247 8.72566 34.0719C10.2611 35.8192 12.1825 37.1846 14.3376 38.06C14.5906 38.1634 14.8652 38.2029 15.1371 38.1751C15.409 38.1473 15.6699 38.053 15.8968 37.9006C16.1236 37.7481 16.3095 37.5421 16.4379 37.3008C16.5664 37.0596 16.6335 36.7904 16.6333 36.517C16.6321 36.3402 16.6042 36.1646 16.5503 35.9962C16.1775 34.5946 16.0701 33.1356 16.2337 31.6944C17.8108 34.669 20.3423 37.0268 23.4212 38.3888C23.7971 38.5569 24.2219 38.5795 24.6135 38.4523C27.0461 37.6671 29.2375 36.273 30.9796 34.4023C32.7216 32.5317 33.9564 30.2467 34.5666 27.7644C35.1768 25.2822 35.1422 22.6851 34.466 20.22C33.7898 17.7549 32.4945 15.5036 30.7031 13.6801ZM24.1951 35.0652C22.7423 34.3289 21.4608 33.2951 20.4337 32.031C19.4067 30.7669 18.6572 29.3008 18.234 27.728C18.1048 27.1984 18.0048 26.6621 17.9346 26.1215C17.887 25.7773 17.733 25.4565 17.4941 25.2041C17.2552 24.9517 16.9435 24.7802 16.6024 24.7136C16.4973 24.6929 16.3904 24.6826 16.2833 24.6827C15.9904 24.6826 15.7026 24.7598 15.449 24.9064C15.1954 25.053 14.9849 25.2638 14.8388 25.5177C13.4559 27.9029 12.7605 30.6245 12.8295 33.3807C11.6133 32.435 10.5968 31.2574 9.83901 29.916C9.08122 28.5746 8.5972 27.0962 8.415 25.5663C8.2328 24.0365 8.35604 22.4857 8.77759 21.0039C9.19913 19.5221 9.91059 18.1386 10.8707 16.9337C11.5998 15.9868 12.4792 15.1659 13.4741 14.5037C13.5171 14.4759 13.5585 14.4455 13.5978 14.4126C13.5978 14.4126 14.0922 14.0035 14.1091 13.9941C16.4836 11.9857 18.1725 9.28662 18.9404 6.27295C20.7563 7.95167 21.9672 10.183 22.385 12.6205C22.8027 15.0579 22.404 17.5651 21.2508 19.7528C21.0984 20.0447 21.0359 20.3752 21.0711 20.7026C21.1064 21.03 21.2378 21.3396 21.4488 21.5924C21.6598 21.8452 21.941 22.0299 22.2568 22.1231C22.5726 22.2163 22.909 22.2138 23.2234 22.1161C25.7764 21.3158 28.0229 19.7526 29.6606 17.6369C30.6449 19.0908 31.2883 20.7479 31.5431 22.485C31.7979 24.2221 31.6573 25.9943 31.132 27.6695C30.6066 29.3447 29.71 30.8798 28.5089 32.1603C27.3079 33.4409 25.8333 34.4338 24.1951 35.0653L24.1951 35.0652Z" fill="white"/>
</g>
</svg>
