<svg width="40" height="40" viewBox="0 0 40 40" fill="none" xmlns="http://www.w3.org/2000/svg">
<g id="Glass Martini / 24 / Outline">
<path id="Vector" d="M30 33.3335H21.6667V24.9002C25.3323 24.4903 28.7184 22.7443 31.178 19.9957C33.6376 17.2471 34.9982 13.6886 35 10.0002C35.0084 8.0612 34.6287 6.14015 33.8833 4.35016C33.7971 4.15013 33.6726 3.96894 33.5167 3.81683L33.3333 3.6835C33.2269 3.59587 33.1092 3.52299 32.9833 3.46683C32.8356 3.39841 32.6782 3.35343 32.5167 3.3335H32.35H7.65H7.5C7.33461 3.34108 7.17148 3.37483 7.01666 3.4335C6.89547 3.50425 6.77859 3.58217 6.66666 3.66683L6.46666 3.81683C6.31077 3.96894 6.18619 4.15013 6.1 4.35016C5.36031 6.14132 4.98631 8.06233 5 10.0002C5.00175 13.6886 6.36242 17.2471 8.82203 19.9957C11.2816 22.7443 14.6677 24.4903 18.3333 24.9002V33.3335H10C9.55797 33.3335 9.13405 33.5091 8.82149 33.8216C8.50892 34.1342 8.33333 34.5581 8.33333 35.0002C8.33333 35.4422 8.50892 35.8661 8.82149 36.1787C9.13405 36.4912 9.55797 36.6668 10 36.6668H30C30.442 36.6668 30.8659 36.4912 31.1785 36.1787C31.4911 35.8661 31.6667 35.4422 31.6667 35.0002C31.6667 34.5581 31.4911 34.1342 31.1785 33.8216C30.8659 33.5091 30.442 33.3335 30 33.3335ZM8.33333 10.0002C8.33021 8.87137 8.49307 7.74825 8.81666 6.66683H31.1833C31.5069 7.74825 31.6698 8.87137 31.6667 10.0002C31.6667 13.0944 30.4375 16.0618 28.2496 18.2497C26.0617 20.4377 23.0942 21.6668 20 21.6668C16.9058 21.6668 13.9383 20.4377 11.7504 18.2497C9.56249 16.0618 8.33333 13.0944 8.33333 10.0002Z" fill="white"/>
</g>
</svg>
