<svg width="40" height="40" viewBox="0 0 40 40" fill="none" xmlns="http://www.w3.org/2000/svg">
<g id="House / 24 / Outline">
<path id="Vector" d="M33.3333 13.3333L23.3333 4.56668C22.4166 3.74675 21.2299 3.29346 20 3.29346C18.7701 3.29346 17.5834 3.74675 16.6667 4.56668L6.66666 13.3333C6.13728 13.8068 5.71483 14.3876 5.42745 15.0371C5.14007 15.6866 4.99435 16.3898 5 17.1V31.6667C5 32.9928 5.52678 34.2645 6.46446 35.2022C7.40215 36.1399 8.67392 36.6667 10 36.6667H30C31.3261 36.6667 32.5979 36.1399 33.5355 35.2022C34.4732 34.2645 35 32.9928 35 31.6667V17.0833C35.0033 16.3759 34.8564 15.6759 34.5691 15.0295C34.2818 14.383 33.8606 13.8049 33.3333 13.3333ZM23.3333 33.3333H16.6667V25C16.6667 24.558 16.8423 24.1341 17.1548 23.8215C17.4674 23.5089 17.8913 23.3333 18.3333 23.3333H21.6667C22.1087 23.3333 22.5326 23.5089 22.8452 23.8215C23.1577 24.1341 23.3333 24.558 23.3333 25V33.3333ZM31.6667 31.6667C31.6667 32.1087 31.4911 32.5326 31.1785 32.8452C30.8659 33.1577 30.442 33.3333 30 33.3333H26.6667V25C26.6667 23.6739 26.1399 22.4022 25.2022 21.4645C24.2645 20.5268 22.9927 20 21.6667 20H18.3333C17.0072 20 15.7355 20.5268 14.7978 21.4645C13.8601 22.4022 13.3333 23.6739 13.3333 25V33.3333H10C9.55797 33.3333 9.13405 33.1577 8.82149 32.8452C8.50893 32.5326 8.33333 32.1087 8.33333 31.6667V17.0833C8.33363 16.8467 8.38432 16.6128 8.48203 16.3973C8.57973 16.1818 8.72222 15.9895 8.9 15.8333L18.9 7.08334C19.2041 6.81614 19.5952 6.66879 20 6.66879C20.4048 6.66879 20.7958 6.81614 21.1 7.08334L31.1 15.8333C31.2778 15.9895 31.4203 16.1818 31.518 16.3973C31.6157 16.6128 31.6664 16.8467 31.6667 17.0833V31.6667Z" fill="white"/>
</g>
</svg>
