<svg width="40" height="40" viewBox="0 0 40 40" fill="none" xmlns="http://www.w3.org/2000/svg">
<g id="boat / 24 / Outline">
<path id="Vector" d="M6.03333 28.8002C6.19688 29.2112 6.51704 29.5405 6.92337 29.7156C7.32969 29.8906 7.78891 29.897 8.2 29.7335C8.61108 29.5699 8.94036 29.2498 9.1154 28.8435C9.29043 28.4371 9.29688 27.9779 9.13333 27.5668L7.26667 22.8668L18.3333 20.4168V28.3335C18.3333 28.7755 18.5089 29.1994 18.8215 29.512C19.134 29.8246 19.558 30.0002 20 30.0002C20.442 30.0002 20.8659 29.8246 21.1785 29.512C21.4911 29.1994 21.6667 28.7755 21.6667 28.3335V20.4168L32.7333 22.8668L30.8667 27.5668C30.7855 27.7704 30.7452 27.9879 30.7482 28.207C30.7512 28.4261 30.7973 28.6425 30.884 28.8437C30.9707 29.045 31.0962 29.2271 31.2534 29.3798C31.4106 29.5325 31.5963 29.6527 31.8 29.7335C31.9963 29.8111 32.2056 29.8507 32.4167 29.8502C32.7505 29.8505 33.0767 29.7506 33.353 29.5634C33.6294 29.3762 33.8432 29.1103 33.9667 28.8002L36.55 22.2835C36.6387 22.0581 36.6772 21.8161 36.6628 21.5743C36.6484 21.3325 36.5814 21.0968 36.4667 20.8835C36.3553 20.671 36.1994 20.485 36.0095 20.3383C35.8197 20.1916 35.6004 20.0877 35.3667 20.0335L30 18.8502V11.6668C30 11.2248 29.8244 10.8009 29.5118 10.4883C29.1993 10.1758 28.7754 10.0002 28.3333 10.0002H25V5.00016C25 4.55814 24.8244 4.13421 24.5118 3.82165C24.1993 3.50909 23.7754 3.3335 23.3333 3.3335H16.6667C16.2246 3.3335 15.8007 3.50909 15.4882 3.82165C15.1756 4.13421 15 4.55814 15 5.00016V10.0002H11.6667C11.2246 10.0002 10.8007 10.1758 10.4882 10.4883C10.1756 10.8009 10 11.2248 10 11.6668V18.8502L4.63333 20.0002C4.3996 20.0543 4.18033 20.1583 3.99048 20.305C3.80063 20.4517 3.6447 20.6377 3.53333 20.8502C3.41855 21.0634 3.35163 21.2992 3.33724 21.541C3.32285 21.7828 3.36133 22.0248 3.45 22.2502L6.03333 28.8002ZM18.3333 6.66683H21.6667V10.0002H18.3333V6.66683ZM13.3333 13.3335H26.6667V18.1002L20.3667 16.6668H20.2H20H19.8H19.6333L13.3333 18.1002V13.3335ZM34.5167 32.1335C33.9319 32.3127 33.3719 32.5647 32.85 32.8835C32.3191 33.194 31.7151 33.3576 31.1 33.3576C30.4849 33.3576 29.8809 33.194 29.35 32.8835C28.1954 32.2322 26.8923 31.8899 25.5667 31.8899C24.2411 31.8899 22.9379 32.2322 21.7833 32.8835C21.2451 33.1904 20.6362 33.3518 20.0167 33.3518C19.3971 33.3518 18.7882 33.1904 18.25 32.8835C17.0944 32.2353 15.7916 31.8949 14.4667 31.8949C13.1417 31.8949 11.8389 32.2353 10.6833 32.8835C10.1524 33.194 9.5484 33.3576 8.93333 33.3576C8.31827 33.3576 7.71428 33.194 7.18333 32.8835C6.66139 32.5647 6.10145 32.3127 5.51666 32.1335C5.2949 32.0546 5.05895 32.0237 4.82435 32.0426C4.58975 32.0615 4.36182 32.1299 4.15556 32.2433C3.9493 32.3566 3.76938 32.5124 3.62766 32.7003C3.48595 32.8882 3.38563 33.104 3.33333 33.3335C3.20891 33.7556 3.25649 34.2098 3.46569 34.597C3.67489 34.9842 4.02872 35.2729 4.45 35.4002C4.7856 35.4911 5.10579 35.6315 5.4 35.8168C6.41118 36.4102 7.56095 36.7264 8.73333 36.7335C9.951 36.7337 11.147 36.4117 12.2 35.8002C12.8533 35.4398 13.5872 35.2508 14.3333 35.2508C15.0794 35.2508 15.8134 35.4398 16.4667 35.8002C17.5122 36.398 18.6956 36.7125 19.9 36.7125C21.1044 36.7125 22.2878 36.398 23.3333 35.8002C23.9866 35.4398 24.7206 35.2508 25.4667 35.2508C26.2128 35.2508 26.9467 35.4398 27.6 35.8002C28.633 36.4167 29.8136 36.7422 31.0167 36.7422C32.2197 36.7422 33.4003 36.4167 34.4333 35.8002C34.7275 35.6149 35.0477 35.4744 35.3833 35.3835C35.6051 35.3386 35.8155 35.2491 36.0015 35.1202C36.1876 34.9914 36.3455 34.8261 36.4655 34.6343C36.5856 34.4425 36.6654 34.2282 36.7 34.0046C36.7345 33.7809 36.7232 33.5526 36.6667 33.3335C36.6137 33.1079 36.5143 32.8959 36.3748 32.7109C36.2353 32.5259 36.0587 32.3721 35.8564 32.2592C35.6541 32.1462 35.4305 32.0767 35.1998 32.0551C34.9691 32.0335 34.7364 32.0602 34.5167 32.1335Z" fill="white"/>
</g>
</svg>
