<svg width="40" height="40" viewBox="0 0 40 40" fill="none" xmlns="http://www.w3.org/2000/svg">
<g id="Swimmer / 24 / Outline">
<path id="Vector" d="M28.3333 15.4665C28.9926 15.4665 29.6371 15.271 30.1852 14.9047C30.7334 14.5384 31.1606 14.0178 31.4129 13.4088C31.6652 12.7997 31.7312 12.1294 31.6026 11.4828C31.474 10.8362 31.1565 10.2423 30.6904 9.77612C30.2242 9.30994 29.6302 8.99247 28.9836 8.86386C28.337 8.73524 27.6668 8.80125 27.0577 9.05354C26.4486 9.30583 25.928 9.73307 25.5618 10.2812C25.1955 10.8294 25 11.4739 25 12.1331C25 13.0172 25.3512 13.865 25.9763 14.4902C26.6014 15.1153 27.4493 15.4665 28.3333 15.4665ZM4.51667 23.1998C4.84693 23.3054 5.1653 23.445 5.46667 23.6165C6.50322 24.2228 7.68246 24.5424 8.88334 24.5424C10.0842 24.5424 11.2635 24.2228 12.3 23.6165C12.9518 23.2515 13.6863 23.0599 14.4333 23.0599C15.1803 23.0599 15.9149 23.2515 16.5667 23.6165L16.9167 23.7831C17.928 24.2755 19.0444 24.5131 20.1686 24.4754C21.2927 24.4376 22.3907 24.1256 23.3667 23.5665C24.0185 23.2015 24.753 23.0099 25.5 23.0099C26.247 23.0099 26.9815 23.2015 27.6333 23.5665C28.6896 24.1701 29.8835 24.4916 31.1 24.4998C32.2739 24.4876 33.4238 24.1657 34.4333 23.5665C34.7347 23.395 35.0531 23.2554 35.3833 23.1498C35.6297 23.1328 35.8692 23.0614 36.0845 22.9405C36.2998 22.8197 36.4856 22.6525 36.6284 22.4511C36.7713 22.2497 36.8675 22.019 36.9103 21.7759C36.9531 21.5327 36.9413 21.283 36.8758 21.0449C36.8103 20.8069 36.6927 20.5863 36.5316 20.3993C36.3704 20.2122 36.1697 20.0633 35.944 19.9632C35.7182 19.8632 35.473 19.8146 35.2262 19.821C34.9794 19.8273 34.737 19.8884 34.5167 19.9998C33.9351 20.1803 33.376 20.4263 32.85 20.7331C32.3179 21.0403 31.7144 21.2021 31.1 21.2021C30.4856 21.2021 29.8821 21.0403 29.35 20.7331C28.1954 20.0818 26.8923 19.7396 25.5667 19.7396C24.2411 19.7396 22.9379 20.0818 21.7833 20.7331C21.6265 20.8098 21.4651 20.8766 21.3 20.9331L23.9 18.3331C23.9596 18.2559 24.0099 18.172 24.05 18.0831C24.1254 18.0012 24.1924 17.9118 24.25 17.8165C24.2578 17.7111 24.2578 17.6052 24.25 17.4998C24.2595 17.3945 24.2595 17.2885 24.25 17.1831C24.258 17.0833 24.258 16.983 24.25 16.8831C24.2595 16.7778 24.2595 16.6718 24.25 16.5665C24.2007 16.4685 24.145 16.3739 24.0833 16.2831C24.0401 16.1871 23.984 16.0974 23.9167 16.0165L18.8 10.4665C18.6654 10.3197 18.5078 10.1959 18.3333 10.0998C18.2172 10.0844 18.0995 10.0844 17.9833 10.0998C17.8895 10.0846 17.7938 10.0846 17.7 10.0998C17.4781 10.0105 17.238 9.97622 17 9.99981L11.1 12.1998C10.6846 12.3502 10.3459 12.6595 10.1584 13.0595C9.97091 13.4595 9.9499 13.9176 10.1 14.3331C10.2504 14.7485 10.5596 15.0872 10.9597 15.2747C11.3597 15.4622 11.8178 15.4832 12.2333 15.3331L17.1167 13.5498L20.45 17.0831L17.2833 20.2498C16.2223 19.8374 15.0831 19.6653 13.9476 19.746C12.8121 19.8267 11.7087 20.1581 10.7167 20.7165C10.1846 21.0237 9.58105 21.1854 8.96667 21.1854C8.35229 21.1854 7.74874 21.0237 7.21667 20.7165C6.6907 20.4097 6.13155 20.1636 5.55 19.9831C5.33675 19.9036 5.10947 19.8685 4.88216 19.8802C4.65484 19.8918 4.43233 19.9499 4.22832 20.0508C4.02432 20.1518 3.84315 20.2934 3.69598 20.467C3.54881 20.6407 3.43877 20.8426 3.37264 21.0604C3.3065 21.2782 3.28568 21.5072 3.31144 21.7333C3.33721 21.9595 3.40903 22.178 3.52246 22.3753C3.6359 22.5726 3.78855 22.7446 3.971 22.8807C4.15346 23.0168 4.36185 23.114 4.58333 23.1665L4.51667 23.1998ZM34.5167 28.3498C33.9351 28.5303 33.376 28.7763 32.85 29.0831C32.3179 29.3903 31.7144 29.552 31.1 29.552C30.4856 29.552 29.8821 29.3903 29.35 29.0831C28.1954 28.4318 26.8923 28.0896 25.5667 28.0896C24.2411 28.0896 22.9379 28.4318 21.7833 29.0831C21.2468 29.3949 20.6372 29.5591 20.0167 29.5591C19.3961 29.5591 18.7866 29.3949 18.25 29.0831C17.0954 28.4318 15.7923 28.0896 14.4667 28.0896C13.1411 28.0896 11.8379 28.4318 10.6833 29.0831C10.1513 29.3903 9.54771 29.552 8.93334 29.552C8.31896 29.552 7.7154 29.3903 7.18333 29.0831C6.65737 28.7763 6.09822 28.5303 5.51667 28.3498C5.30342 28.2702 5.07613 28.2352 4.84882 28.2468C4.62151 28.2585 4.39899 28.3166 4.19499 28.4175C3.99098 28.5184 3.80981 28.6601 3.66265 28.8337C3.51548 29.0073 3.40544 29.2093 3.3393 29.4271C3.27317 29.6448 3.25234 29.8739 3.27811 30.1C3.30388 30.3262 3.37569 30.5446 3.48913 30.742C3.60256 30.9393 3.75521 31.1113 3.93767 31.2474C4.12013 31.3834 4.32852 31.4807 4.55 31.5331C4.88026 31.6387 5.19864 31.7784 5.5 31.9498C6.53655 32.5562 7.71579 32.8757 8.91667 32.8757C10.1175 32.8757 11.2968 32.5562 12.3333 31.9498C12.9851 31.5849 13.7197 31.3932 14.4667 31.3932C15.2137 31.3932 15.9482 31.5849 16.6 31.9498C17.6455 32.5476 18.829 32.8621 20.0333 32.8621C21.2377 32.8621 22.4212 32.5476 23.4667 31.9498C24.1185 31.5849 24.853 31.3932 25.6 31.3932C26.347 31.3932 27.0815 31.5849 27.7333 31.9498C28.7896 32.5535 29.9835 32.8749 31.2 32.8831C32.3739 32.8709 33.5238 32.549 34.5333 31.9498C34.8347 31.7784 35.1531 31.6387 35.4833 31.5331C35.6935 31.4697 35.889 31.3654 36.0588 31.2264C36.2287 31.0873 36.3695 30.9162 36.4731 30.7227C36.5768 30.5293 36.6414 30.3173 36.6632 30.0989C36.6849 29.8805 36.6635 29.6599 36.6 29.4498C36.5365 29.2397 36.4323 29.0441 36.2932 28.8743C36.1542 28.7045 35.9831 28.5637 35.7896 28.46C35.5962 28.3563 35.3842 28.2917 35.1658 28.27C34.9473 28.2482 34.7268 28.2697 34.5167 28.3331V28.3498Z" fill="white"/>
</g>
</svg>
