<svg width="40" height="40" viewBox="0 0 40 40" fill="none" xmlns="http://www.w3.org/2000/svg">
<g id="Trash / 24 / Outline">
<path id="Vector" d="M16.6667 30.0002C17.1087 30.0002 17.5326 29.8246 17.8452 29.512C18.1577 29.1994 18.3333 28.7755 18.3333 28.3335V18.3335C18.3333 17.8915 18.1577 17.4675 17.8452 17.155C17.5326 16.8424 17.1087 16.6668 16.6667 16.6668C16.2246 16.6668 15.8007 16.8424 15.4882 17.155C15.1756 17.4675 15 17.8915 15 18.3335V28.3335C15 28.7755 15.1756 29.1994 15.4882 29.512C15.8007 29.8246 16.2246 30.0002 16.6667 30.0002ZM33.3333 10.0002H26.6667V8.3335C26.6667 7.00741 26.1399 5.73564 25.2022 4.79796C24.2645 3.86028 22.9927 3.3335 21.6667 3.3335H18.3333C17.0073 3.3335 15.7355 3.86028 14.7978 4.79796C13.8601 5.73564 13.3333 7.00741 13.3333 8.3335V10.0002H6.66667C6.22464 10.0002 5.80072 10.1758 5.48816 10.4883C5.17559 10.8009 5 11.2248 5 11.6668C5 12.1089 5.17559 12.5328 5.48816 12.8453C5.80072 13.1579 6.22464 13.3335 6.66667 13.3335H8.33333V31.6668C8.33333 32.9929 8.86012 34.2647 9.7978 35.2024C10.7355 36.14 12.0073 36.6668 13.3333 36.6668H26.6667C27.9927 36.6668 29.2645 36.14 30.2022 35.2024C31.1399 34.2647 31.6667 32.9929 31.6667 31.6668V13.3335H33.3333C33.7754 13.3335 34.1993 13.1579 34.5118 12.8453C34.8244 12.5328 35 12.1089 35 11.6668C35 11.2248 34.8244 10.8009 34.5118 10.4883C34.1993 10.1758 33.7754 10.0002 33.3333 10.0002ZM16.6667 8.3335C16.6667 7.89147 16.8423 7.46755 17.1548 7.15498C17.4674 6.84242 17.8913 6.66683 18.3333 6.66683H21.6667C22.1087 6.66683 22.5326 6.84242 22.8452 7.15498C23.1577 7.46755 23.3333 7.89147 23.3333 8.3335V10.0002H16.6667V8.3335ZM28.3333 31.6668C28.3333 32.1089 28.1577 32.5328 27.8452 32.8453C27.5326 33.1579 27.1087 33.3335 26.6667 33.3335H13.3333C12.8913 33.3335 12.4674 33.1579 12.1548 32.8453C11.8423 32.5328 11.6667 32.1089 11.6667 31.6668V13.3335H28.3333V31.6668ZM23.3333 30.0002C23.7754 30.0002 24.1993 29.8246 24.5118 29.512C24.8244 29.1994 25 28.7755 25 28.3335V18.3335C25 17.8915 24.8244 17.4675 24.5118 17.155C24.1993 16.8424 23.7754 16.6668 23.3333 16.6668C22.8913 16.6668 22.4674 16.8424 22.1548 17.155C21.8423 17.4675 21.6667 17.8915 21.6667 18.3335V28.3335C21.6667 28.7755 21.8423 29.1994 22.1548 29.512C22.4674 29.8246 22.8913 30.0002 23.3333 30.0002Z" fill="white"/>
</g>
</svg>
