<svg width="81" height="69" viewBox="0 0 81 69" fill="none" xmlns="http://www.w3.org/2000/svg">
<path d="M39.4145 45.6101C37.2433 45.6101 35.0722 45.6936 33.0681 45.7772C33.1516 46.1113 33.2351 46.4455 33.2351 46.7796C35.2392 46.6125 37.3268 46.529 39.4145 46.529C52.9423 46.529 63.8815 49.4527 63.8815 53.0447C63.8815 56.6367 52.9423 59.5605 39.4145 59.5605C25.8866 59.5605 14.9475 56.6367 14.9475 53.0447C14.9475 50.8728 18.9557 48.9515 25.2186 47.782C25.1351 47.3643 25.1351 46.9467 25.2186 46.529C15.365 47.8656 8.60107 50.6222 8.60107 53.7966C8.60107 58.3074 22.3794 61.983 39.4145 61.983C56.4495 61.983 70.2279 58.3074 70.2279 53.7966C70.3114 49.2857 56.4495 45.6101 39.4145 45.6101Z" fill="#0062BD"/>
<path d="M54.1112 0.0835876C52.9421 -0.167018 52.0236 0.250658 51.272 1.16954C50.437 2.17197 50.103 3.42499 50.0195 4.76155C49.936 5.93105 50.1865 6.93347 51.0215 7.85235C51.272 8.10296 51.272 8.35356 51.105 8.6877C50.771 9.85719 50.437 10.9432 50.103 12.1126C48.9339 15.9553 47.8483 19.7979 46.6793 23.724C46.5958 23.9746 46.5123 24.0582 46.1782 24.1417C45.4267 24.1417 44.5916 24.2252 43.8401 24.3923C41.7525 24.81 39.9988 25.9795 38.2452 27.149C35.9071 28.7361 33.903 30.5739 31.9824 32.5787C29.2267 35.3354 26.805 38.3427 24.8009 41.6841C22.9638 44.7749 21.4607 47.9492 20.0411 51.2071C19.7071 51.8754 19.4566 52.6272 19.1226 53.2955C19.8741 53.5461 20.0411 53.6296 20.7092 53.8802C31.1473 57.6393 46.5958 57.8899 57.7019 55.4674C58.37 49.3693 57.9525 43.7724 56.6164 37.7579C56.0318 34.8342 55.1968 32.0775 53.6937 29.4044C52.6081 27.4831 51.272 25.8124 49.2679 24.81C49.0174 24.7264 49.1009 24.5594 49.1844 24.3923C49.5184 23.0557 49.8525 21.7192 50.103 20.2991C51.0215 16.54 51.8566 12.7809 52.6916 9.10538C52.7751 8.77124 52.9421 8.60417 53.2762 8.4371C53.6102 8.27003 54.0277 8.10296 54.2782 7.85235C55.7813 6.34872 56.3659 4.51095 55.9483 2.42257C55.8648 1.08601 55.1968 0.334193 54.1112 0.0835876ZM44.6751 30.4068C32.7339 40.1804 30.1452 52.0424 30.1452 52.0424L23.5483 51.2071C24.1329 49.787 27.1391 44.6913 28.5586 42.3524C28.5586 42.3524 28.5586 42.2688 28.6421 42.2688C28.7257 42.1017 28.8092 42.0182 28.8927 41.8511C29.1432 41.3499 29.3937 41.0993 29.3937 41.0993C31.8988 37.0896 34.9885 33.4976 38.8298 30.5739C40.6669 29.1538 42.5875 27.9008 44.6751 26.9819C44.8421 26.8984 45.0092 26.8148 45.2597 26.8148C46.8463 27.149 45.5937 29.5715 44.6751 30.4068Z" fill="#F15A29"/>
</svg>
