<svg width="81" height="69" viewBox="0 0 81 69" fill="none" xmlns="http://www.w3.org/2000/svg">
<path d="M54.1112 0.0835876C52.9422 -0.167018 52.0236 0.250658 51.272 1.16954C50.437 2.17197 50.103 3.42499 50.0195 4.76155C49.936 5.93105 50.1865 6.93347 51.0215 7.85235C51.272 8.10296 51.272 8.35356 51.105 8.6877C50.771 9.85719 50.437 10.9432 50.103 12.1126C48.9339 15.9553 47.8483 19.7979 46.6793 23.724C46.5958 23.9746 46.5123 24.0582 46.1782 24.1417C45.4267 24.1417 44.5916 24.2252 43.8401 24.3923C41.7525 24.81 39.9988 25.9795 38.2452 27.149C35.9071 28.7361 33.903 30.5739 31.9824 32.5787C29.2267 35.3354 26.805 38.3427 24.8009 41.6841C22.9638 44.7749 21.4607 47.9492 20.0411 51.2071C19.7071 51.8754 19.4566 52.6272 19.1226 53.2955C19.8741 53.5461 20.0411 53.6296 20.7092 53.8802C31.1473 57.6393 46.5958 57.8899 57.7019 55.4674C58.37 49.3693 57.9525 43.7724 56.6164 37.7579C56.0318 34.8342 55.1968 32.0775 53.6937 29.4044C52.6081 27.4831 51.272 25.8124 49.2679 24.81C49.0174 24.7264 49.1009 24.5594 49.1844 24.3923C49.5184 23.0557 49.8525 21.7192 50.103 20.2991C51.0215 16.54 51.8566 12.7809 52.6916 9.10538C52.7751 8.77124 52.9422 8.60417 53.2762 8.4371C53.6102 8.27003 54.0277 8.10296 54.2782 7.85235C55.7813 6.34872 56.3659 4.51095 55.9483 2.42257C55.8648 1.08601 55.1968 0.334193 54.1112 0.0835876ZM44.6751 30.4068C32.7339 40.1804 30.1452 52.0424 30.1452 52.0424L23.5483 51.2071C24.1329 49.787 27.1391 44.6913 28.5586 42.3524C28.5586 42.3524 28.5586 42.2688 28.6421 42.2688C28.7257 42.1017 28.8092 42.0182 28.8927 41.8511C29.1432 41.3499 29.3937 41.0993 29.3937 41.0993C31.8988 37.0896 34.9885 33.4976 38.8298 30.5739C40.6669 29.1538 42.5875 27.9008 44.6751 26.9819C44.8421 26.8984 45.0092 26.8148 45.2597 26.8148C46.8463 27.149 45.5937 29.5715 44.6751 30.4068Z" fill="#F15A29"/>
</svg>
