<svg width="105" height="60" viewBox="0 0 105 60" fill="none" xmlns="http://www.w3.org/2000/svg">
<g clip-path="url(#clip0_396_176)">
<path d="M12.0835 46.2171C12.0835 43.6194 12.0835 42.3053 12.0835 39.7076C12.0835 38.7602 12.0835 37.8434 12.1142 36.9877C12.1142 36.132 12.145 35.2763 12.1757 34.4511C12.2065 33.626 12.2372 32.8619 12.268 32.0979C12.2987 31.3339 12.3602 30.6004 12.4217 29.8669C12.3295 29.8975 12.2987 29.8975 12.2065 29.9281C12.145 30.5393 12.0835 31.1505 11.9912 31.7312C11.899 32.3424 11.8375 32.923 11.7453 33.5343C11.653 34.1455 11.5608 34.7567 11.4993 35.3679C11.4071 35.9486 11.3148 36.5598 11.1918 37.171C10.6384 40.4716 10.0849 43.7722 9.53151 47.1034C8.51687 47.4701 8.02492 47.6841 7.04103 48.1119C6.48759 45.1781 5.96489 42.2136 5.41145 39.2798C5.28846 38.5463 5.16548 37.8739 5.07324 37.2322C4.981 36.5904 4.85801 36.0097 4.76577 35.5207C4.67353 35.0012 4.64278 34.4511 4.58129 33.9621C4.5198 33.4731 4.4583 32.9842 4.42756 32.5258C4.33532 32.5563 4.30457 32.5869 4.24308 32.6174C4.33532 33.9927 4.39681 35.4902 4.4583 37.0794C4.48905 37.9045 4.48905 38.7908 4.48905 39.6771C4.48905 40.5939 4.48905 41.5718 4.5198 42.6109C4.5198 45.3003 4.5198 46.645 4.5198 49.3344C2.73649 50.2818 1.84483 50.8013 0.0615234 52.0237C0.0615234 42.9471 0.0615234 33.8704 0.0615234 24.7632C2.55201 23.3574 3.81262 22.8073 6.3031 21.9516C6.8258 24.6715 7.07177 26.0468 7.59447 28.7667C7.68671 29.2252 7.77895 29.7141 7.84044 30.2031C7.90193 30.6921 7.96343 31.1811 8.02492 31.67C8.08641 32.1896 8.14791 32.7091 8.17865 33.2287C8.2094 33.7482 8.27089 34.2677 8.30164 34.8178C8.33239 34.8178 8.36313 34.7873 8.39388 34.7873C8.42463 34.2983 8.45537 33.8093 8.48612 33.3203C8.51687 32.8314 8.57836 32.3118 8.63985 31.7617C8.70135 31.2116 8.76284 30.631 8.85508 30.0503C8.94732 29.4696 9.03956 28.8279 9.16255 28.1555C9.6545 25.1911 9.93122 23.6936 10.4232 20.7903C12.8522 20.2402 14.082 20.0874 16.5418 19.9346C16.5418 28.3694 16.5418 36.7737 16.5418 45.2086C14.7584 45.4837 13.8668 45.6976 12.0835 46.2171Z" fill="white"/>
<path d="M27.2724 44.5057C27.1186 42.9777 27.0264 42.2136 26.8726 40.6856C25.3968 40.5939 24.6589 40.5939 23.183 40.6244C22.9986 42.1831 22.9063 42.9471 22.7526 44.5363C20.7233 44.628 19.7087 44.7196 17.6794 45.0253C18.8785 36.6515 20.1084 28.2778 21.3382 19.9346C24.3207 20.0874 25.8273 20.2707 28.8097 20.8208C30.0088 28.8584 31.2387 36.9266 32.4993 44.9641C30.4085 44.6585 29.3631 44.5668 27.2724 44.5057ZM25.612 29.1946C25.5505 28.7056 25.489 28.2472 25.4583 27.8193C25.3968 27.3915 25.3661 26.9331 25.3046 26.5052C25.2431 26.0774 25.2123 25.6495 25.2123 25.2216C25.1816 24.7938 25.1508 24.4271 25.1508 24.0298C25.0893 24.0298 25.0893 24.0298 25.0278 24.0298C24.9664 24.916 24.9049 25.8023 24.8126 26.658C24.7819 27.0859 24.7204 27.5137 24.6896 27.9416C24.6281 28.3694 24.5974 28.7973 24.5359 29.2252C24.2284 31.395 24.1054 32.4952 23.798 34.6956C24.8126 34.7262 25.3353 34.7567 26.3807 34.8178C26.0425 32.5563 25.8888 31.4561 25.612 29.1946Z" fill="white"/>
<path d="M41.6311 46.4308C40.7702 43.8331 40.309 42.5495 39.4481 39.9213C39.2943 39.4323 39.1406 38.9433 38.9869 38.4544C38.9254 38.2099 38.8639 37.9959 38.8331 37.7514C38.7716 37.5375 38.7409 37.293 38.6794 37.0485C38.6487 37.0485 38.6179 37.0485 38.5872 37.018C38.5872 37.293 38.6179 37.5681 38.6179 37.8431C38.6179 38.1182 38.6179 38.4238 38.6487 38.7294C38.6487 39.0045 38.6794 39.3712 38.6794 39.7685C38.6794 40.1658 38.6794 40.6242 38.6794 41.1437C38.6794 43.0385 38.6794 43.9859 38.6794 45.8501C36.6809 45.4834 35.697 45.3306 33.7292 45.0556C33.7292 37.3236 33.7292 29.5611 33.7292 21.8291C35.7277 22.3181 36.7116 22.5931 38.6794 23.2044C38.6794 25.1297 38.6794 26.0771 38.6794 27.9719C38.6794 28.2164 38.6794 28.4609 38.6794 28.7359C38.6794 28.9804 38.6794 29.2555 38.6487 29.5305C38.6487 30.0806 38.6179 30.8752 38.5872 31.8226C38.6179 31.8226 38.6487 31.8531 38.6794 31.8531C38.7102 31.7003 38.7716 31.517 38.8024 31.3336C38.8639 31.1502 38.8946 30.9363 38.9561 30.7224C39.0176 30.5085 39.1099 30.3251 39.2021 30.1112C39.2943 29.8972 39.3866 29.6527 39.4788 29.4083C40.3397 27.2384 40.7394 26.1993 41.6003 24.0906C44.0293 24.8852 45.2285 25.2825 47.6574 26.1382C45.9971 29.2249 44.3983 32.3421 42.8302 35.4899C44.4598 39.5851 46.1201 43.6497 47.8112 47.7144C45.3207 47.1948 44.0908 46.9198 41.6311 46.4308Z" fill="white"/>
<path d="M57.1889 49.9451C57.0352 48.6004 56.9429 47.9587 56.7892 46.614C55.2826 46.2472 54.5447 46.0639 53.0688 45.6666C52.8844 46.9501 52.7921 47.5919 52.6076 48.8755C50.5476 48.3865 49.5637 48.1726 47.5344 47.7142C48.7335 40.9602 49.9634 34.2062 51.1933 27.4521C54.1757 28.4912 55.713 29.0719 58.757 30.0804C59.9868 37.0789 61.2167 44.0774 62.5081 51.0759C60.3865 50.648 59.3104 50.4341 57.1889 49.9451ZM55.4671 36.5594C55.4056 36.1315 55.3441 35.7342 55.3133 35.3369C55.2518 34.9396 55.2211 34.5729 55.1596 34.1756C55.0981 33.7783 55.0674 33.4116 55.0366 33.0448C55.0059 32.6781 54.9751 32.3419 54.9751 32.0058C54.9136 31.9752 54.9136 31.9752 54.8521 31.9752C54.7906 32.7087 54.6984 33.4421 54.6369 34.145C54.6062 34.5118 54.5447 34.8479 54.5139 35.2147C54.4524 35.5508 54.4217 35.9176 54.3602 36.2538C54.0527 38.0263 53.9297 38.9431 53.6223 40.7462C54.6677 41.0518 55.1903 41.2047 56.2357 41.4797C55.9283 39.5238 55.7745 38.5458 55.4671 36.5594Z" fill="white"/>
<path d="M76.9283 40.7466C76.9283 43.0692 76.5593 44.7806 75.7907 45.8808C75.022 46.981 73.8229 47.5006 72.2241 47.2867C70.8712 47.1033 70.1948 47.0116 68.8419 46.7671C68.8419 48.9064 68.8419 49.976 68.8419 52.1459C66.7819 51.8708 65.7672 51.6875 63.7072 51.2902C63.7072 44.7501 63.7072 38.21 63.7072 31.6699C66.5974 32.5868 69.5491 33.3813 72.5315 33.9926C74.0381 34.3287 75.1757 35.0011 75.8829 36.0707C76.5593 37.1709 76.9283 38.699 76.9283 40.7466ZM71.8858 40.6855C71.8858 40.3493 71.8551 40.0742 71.7936 39.8297C71.7321 39.5853 71.6399 39.3713 71.4861 39.188C71.3324 39.0046 71.1172 38.8518 70.8712 38.7295C70.5945 38.6073 70.2563 38.485 69.8566 38.3934C69.4568 38.3017 69.2416 38.2711 68.8112 38.1794C68.8112 39.8603 68.8112 40.6855 68.8112 42.3663C69.1801 42.4274 69.3646 42.4886 69.7028 42.5497C70.5022 42.7025 71.0557 42.6414 71.3939 42.3663C71.7014 42.0607 71.8858 41.5106 71.8858 40.6855Z" fill="white"/>
<path d="M91.9019 44.9952C91.9019 47.0733 91.533 48.7542 90.7643 49.9766C89.9957 51.2296 88.7965 52.0242 87.1977 52.2687C84.4612 52.6966 81.6018 52.9105 78.8346 52.8494C78.8346 46.9205 78.8346 40.9611 78.8346 35.0322C80.8331 35.2767 81.817 35.3684 83.8156 35.4295C83.8156 37.7522 83.8156 38.8829 83.8156 41.2056C83.8156 41.2056 83.9078 41.175 84.0308 41.1444C84.1538 41.1139 84.3998 41.0528 84.7687 41.0222C85.1377 40.9611 85.6296 40.9305 86.2138 40.9C87.1055 40.8388 87.9049 40.8694 88.5198 40.9611C89.1655 41.0528 89.6882 41.2056 90.1186 41.3889C90.5491 41.6029 90.8873 41.8168 91.1025 42.1224C91.3485 42.3975 91.533 42.7031 91.656 43.0392C91.779 43.3754 91.8404 43.7116 91.8712 44.0478C91.9019 44.4145 91.9019 44.7201 91.9019 44.9952ZM87.044 46.3704C87.044 46.0648 87.0132 45.8203 86.9517 45.6064C86.8902 45.3924 86.7673 45.2396 86.6135 45.1174C86.4598 44.9952 86.2446 44.9035 85.9986 44.8729C85.7526 44.8118 85.4144 44.8118 84.9839 44.8423C84.492 44.8729 84.246 44.8729 83.7541 44.9035C83.7541 46.4315 83.7541 47.1956 83.7541 48.7236C84.1845 48.693 84.3997 48.693 84.8302 48.6625C85.6296 48.6014 86.1831 48.3874 86.5213 48.0513C86.8595 47.6845 87.044 47.1344 87.044 46.3704Z" fill="white"/>
<path d="M93.962 50.74C93.962 45.4223 93.962 40.0741 93.962 34.7565C97.8053 34.023 101.526 32.77 105 31.0586C105 32.77 105 33.6257 105 35.3372C102.571 36.6207 101.372 37.1403 98.9429 37.996C98.9429 38.6989 98.9429 39.0656 98.9429 39.7685C101.372 38.8822 102.571 38.3321 105 37.018C105 38.3016 105 38.9434 105 40.2269C102.571 41.6022 101.372 42.1828 98.9429 43.1302C98.9429 43.8943 98.9429 44.261 98.9429 45.025C101.372 44.0471 102.571 43.4358 105 42.03C105 43.497 105 44.261 105 45.7279C101.433 47.745 97.8976 49.5481 93.962 50.74Z" fill="white"/>
<path d="M79.5417 -0.816563C78.896 -1.12217 78.2504 -0.99993 77.6969 -0.572075C77.0512 -0.0830966 76.6823 0.589248 76.467 1.38384C76.2826 2.05618 76.2826 2.72853 76.6515 3.33975C76.7438 3.52312 76.713 3.67592 76.6208 3.82873C76.2518 4.47051 75.9136 5.08173 75.5446 5.72352C74.3455 7.86279 73.1157 10.0021 71.9165 12.1414C71.8243 12.2942 71.732 12.3247 71.5476 12.2942C71.0864 12.2025 70.5944 12.1414 70.1332 12.1108C68.8419 12.0802 67.612 12.5386 66.4129 12.9971C64.814 13.6083 63.3382 14.464 61.8931 15.3808C59.8638 16.6644 58.019 18.1313 56.3587 19.8428C54.8521 21.4014 53.4685 23.1128 52.1771 24.8548C51.9004 25.2215 51.6237 25.6188 51.347 25.9855C51.7467 26.1078 52.1157 26.2606 52.5154 26.3828C59.6793 28.95 66.8741 31.3949 74.0381 32.8007C75.2679 29.2556 75.8829 25.5882 75.9136 21.7987C75.9443 19.9956 75.8214 18.1925 75.3294 16.4505C74.9605 15.1669 74.407 13.975 73.3309 13.0887C73.2079 12.9971 73.2694 12.9054 73.3309 12.8137C73.6998 12.0497 74.0995 11.2856 74.4685 10.5216C75.5139 8.4129 76.5593 6.30418 77.5739 4.19546C77.6662 4.01209 77.7892 3.92041 78.0044 3.85929C78.2504 3.82873 78.4963 3.7676 78.6808 3.64536C79.7877 2.97302 80.4026 1.9645 80.4334 0.65037C80.4641 0.039148 80.1567 -0.510952 79.5417 -0.816563ZM69.7028 15.9309C61.2474 20.1178 58.0498 26.8413 58.0498 26.8413L54.2064 25.466C54.7291 24.702 57.2196 22.1043 58.4187 20.8818C58.4187 20.8513 58.4495 20.8513 58.4495 20.8207C58.511 20.7596 58.5725 20.6985 58.634 20.6373C58.8799 20.3929 59.0029 20.24 59.0029 20.24C61.0629 18.1925 63.3997 16.481 66.1054 15.2586C67.3968 14.6779 68.7189 14.1889 70.1025 13.9139C70.2255 13.8833 70.3484 13.8833 70.4714 13.8833C71.4553 14.2806 70.4099 15.5948 69.7028 15.9309Z" fill="#F15A29"/>
<path d="M6.76428 52.2688C5.04246 52.88 4.1508 53.2467 2.42899 54.0719C2.42899 54.6525 2.42899 54.8665 2.42899 55.3249C4.02782 54.7442 4.85798 54.4692 6.45681 54.0107C6.45681 54.6525 6.45681 54.9276 6.45681 55.5388C4.82723 55.8444 4.02782 56.0278 2.42899 56.4556C2.42899 57.4641 2.42899 57.9226 2.42899 59.7562C1.4451 59.7562 0.953148 59.7868 0 59.7868C0 56.0583 0 57.5253 0 53.7968C2.70571 51.9937 4.05857 51.2602 6.73353 50.0684C6.76428 51.0769 6.76428 51.5047 6.76428 52.2688Z" fill="#F15A29"/>
<path d="M13.6516 59.6945C11.4378 59.6945 10.3002 59.7251 8.08641 59.7251C8.08641 58.7777 8.08641 58.3498 8.08641 57.6164C8.70134 57.5552 9.00881 57.5552 9.65449 57.4941C9.62375 54.6214 9.62375 54.0713 9.593 51.168C8.97807 51.3513 8.6706 51.443 8.05566 51.6569C8.05566 50.8929 8.05566 50.4956 8.05566 49.5482C10.2694 48.6619 11.3763 48.2952 13.5593 47.7451C13.5593 48.8148 13.5593 49.3037 13.5901 50.19C12.9751 50.3123 12.6677 50.3734 12.0527 50.5262C12.0835 53.6129 12.0835 54.2546 12.1142 57.3413C12.7292 57.3107 13.0366 57.2802 13.6823 57.2496C13.6208 58.1359 13.6208 58.5943 13.6516 59.6945Z" fill="#F15A29"/>
<path d="M23.183 55.2328C23.2137 56.4247 22.814 57.5555 22.0454 58.4723C21.2767 59.4197 20.2006 59.9392 18.817 59.9392C18.0175 59.9392 17.3411 59.817 16.7569 59.6031C16.1727 59.3892 15.6193 59.0835 15.0966 58.7779C15.0966 57.4027 15.0659 56.822 15.0659 55.7218C15.1581 55.7218 15.2196 55.7218 15.3426 55.6913C15.8653 56.1497 16.4187 56.5164 17.0644 56.7915C17.6793 57.0665 18.2943 57.1887 18.8784 57.1887C19.0322 57.1887 19.2167 57.1582 19.4626 57.1276C19.7086 57.0971 19.8931 57.0359 20.0468 56.9443C20.2313 56.822 20.385 56.6998 20.508 56.547C20.631 56.3942 20.6925 56.1497 20.6925 55.8441C20.6925 55.569 20.6003 55.3551 20.4158 55.1717C20.2313 54.9884 19.9853 54.8661 19.6471 54.7744C19.2782 54.6827 18.9092 54.5911 18.5095 54.5299C18.1098 54.4688 17.7408 54.3771 17.4026 54.2549C16.6032 54.0104 16.019 53.6437 15.6808 53.1852C15.3118 52.7268 15.1274 52.1156 15.1274 51.321C15.1274 50.2514 15.4963 49.2123 16.265 48.2038C17.0336 47.2258 18.0483 46.5229 19.2782 46.4007C19.8931 46.3396 20.508 46.3701 21.123 46.5535C21.7379 46.7063 22.2606 46.9508 22.691 47.2258C22.7218 48.6622 22.7218 49.2734 22.7525 50.4347C22.6603 50.4347 22.5988 50.4347 22.5066 50.4347C22.1069 50.0375 21.6457 49.7013 21.0922 49.4568C20.5388 49.2123 19.9853 49.0901 19.4011 49.1512C19.1859 49.1817 19.0014 49.2123 18.7862 49.2734C18.571 49.3345 18.3865 49.4262 18.202 49.5485C18.0483 49.6707 17.8946 49.793 17.7716 50.0069C17.6486 50.1903 17.5871 50.4042 17.5871 50.6181C17.5871 50.9543 17.6793 51.1682 17.8946 51.321C18.079 51.4738 18.448 51.5961 18.9707 51.6877C19.3089 51.7489 19.6471 51.81 19.9853 51.8711C20.3235 51.9322 20.6618 52.0239 21.0307 52.1462C21.7686 52.3907 22.2913 52.788 22.6603 53.2769C22.9678 53.7353 23.1522 54.3771 23.183 55.2328Z" fill="#F15A29"/>
<path d="M33.4524 59.6646C32.4685 59.6646 31.9765 59.6646 30.9926 59.6646C30.9312 56.7919 30.9004 55.8445 30.8697 53.858C29.4246 53.7969 28.7174 53.7663 27.2723 53.7663C27.303 55.8139 27.3338 56.7613 27.3953 59.6952C26.4114 59.6952 25.9194 59.6952 24.9355 59.6952C24.8741 55.2638 24.7818 50.863 24.6896 46.4316C25.6735 46.4316 26.1347 46.4316 27.1186 46.4622C27.1493 48.8765 27.1801 49.7628 27.2108 51.5048C28.6559 51.5353 29.3631 51.5659 30.8082 51.6576C30.7774 49.9462 30.7467 49.0905 30.7159 46.6761C31.6998 46.7678 32.161 46.8289 33.1449 46.9206C33.2372 51.1686 33.3601 55.4166 33.4524 59.6646Z" fill="#F15A29"/>
<path d="M41.0161 59.6951C38.8023 59.6951 37.6647 59.6951 35.451 59.6645C35.4202 58.5338 35.4202 58.0448 35.3895 57.128C36.0044 57.1585 36.3119 57.1585 36.9575 57.1585C36.8653 53.8885 36.8346 53.155 36.7423 49.885C36.1274 49.7933 35.8199 49.7627 35.205 49.7016C35.1742 48.7848 35.1742 48.2958 35.1435 47.165C37.3573 47.4707 38.4641 47.6846 40.6472 48.1124C40.6779 49.1821 40.6779 49.6405 40.7086 50.4656C40.0937 50.374 39.7862 50.3128 39.1713 50.2212C39.2636 53.3995 39.325 54.0719 39.4173 57.2502C40.0322 57.2808 40.3397 57.2808 40.9854 57.3113C40.9854 58.167 40.9854 58.6255 41.0161 59.6951Z" fill="#F15A29"/>
<path d="M51.6545 59.7257C50.7013 59.7257 50.2401 59.7257 49.287 59.7257C47.5344 56.1195 46.6735 55.5388 44.9517 52.605C45.0747 55.2943 45.1362 55.8444 45.2591 59.6951C44.3675 59.6951 43.9063 59.6951 43.0146 59.6951C42.9224 55.9667 42.7072 52.2382 42.6149 48.5098C43.7833 48.7543 44.3675 48.8765 45.5051 49.121C46.981 52.605 47.7189 53.369 49.1947 55.386C49.1025 53.4912 49.041 52.88 48.918 49.885C49.8097 50.0989 50.2401 50.1906 51.1318 50.374C51.3162 53.5218 51.5007 56.639 51.6545 59.7257Z" fill="#F15A29"/>
<path d="M62.5081 59.2359C62.0776 59.3888 61.5242 59.5416 60.817 59.7249C60.1098 59.9083 59.4026 60 58.7262 60C57.0966 60 55.836 59.4193 54.8829 58.4719C53.9297 57.5245 53.407 56.4549 53.3148 55.2936C53.2533 54.1628 53.653 53.246 54.5754 52.5125C55.4978 51.779 56.8507 51.504 58.6032 51.8707C59.2489 52.0235 59.8946 52.2069 60.4788 52.4514C61.063 52.6959 61.7394 53.0932 62.4773 53.521C62.4773 54.3462 62.4773 54.6823 62.4773 55.2324C62.3543 55.2019 62.2928 55.2019 62.2006 55.2019C62.0776 55.1408 61.8931 55.0185 61.6471 54.8657C61.4012 54.7129 61.1859 54.5907 60.94 54.4684C60.694 54.3156 60.3865 54.1934 60.0483 54.0406C59.7101 53.8878 59.3411 53.7961 58.9414 53.7349C58.4802 53.6433 58.0805 53.6433 57.7116 53.6738C57.3426 53.7044 57.0044 53.8266 56.7277 53.9794C56.451 54.1322 56.2357 54.3462 56.1127 54.6212C55.959 54.8963 55.8975 55.2019 55.9283 55.5686C55.959 56.3021 56.2665 56.9133 56.8507 57.4023C57.4348 57.8913 58.265 58.1663 59.3719 58.2274C59.4641 58.2274 59.5564 58.2274 59.6794 58.2274C59.8023 58.2274 59.8946 58.2274 59.9868 58.2274C59.9868 57.6162 59.9561 57.3412 59.9561 56.8827C59.1874 56.8216 58.7877 56.7911 58.019 56.7299C57.9883 56.241 57.9883 56.027 57.9883 55.5381C59.8023 55.752 60.694 55.8742 62.5081 56.0576C62.5081 57.1272 62.5081 57.4328 62.5081 59.2359Z" fill="#F15A29"/>
<path d="M70.5945 60C69.8565 60 69.1494 59.8777 68.5037 59.6638C67.858 59.4499 67.3046 59.1443 66.8741 58.7775C66.4129 58.4108 66.0747 58.0441 65.798 57.6468C65.552 57.2495 65.429 56.8827 65.429 56.4549C65.429 56.0882 65.552 55.7214 65.798 55.3852C66.0439 55.0491 66.3822 54.7129 66.8434 54.4379C67.2738 54.1628 67.8273 53.9183 68.4729 53.7961C69.1186 53.6738 69.8258 53.6433 70.5945 53.7349C71.0249 53.7961 71.3939 53.8572 71.7321 53.9489C72.0703 54.0406 72.4085 54.1322 72.6852 54.2239C72.9927 54.3156 73.2694 54.4379 73.5154 54.5601C73.7614 54.6823 73.9766 54.774 74.1611 54.8351C74.1611 55.5992 74.1611 55.8437 74.1611 56.2715C74.0381 56.2715 73.9766 56.2715 73.8536 56.241C73.7306 56.1798 73.5769 56.1187 73.3617 56.027C73.1772 55.9354 72.962 55.8437 72.716 55.752C72.47 55.6603 72.1933 55.5686 71.9166 55.4769C71.6398 55.3852 71.3016 55.3241 70.9942 55.2936C70.6252 55.263 70.287 55.263 69.9488 55.2936C69.6106 55.3241 69.3031 55.4158 69.0264 55.5381C68.7497 55.6603 68.5344 55.8131 68.3807 55.9965C68.227 56.1798 68.1347 56.3938 68.1347 56.6688C68.1347 56.9439 68.227 57.1884 68.4114 57.4023C68.5959 57.6162 68.8112 57.7996 69.0879 57.9524C69.3646 58.1052 69.6721 58.2274 70.0103 58.2886C70.3485 58.3497 70.6867 58.4108 71.0249 58.4108C71.3324 58.4108 71.6706 58.4108 71.9781 58.3497C72.2855 58.2886 72.5622 58.2274 72.839 58.1663C73.0542 58.1052 73.2694 58.0441 73.4539 57.9524C73.6384 57.8913 73.7921 57.8301 73.9151 57.769C74.0381 57.769 74.0688 57.769 74.1918 57.769C74.1918 58.1969 74.1918 58.4414 74.1918 59.1748C73.9459 59.2665 73.6999 59.3582 73.4539 59.4193C73.2079 59.511 72.9927 59.5721 72.716 59.6332C72.3778 59.7249 72.0703 59.7861 71.7936 59.8166C71.4861 59.9694 71.0864 60 70.5945 60Z" fill="#F15A29"/>
<path d="M83.3851 59.8165C80.4642 59.8165 79.0191 59.8165 76.0981 59.8165C76.0981 56.2409 76.0981 57.9829 76.0981 54.4072C77.1435 54.4683 77.6662 54.4683 78.7116 54.4683C78.7116 57.3411 78.7116 56.6687 78.7116 58.4413C80.5872 58.4413 81.5403 58.4413 83.4159 58.4107C83.3851 58.8691 83.3851 59.1136 83.3851 59.8165Z" fill="#F15A29"/>
<path d="M93.8389 56.8515C93.8389 57.6155 93.47 58.4101 92.7013 59.0213C91.9326 59.6325 90.8258 59.9993 89.3499 59.9993C87.8741 59.9993 86.7365 59.6325 85.9985 59.1435C85.2299 58.6546 84.8609 58.0739 84.8609 57.5544C84.8609 56.4542 84.8609 56.4847 84.8609 54.1621C85.9063 54.0398 86.429 53.9787 87.4744 53.7953C87.4744 56.1486 87.4744 56.2097 87.4744 57.3404C87.4744 57.646 87.6281 57.9211 87.9048 58.135C88.2123 58.3184 88.6735 58.4406 89.3499 58.4101C89.9956 58.3795 90.4875 58.2573 90.795 58.0128C91.1025 57.7683 91.2562 57.4321 91.2562 57.0654C91.2562 55.7207 91.2562 55.5679 91.2562 53.0313C92.3016 52.7868 92.8243 52.634 93.8697 52.2979C93.8389 55.0484 93.8389 55.2928 93.8389 56.8515Z" fill="#F15A29"/>
<path d="M104.939 55.6294C104.939 56.1795 104.846 56.7296 104.631 57.2186C104.447 57.7076 104.17 58.166 103.832 58.5327C103.432 58.9606 103.001 59.2662 102.51 59.4495C102.018 59.6329 101.433 59.7246 100.695 59.7246C98.9429 59.7552 98.0513 59.7552 96.2679 59.7552C96.2679 55.1404 96.2679 56.1184 96.2679 51.4731C97.836 50.8924 98.6354 50.5563 100.204 49.8228C101.034 49.4255 101.618 49.181 101.987 49.0588C102.356 48.9365 102.755 48.906 103.124 48.9671C103.493 49.0282 103.801 49.2421 103.985 49.5477C104.17 49.8839 104.262 50.2812 104.262 50.7702C104.262 51.3508 104.139 51.8704 103.862 52.3594C103.616 52.8483 103.247 53.2456 102.756 53.5818C102.756 53.6124 102.756 53.6124 102.756 53.6429C103.432 53.5818 103.955 53.6735 104.324 53.9791C104.723 54.3153 104.939 54.8654 104.939 55.6294ZM101.587 52.4205C101.587 52.2677 101.556 52.1149 101.464 51.9621C101.372 51.8398 101.218 51.7481 101.034 51.7481C100.849 51.7481 100.603 51.8093 100.327 51.901C100.05 51.9926 99.6501 52.1454 99.1274 52.3288C99.0351 52.3594 98.9737 52.3899 98.8814 52.4205C98.8814 53.2456 98.8814 53.5818 98.8814 54.2542C99.0351 54.2236 99.1274 54.193 99.2811 54.1319C99.6808 54.0097 100.05 53.918 100.327 53.8263C100.603 53.7346 100.849 53.6124 101.003 53.4901C101.249 53.3373 101.403 53.154 101.464 52.9706C101.556 52.8483 101.587 52.6344 101.587 52.4205ZM102.202 56.0878C102.202 55.7822 102.141 55.5377 102.018 55.4155C101.895 55.2932 101.679 55.2016 101.372 55.2016C101.157 55.2016 100.88 55.2321 100.542 55.2932C100.173 55.3544 99.8038 55.446 99.4349 55.5072C99.2196 55.5377 99.0966 55.5683 98.8507 55.6294C98.8507 56.3934 98.8507 56.7907 98.8507 57.7381C98.9122 57.7381 98.9737 57.7381 99.0351 57.7076C99.7731 57.6464 100.296 57.5853 100.603 57.5548C100.911 57.5242 101.218 57.4325 101.464 57.2797C101.741 57.1269 101.925 56.9435 102.018 56.7296C102.171 56.5462 102.202 56.3323 102.202 56.0878Z" fill="#F15A29"/>
</g>
<defs>
<clipPath id="clip0_396_176">
<rect width="105" height="61" fill="white" transform="translate(0 -1)"/>
</clipPath>
</defs>
</svg>
