<?xml version="1.0" standalone="no"?>
<!DOCTYPE svg PUBLIC "-//W3C//DTD SVG 1.1//EN" "http://www.w3.org/Graphics/SVG/1.1/DTD/svg11.dtd">
<svg xmlns="http://www.w3.org/2000/svg">
<defs >
<font id="Unbounded" horiz-adv-x="756" ><font-face
    font-family="Unbounded SemiBold"
    units-per-em="1000"
    panose-1="0 0 0 0 0 0 0 0 0 0"
    ascent="995"
    descent="-245"
    alphabetic="0" />
<glyph unicode=" " horiz-adv-x="252" />
<glyph unicode="!" horiz-adv-x="312" d="M59 750H253L222 256H90L59 750ZM156 -10Q110 -10 81 17T51 89Q51 133 80 160T156 187Q203 187 232 160T262 89Q262 45 233 18T156 -10Z" />
<glyph unicode="&quot;" horiz-adv-x="485" d="M303 431L268 750H445L409 431H303ZM75 431L40 750H217L181 431H75Z" />
<glyph unicode="#" horiz-adv-x="850" d="M224 750H373L285 0H136L224 750ZM564 750H713L625 0H476L564 750ZM66 564H807V436H66V564ZM42 313H783V185H42V313Z" />
<glyph unicode="$" horiz-adv-x="800" d="M410 -16Q300 -16 218 17T88 109T38 245H223Q229 190 279 158T414 125Q493 125 534 149T576 214Q576 237 564 253T522 280T439 295L331 305Q184 318 116 376T47 531Q47 604 89 656T208 737T389 766Q492 766 569 735T692
649T742 521H558Q553 566 511 595T386 625Q311 625 271 602T231 539Q231 519 242 504T281 478T357 464L475 454Q579 445 642 418T733 345T761 235Q761 161 718 105T597 16T410 -16ZM467 832V-82H330V832H467Z" />
<glyph unicode="%" horiz-adv-x="1273" d="M284 313Q207 313 149 341T57 419T24 537Q24 603 57 653T148 731T284 759Q362 759 420 731T511 653T544 537Q544 470 511 420T420 341T284 313ZM284 422Q337 422 367 452T398 536Q398 589 368 620T284 651Q231 651 201
620T171 536Q171 483 201 453T284 422ZM989 -16Q912 -16 854 12T763 91T730 208Q730 275 762 325T853 403T989 431Q1067 431 1125 403T1216 325T1249 208Q1249 142 1216 91T1125 12T989 -16ZM989 94Q1042 94 1072 124T1103 208Q1103 261 1073 291T989 322Q936 322
906 292T876 208Q876 154 906 124T989 94ZM772 750H910L502 0H364L772 750Z" />
<glyph unicode="&amp;" horiz-adv-x="925" d="M736 539H551Q546 581 516 607T429 634Q396 634 373 625T336 600T323 561Q323 544 334 526T370 485L937 0H703L228 405Q183 444 155 485T126 573Q126 631 160 674T261 741T422 766Q519 766 588 736T694 655T736 539ZM698
410H892L663 146Q615 89 566 54T459 1T327 -16Q235 -16 169 13T68 93T32 206Q32 262 61 308T154 385T317 427L356 354Q290 340 254 308T217 230Q217 201 234 177T281 138T354 124Q427 124 475 152T558 226L698 410Z" />
<glyph unicode="&apos;" horiz-adv-x="264" d="M40 750H224L188 431H76L40 750Z" />
<glyph unicode="(" horiz-adv-x="376" d="M209 750H354Q290 637 260 532T229 321Q229 217 259 112T354 -108H209Q123 -5 80 100T37 321Q37 437 80 542T209 750Z" />
<glyph unicode=")" horiz-adv-x="376" d="M167 750Q253 648 295 543T338 321Q338 206 296 101T167 -108H21Q86 7 116 112T147 321Q147 427 117 532T21 750H167Z" />
<glyph unicode="*" horiz-adv-x="532" d="M208 767H324L317 614L460 670L496 559L348 518L446 398L352 330L266 458L180 330L86 398L184 518L37 559L72 670L216 614L208 767Z" />
<glyph unicode="+" horiz-adv-x="620" d="M242 74V634H378V74H242ZM30 286V422H590V286H30Z" />
<glyph unicode="," horiz-adv-x="292" d="M37 -146L135 61L145 -7Q116 -7 92 7T53 45T39 98Q39 128 53 151T91 189T145 203Q176 203 200 189T238 151T252 95Q252 67 239 35T192 -47L130 -146H37Z" />
<glyph unicode="-" horiz-adv-x="366" d="M55 424H310V276H55V424Z" />
<glyph unicode="." horiz-adv-x="290" d="M145 -10Q115 -10 91 4T52 43T38 97Q38 127 52 151T90 189T145 204Q175 204 199 190T237 151T252 97Q252 67 238 43T199 5T145 -10Z" />
<glyph unicode="/" horiz-adv-x="450" d="M294 777H436L156 -27H14L294 777Z" />
<glyph unicode="0" horiz-adv-x="917" d="M459 -16Q332 -16 239 33T95 169T44 375Q44 492 95 580T239 717T459 766Q585 766 678 717T822 581T873 375Q873 258 822 170T678 33T459 -16ZM459 138Q566 138 625 200T685 375Q685 488 626 550T459 612Q352 612 292 550T232
375Q232 262 292 200T459 138Z" />
<glyph unicode="1" horiz-adv-x="507" d="M430 750V0H243V686L334 603L13 547V693L291 750H430Z" />
<glyph unicode="2" horiz-adv-x="823" d="M36 483Q42 570 93 633T228 731T420 766Q522 766 598 735T717 648T760 519Q760 462 730 414T635 317T464 215L248 101L237 151H781V0H49V132L371 317Q448 361 491 392T553 451T571 509Q571 541 554 566T501 605T413 619Q350
619 309 601T248 551T224 483H36Z" />
<glyph unicode="3" horiz-adv-x="830" d="M50 510Q55 581 100 639T228 731T431 766Q533 766 608 740T726 667T768 557Q768 506 738 465T642 399T476 375V395Q572 400 641 381T747 321T784 218Q784 150 741 98T616 15T415 -16Q300 -16 215 16T82 107T30 245H218Q226
190 274 161T415 131Q502 131 547 157T593 232Q593 260 578 278T527 307T427 317H297V446H427Q510 446 544 469T578 531Q578 573 539 596T420 619Q338 619 293 591T238 510H50Z" />
<glyph unicode="4" horiz-adv-x="846" d="M691 750V0H504V668H565L165 226L163 286H815V144H24V278L452 750H691Z" />
<glyph unicode="5" horiz-adv-x="799" d="M124 750H702V608H181L257 644L215 362H167Q189 399 227 430T322 480T452 499Q548 499 617 467T723 379T761 250Q761 173 718 113T595 19T402 -16Q292 -16 211 16T84 103T30 227H218Q229 183 276 157T402 131Q455 131
493 145T552 187T573 251Q573 286 555 313T500 355T409 370Q364 370 329 360T267 334T223 301H61L124 750Z" />
<glyph unicode="6" horiz-adv-x="849" d="M445 766Q541 766 614 737T734 659T790 546H614Q599 580 561 602T450 625Q372 625 322 596T247 514T223 382Q223 299 249 242T328 156T455 126Q508 126 544 140T599 181T618 239Q618 271 601 295T549 332T462 346Q393
346 331 315T220 226L153 272Q185 334 235 382T353 459T507 488Q599 488 666 458T770 372T807 245Q807 169 765 110T644 18T453 -16Q317 -16 226 34T90 172T45 375Q45 489 90 577T224 715T445 766Z" />
<glyph unicode="7" horiz-adv-x="740" d="M128 0L542 652L541 599H12V750H713V599L341 0H128Z" />
<glyph unicode="8" horiz-adv-x="883" d="M441 766Q622 766 718 710T814 554Q814 464 730 418T494 376V396Q657 408 748 360T839 208Q839 100 737 42T441 -16Q249 -16 147 42T44 208Q44 311 135 359T389 396V376Q238 371 154 417T69 554Q69 654 165 710T441 766ZM441
129Q542 129 595 153T648 223Q648 270 595 292T441 315Q340 315 288 293T235 223Q235 177 287 153T441 129ZM441 449Q501 449 542 458T605 487T626 535Q626 576 579 598T441 621Q352 621 304 599T256 535Q256 506 277 487T340 459T441 449Z" />
<glyph unicode="9" horiz-adv-x="849" d="M404 -16Q309 -16 235 13T116 92T59 204H235Q250 170 288 148T399 125Q478 125 528 154T602 237T626 368Q626 452 599 508T521 594T394 624Q341 624 305 610T250 570T231 511Q231 480 248 456T300 418T386 404Q457 404
519 435T629 524L695 478Q665 417 615 368T496 291T342 262Q249 262 182 292T79 378T42 505Q42 581 84 640T205 732T396 766Q532 766 622 716T759 578T804 375Q805 261 759 173T624 35T404 -16Z" />
<glyph unicode=":" horiz-adv-x="319" d="M160 -10Q113 -10 84 19T54 92Q54 136 83 164T160 193Q206 193 235 165T265 92Q265 48 236 19T160 -10ZM160 337Q113 337 84 366T54 439Q54 483 83 511T160 540Q206 540 235 512T265 439Q265 395 236 366T160 337Z" />
<glyph unicode=";" horiz-adv-x="323" d="M162 337Q116 337 86 366T56 439Q56 483 86 511T162 540Q209 540 238 512T268 439Q268 395 239 366T162 337ZM54 -146L152 61L162 -9Q115 -9 86 18T57 89Q57 133 86 160T162 187Q210 187 239 160T268 88Q268 64 255 33T209
-49L146 -146H54Z" />
<glyph unicode="&lt;" horiz-adv-x="620" d="M589 488L139 333V377L589 223V79L29 280V430L589 631V488Z" />
<glyph unicode="=" horiz-adv-x="620" d="M30 547H590V410H30V547ZM30 298H590V161H30V298Z" />
<glyph unicode="&gt;" horiz-adv-x="620" d="M31 488V631L591 430V280L31 79V223L481 377V333L31 488Z" />
<glyph unicode="?" horiz-adv-x="692" d="M247 280Q247 326 273 361T357 423L433 460Q460 473 474 490T489 529Q489 571 453 595T350 620Q283 620 243 591T194 509H16Q25 630 113 698T351 766Q500 766 584 706T668 537Q668 484 638 441T548 369L464 328Q439 316
427 301T414 264V244H252Q249 254 248 263T247 280ZM330 -10Q284 -10 255 17T225 89Q225 133 254 160T330 187Q378 187 407 160T436 89Q436 45 407 18T330 -10Z" />
<glyph unicode="@" horiz-adv-x="1039" d="M650 329Q637 231 587 173T453 115Q394 115 350 142T280 217T255 329Q255 392 280 440T349 515T453 542Q512 542 553 515T618 440T650 329ZM421 329Q421 289 444 265T505 241Q543 241 575 266T620 329Q607 367 575 391T505
416Q481 416 462 405T432 375T421 329ZM1008 385Q1008 307 974 250T876 160T727 128H641L608 271L628 329L607 385L631 529H802L772 329L809 148L748 203Q795 204 829 226T881 289T900 384Q900 467 856 528T730 622T540 655Q421 655 333 614T196 497T147 318Q147
223 195 152T330 43T536 5Q593 5 652 13T765 37T858 73V-28Q818 -47 764 -61T649 -82T532 -90Q381 -90 269 -40T96 102T34 317Q34 415 69 494T171 631T331 719T540 750Q682 750 787 705T950 577T1008 385Z" />
<glyph unicode="A" horiz-adv-x="943" d="M208 151V304H726V151H208ZM594 750L940 0H739L442 671H500L204 0H2L349 750H594Z" />
<glyph unicode="B" horiz-adv-x="874" d="M568 368L584 405Q672 403 728 378T812 310T840 210Q840 149 812 102T729 27T590 0H50L108 385L50 750H571Q675 750 732 702T790 568Q790 521 768 478T698 406T568 368ZM236 46L164 135H545Q594 135 621 158T649 225Q649
268 619 293T528 319H216V451H504Q545 451 572 474T599 539Q599 572 576 593T509 615H165L236 704L289 385L236 46Z" />
<glyph unicode="C" horiz-adv-x="929" d="M896 310Q885 213 829 140T681 25T472 -16Q342 -16 245 33T93 170T39 375Q39 492 93 580T244 717T472 766Q589 766 681 725T829 611T896 440H706Q696 491 666 527T586 582T471 602Q396 602 342 575T259 496T230 375Q230
305 259 254T342 176T471 148Q536 148 585 167T665 222T706 310H896Z" />
<glyph unicode="D" horiz-adv-x="919" d="M439 750Q571 750 670 703T824 572T880 375Q880 263 825 179T670 47T439 0H73V750H439ZM261 77L169 167H453Q525 167 578 193T660 265T689 375Q689 439 660 485T578 557T453 583H169L261 673V77Z" />
<glyph unicode="E" horiz-adv-x="787" d="M704 445V305H161V445H704ZM289 375L239 65L160 155H736V0H50L108 375L50 750H731V595H160L239 685L289 375Z" />
<glyph unicode="F" horiz-adv-x="763" d="M165 438H708V277H165V438ZM726 750V589H169L262 682V0H73V750H726Z" />
<glyph unicode="G" horiz-adv-x="960" d="M837 325Q835 257 810 196T738 87T622 12T461 -16Q373 -16 297 10T162 86T72 209T40 375Q40 468 72 541T163 664T300 740T472 766Q593 766 682 728T826 624T896 472H705Q695 514 663 544T583 590T472 607Q397 607 343
581T259 503T229 375Q229 299 261 246T351 166T488 139Q565 139 623 162T716 228T756 331L837 325ZM510 249V383H903V0H768L742 300L780 249H510Z" />
<glyph unicode="H" horiz-adv-x="931" d="M73 750H262V0H73V750ZM669 750H858V0H669V750ZM178 463H749V297H178V463Z" />
<glyph unicode="I" horiz-adv-x="335" d="M73 750H262V0H73V750Z" />
<glyph unicode="J" horiz-adv-x="799" d="M20 367H205V340Q205 247 244 198T375 148Q465 148 505 195T546 325V750H735V316Q735 211 690 137T564 23T375 -16Q269 -16 189 24T65 141T20 325V367Z" />
<glyph unicode="K" horiz-adv-x="860" d="M73 0V750H261V152L210 190L654 750H854L243 0H73ZM432 363L568 480L864 0H650L432 363Z" />
<glyph unicode="L" horiz-adv-x="757" d="M262 750V84L177 167H739V0H73V750H262Z" />
<glyph unicode="M" horiz-adv-x="1221" d="M1148 750V0H968V684L1012 681L707 0H514L209 679L253 683V0H73V750H364L649 94H573L857 750H1148Z" />
<glyph unicode="N" horiz-adv-x="963" d="M768 129L707 118V750H890V0H652L195 632L256 643V0H73V750H318L768 129Z" />
<glyph unicode="O" horiz-adv-x="961" d="M480 -16Q348 -16 249 33T94 170T39 375Q39 492 94 580T248 717T480 766Q612 766 711 717T866 580T922 375Q922 258 867 170T712 33T480 -16ZM480 153Q558 153 614 179T700 256T731 375Q731 444 701 494T614 570T480 597Q403
597 347 571T260 494T229 375Q229 306 260 256T347 180T480 153Z" />
<glyph unicode="P" horiz-adv-x="805" d="M488 750Q580 750 646 719T748 630T784 497Q784 421 749 364T647 276T488 244H160V397H478Q532 397 563 423T594 497Q594 544 563 570T478 597H177L262 685V0H73V750H488Z" />
<glyph unicode="Q" horiz-adv-x="961" d="M360 300H585L914 -55H682L360 300ZM480 -16Q348 -16 249 33T94 170T39 375Q39 492 94 580T248 717T480 766Q612 766 711 717T866 580T922 375Q922 258 867 170T712 33T480 -16ZM480 153Q558 153 614 179T700 256T731
375Q731 444 701 494T614 570T480 597Q403 597 347 571T260 494T229 375Q229 306 260 256T347 180T480 153Z" />
<glyph unicode="R" horiz-adv-x="840" d="M204 420H485Q538 420 569 444T600 513Q600 557 569 581T485 606H177L262 699V0H73V750H510Q594 750 657 720T755 637T790 513Q790 443 755 390T657 307T510 277H204V420ZM325 351H538L814 0H595L325 351Z" />
<glyph unicode="S" horiz-adv-x="833" d="M37 245H228Q233 211 259 185T328 145T430 131Q513 131 560 154T608 219Q608 251 581 268T478 294L333 309Q182 324 115 379T47 529Q47 604 91 657T216 738T405 766Q512 766 594 735T725 649T778 520H587Q583 551 560
572T497 606T402 619Q326 619 282 598T237 536Q237 506 263 489T358 464L511 447Q616 436 679 412T770 346T798 240Q798 163 752 106T622 16T427 -16Q312 -16 226 17T90 108T37 245Z" />
<glyph unicode="T" horiz-adv-x="809" d="M310 666H499V0H310V666ZM18 750H791V583H18V750Z" />
<glyph unicode="U" horiz-adv-x="874" d="M252 332Q252 277 273 237T336 175T437 153Q497 153 538 174T600 236T622 332V750H811V323Q811 221 764 145T633 27T437 -16Q325 -16 241 26T110 145T63 323V750H252V332Z" />
<glyph unicode="V" horiz-adv-x="922" d="M505 84H423L721 750H920L568 0H355L2 750H205L505 84Z" />
<glyph unicode="W" horiz-adv-x="1349" d="M1003 79L942 78L1139 750H1338L1103 0H862L635 652H714L488 0H246L11 750H211L408 79L348 80L575 750H775L1003 79Z" />
<glyph unicode="X" horiz-adv-x="851" d="M497 334V447L861 0H628L379 321H469L219 0H-10L356 446V335L13 750H248L475 460H384L607 750H838L497 334Z" />
<glyph unicode="Y" horiz-adv-x="910" d="M361 0V363H550V0H361ZM9 750H218L498 394H411L691 750H900L516 262L394 260L9 750Z" />
<glyph unicode="Z" horiz-adv-x="800" d="M41 0V138L548 645L682 601H45V750H755V613L248 105L133 150H758V0H41Z" />
<glyph unicode="[" horiz-adv-x="420" d="M388 750V612H157L242 696V-55L157 30H388V-108H69V750H388Z" />
<glyph unicode="\" horiz-adv-x="450" d="M156 777L436 -27H294L14 777H156Z" />
<glyph unicode="]" horiz-adv-x="420" d="M33 750H351V-108H33V30H263L178 -55V696L263 612H33V750Z" />
<glyph unicode="^" horiz-adv-x="620" d="M437 375L291 638H331L183 375H30L243 750H377L590 375H437Z" />
<glyph unicode="_" horiz-adv-x="482" d="M-30 -30H512V-155H-30V-30Z" />
<glyph unicode="`" horiz-adv-x="360" d="M208 812L333 627H160L27 812H208Z" />
<glyph unicode="a" horiz-adv-x="816" d="M578 0L553 207L580 285L553 362L578 570H771L736 285L771 0H578ZM624 285Q609 194 567 127T461 22T317 -16Q233 -16 170 22T70 127T34 285Q34 375 70 442T169 548T317 586Q397 586 461 549T567 444T624 285ZM222 285Q222
239 241 204T293 148T371 127Q415 127 454 147T524 203T569 285Q554 331 524 366T455 422T371 443Q327 443 294 423T241 367T222 285Z" />
<glyph unicode="b" horiz-adv-x="807" d="M60 770H245V397L220 348V214L245 166V0H60V770ZM183 285Q198 377 240 444T346 548T490 586Q574 586 637 548T737 443T773 285Q773 195 737 128T638 22T490 -16Q410 -16 346 21T240 126T183 285ZM585 285Q585 331 566
366T514 422T436 443Q392 443 353 423T284 367T238 285Q254 239 283 204T352 148T436 127Q480 127 513 147T566 203T585 285Z" />
<glyph unicode="c" horiz-adv-x="752" d="M726 237Q718 162 671 105T549 16T381 -16Q278 -16 199 22T76 128T32 285Q32 374 76 442T199 548T381 586Q474 586 548 554T670 466T726 333H541Q530 388 487 417T381 446Q332 446 296 427T239 372T219 285Q219 234 239
198T295 143T381 124Q444 124 487 154T541 237H726Z" />
<glyph unicode="d" horiz-adv-x="818" d="M581 0L556 215L590 283L557 369L603 770H796L739 299L773 0H581ZM624 285Q609 194 567 127T461 22T317 -16Q233 -16 170 22T70 127T34 285Q34 375 70 442T169 548T317 586Q397 586 461 549T567 444T624 285ZM222 285Q222
239 241 204T293 148T371 127Q415 127 454 147T524 203T569 285Q554 331 524 366T455 422T371 443Q327 443 294 423T241 367T222 285Z" />
<glyph unicode="e" horiz-adv-x="728" d="M387 -16Q285 -16 205 22T78 128T32 287Q32 376 76 443T197 548T373 586Q473 586 545 542T656 418T695 230H181V347H593L526 305Q523 352 504 384T452 434T376 452Q328 452 293 433T239 380T219 301Q219 244 244 204T318
143T437 122Q501 122 565 139T680 189V68Q622 28 548 6T387 -16Z" />
<glyph unicode="f" horiz-adv-x="576" d="M449 647Q381 647 353 621T324 539V0H138V528Q138 609 170 666T266 755T427 786Q471 786 505 780T576 762V624Q546 635 515 641T449 647ZM21 386V525H563V386H21Z" />
<glyph unicode="g" horiz-adv-x="805" d="M562 143V240L568 263V395L562 416V570H748V152Q748 46 700 -28T565 -142T365 -181Q286 -181 220 -161T88 -99V43Q149 -3 216 -23T353 -44Q454 -44 508 1T562 143ZM310 56Q230 56 167 89T68 181T32 321Q32 401 68 460T167
553T310 586Q370 586 420 568T509 519T575 454T616 383T630 319Q630 282 608 237T545 150T444 83T310 56ZM372 185Q434 185 483 218T568 321Q532 392 483 425T372 458Q325 458 291 441T238 394T219 321Q219 280 237 250T289 202T372 185Z" />
<glyph unicode="h" horiz-adv-x="768" d="M60 770H245V0H60V770ZM459 586Q540 586 597 554T685 461T716 318V0H530V290Q530 361 496 397T395 434Q350 434 316 415T264 360T245 275L186 306Q198 397 236 459T331 553T459 586Z" />
<glyph unicode="i" horiz-adv-x="305" d="M60 578L152 559L245 578V0H60V578ZM153 630Q104 630 73 655T42 723Q42 766 73 791T153 816Q203 816 233 791T263 723Q263 681 233 656T153 630Z" />
<glyph unicode="j" horiz-adv-x="305" d="M60 578L152 559L245 578V-165H60V578ZM153 630Q104 630 73 655T42 723Q42 766 73 791T153 816Q203 816 233 791T263 723Q263 681 233 656T153 630Z" />
<glyph unicode="k" horiz-adv-x="729" d="M245 151L194 168L521 570H720L227 0H60V770H245V151ZM359 279L497 380L735 0H524L359 279Z" />
<glyph unicode="l" horiz-adv-x="305" d="M60 770H245V0H60V770Z" />
<glyph unicode="m" horiz-adv-x="1195" d="M33 570H218L255 348V0H69V376L33 570ZM455 586Q533 586 587 554T670 461T699 318V0H513V290Q513 361 482 397T391 434Q349 434 319 415T272 360T255 275L196 306Q207 397 243 459T334 553T455 586ZM898 586Q976 586
1031 554T1114 461T1143 318V0H957V290Q957 361 926 397T835 434Q793 434 763 415T716 360T699 275L640 306Q651 397 687 459T778 553T898 586Z" />
<glyph unicode="n" horiz-adv-x="778" d="M33 570H218L255 348V0H69V376L33 570ZM468 586Q550 586 607 554T695 461T726 318V0H540V290Q540 361 505 397T405 434Q359 434 326 415T274 360T255 275L196 306Q207 397 245 459T341 553T468 586Z" />
<glyph unicode="o" horiz-adv-x="785" d="M392 -16Q284 -16 203 22T77 128T32 285Q32 375 77 442T203 548T392 586Q500 586 581 548T708 443T753 285Q753 195 708 128T582 22T392 -16ZM392 124Q447 124 485 143T544 199T565 285Q565 335 545 371T486 426T392 446Q339
446 300 427T240 371T219 285Q219 235 240 199T300 144T392 124Z" />
<glyph unicode="p" horiz-adv-x="808" d="M60 570H245V398L238 374V226L245 182V-165H60V570ZM184 285Q199 377 241 444T347 548T491 586Q575 586 638 548T738 443T774 285Q774 195 738 128T639 22T491 -16Q411 -16 348 21T242 126T184 285ZM586 285Q586 331 567
366T515 422T438 443Q394 443 354 423T285 367T239 285Q255 239 284 204T354 148T438 127Q481 127 514 147T567 203T586 285Z" />
<glyph unicode="q" horiz-adv-x="808" d="M748 570V-165H562V182L570 226V374L562 398V570H748ZM623 285Q609 194 567 127T461 22T316 -16Q233 -16 169 22T70 127T34 285Q34 375 69 442T169 548T316 586Q396 586 460 549T567 444T623 285ZM221 285Q221 239 240
204T293 148T370 127Q415 127 454 147T523 203T569 285Q553 331 523 366T454 422T370 443Q327 443 293 423T240 367T221 285Z" />
<glyph unicode="r" horiz-adv-x="542" d="M33 570H221L255 365V0H69V380L33 570ZM527 578V418Q500 424 474 427T425 430Q377 430 339 411T278 349T255 240L218 286Q225 347 241 401T285 496T354 562T455 586Q472 586 491 584T527 578Z" />
<glyph unicode="s" horiz-adv-x="734" d="M702 183Q702 119 665 75T555 7T380 -16Q275 -16 196 10T73 83T26 192H215Q221 167 243 148T302 120T387 110Q453 110 487 124T521 166Q521 187 497 198T409 214L305 222Q207 229 149 253T67 314T42 397Q42 460 81 502T191
565T355 586Q449 586 522 561T640 492T691 389H502Q498 409 481 426T431 453T346 464Q287 464 256 451T225 413Q225 394 244 383T316 367L451 357Q547 349 601 327T679 268T702 183Z" />
<glyph unicode="t" horiz-adv-x="591" d="M5 432V513L123 556L203 722H309V570H555V432H309V244Q309 180 335 155T428 129Q471 129 503 136T565 157V16Q535 4 487 -6T386 -16Q295 -16 237 13T151 94T123 218V432H5Z" />
<glyph unicode="u" horiz-adv-x="766" d="M303 -15Q223 -15 167 17T82 110T52 252V570H238V279Q238 210 271 173T366 136Q412 136 444 155T493 210T511 295L569 264Q559 174 522 112T428 17T303 -15ZM547 0L511 222V570H697V194L733 0H547Z" />
<glyph unicode="v" horiz-adv-x="755" d="M413 87L348 88L554 570H752L483 0H272L3 570H208L413 87Z" />
<glyph unicode="w" horiz-adv-x="1130" d="M829 103H770L939 570H1125L908 0H718L534 482H598L411 0H221L5 570H192L362 103H301L477 570H656L829 103Z" />
<glyph unicode="x" horiz-adv-x="700" d="M-11 0L256 321V260L5 570H212L382 364H323L493 570H696L438 257L429 337L712 0H501L317 221H379L197 0H-11Z" />
<glyph unicode="y" horiz-adv-x="761" d="M234 -181Q174 -181 128 -166T37 -121V10Q82 -19 121 -31T208 -44Q250 -44 281 -26T334 40L562 570H759L480 -18Q452 -78 413 -114T329 -165T234 -181ZM256 45L9 570H213L435 45H256Z" />
<glyph unicode="z" horiz-adv-x="683" d="M38 0V130L444 463L572 435H41V570H642V440L237 107L128 135H644V0H38Z" />
<glyph unicode="{" horiz-adv-x="456" d="M423 619H318Q291 619 280 603T277 558L304 463Q322 403 299 367T223 321Q275 312 298 276T304 179L277 85Q269 56 280 40T318 24H423V-108H236Q182 -108 147 -84T101 -19T105 71L146 195Q156 224 142 241T98 259H32V384H98Q128
384 142 401T146 447L105 571Q89 620 100 660T147 725T236 750H423V619Z" />
<glyph unicode="|" horiz-adv-x="306" d="M73 750H232V-98H73V750Z" />
<glyph unicode="}" horiz-adv-x="456" d="M34 619V750H221Q274 750 309 726T356 661T351 571L310 447Q301 418 315 401T358 384H425V259H358Q329 259 315 242T310 195L351 71Q368 22 356 -18T309 -83T221 -108H34V24H138Q165 24 176 40T180 85L153 179Q135 240
158 276T233 321Q181 330 158 366T153 463L180 558Q187 586 176 602T138 619H34Z" />
<glyph unicode="~" horiz-adv-x="620" d="M30 400Q107 437 196 437Q240 437 275 429T345 412T424 403Q512 403 590 439V308Q513 271 424 271Q381 271 346 279T275 296T196 305Q108 305 30 269V400Z" />
<glyph unicode="&#xa0;" horiz-adv-x="252" />
<glyph unicode="&#xa1;" horiz-adv-x="303" d="M248 -155H55L86 339H217L248 -155ZM152 605Q198 605 227 578T257 506Q257 462 228 435T152 408Q104 408 75 435T46 506Q46 550 75 577T152 605Z" />
<glyph unicode="&#xa2;" horiz-adv-x="781" d="M337 654H444V-85H337V654ZM732 233Q723 161 678 105T559 17T394 -15Q293 -15 216 23T96 128T53 284Q53 373 96 441T216 546T394 584Q484 584 557 553T676 466T732 335H559Q548 390 504 422T394 454Q343 454 305
434T246 376T225 284Q225 231 246 193T305 135T394 115Q457 115 502 147T559 233H732Z" />
<glyph unicode="&#xa3;" horiz-adv-x="806" d="M47 420H647V295H47V420ZM233 110L171 135H772V0H49V153Q146 169 195 197T245 270Q245 297 231 319T197 363T155 410T120 468T106 547Q106 613 146 662T260 738T429 766Q524 766 598 736T715 653T762 529H576Q568
574 530 599T434 625Q370 625 333 600T296 529Q296 499 309 476T342 432T382 392T415 348T429 291Q429 248 404 212T335 151T233 110Z" />
<glyph unicode="&#xa4;" horiz-adv-x="720" d="M360 135Q268 135 205 164T108 247T75 369Q75 438 108 491T204 573T360 603Q452 603 515 574T611 491T644 369Q644 300 612 247T516 165T360 135ZM360 264Q430 264 462 291T495 369Q495 420 463 447T360 474Q290
474 258 447T225 369Q225 319 257 292T360 264ZM104 625L225 528L145 470L42 561L104 625ZM616 625L678 554L575 470L495 528L616 625ZM104 113L42 177L145 268L225 210L104 113ZM616 113L495 210L575 268L678 177L616 113Z" />
<glyph unicode="&#xa5;" horiz-adv-x="865" d="M88 408H369L432 374L488 408H780V298H88V408ZM88 243H780V133H88V243ZM339 0V363H527V0H339ZM23 750H231L477 394H389L634 750H842L493 262L372 260L23 750Z" />
<glyph unicode="&#xa6;" horiz-adv-x="306" d="M73 239H232V-98H73V239ZM232 413H73V750H232V413Z" />
<glyph unicode="&#xa7;" horiz-adv-x="867" d="M423 766Q541 766 619 736T739 658T783 556H597Q594 581 575 602T517 636T421 649Q347 649 314 630T281 584Q281 560 302 546T372 517L600 458Q680 438 727 414T796 357T818 280Q818 220 766 182T600 137L592 180Q626
191 641 208T656 248Q656 281 630 299T546 333L309 397Q236 417 187 439T114 493T89 579Q89 630 125 672T236 740T423 766ZM444 -145Q326 -145 248 -115T129 -37T83 65H270Q273 40 292 19T349 -15T446 -28Q520 -28 553 -9T586 37Q586 61 565 75T494 104L267 163Q157
192 103 233T48 341Q48 400 100 438T266 485L274 441Q242 431 227 413T211 373Q211 341 237 323T321 288L557 224Q632 204 680 182T753 128T777 42Q777 -9 741 -51T632 -119T444 -145Z" />
<glyph unicode="&#xa8;" horiz-adv-x="584" d="M141 630Q94 630 66 654T38 720Q38 760 66 783T141 807Q188 807 216 784T245 720Q245 678 217 654T141 630ZM444 630Q397 630 369 654T340 720Q340 760 368 783T444 807Q490 807 518 784T547 720Q547 678 519 654T444 630Z" />
<glyph unicode="&#xa9;" horiz-adv-x="905" d="M452 -16Q370 -16 298 13T171 94T85 218T54 375Q54 460 85 531T171 655T298 737T452 766Q536 766 608 737T734 656T820 532T851 375Q851 290 820 219T735 95T608 13T452 -16ZM452 58Q519 58 577 81T679 146T747 247T772
375Q772 445 748 503T679 603T577 669T452 692Q386 692 328 669T226 604T158 503T133 375Q133 305 157 247T226 147T328 81T452 58ZM705 342Q699 281 666 235T578 164T454 139Q377 139 320 169T232 252T200 377Q200 449 231 502T320 586T454 616Q523 616 577 591T665
521T705 413H573Q565 456 534 480T453 504Q397 504 365 470T333 377Q333 320 365 286T453 251Q504 251 534 274T573 342H705Z" />
<glyph unicode="&#xaa;" horiz-adv-x="635" d="M436 304L417 465L439 524L417 587L436 746H602L574 525L602 304H436ZM474 524Q464 455 432 403T351 321T239 291Q175 291 126 320T49 402T21 524Q21 595 48 647T125 729T239 758Q302 758 351 729T433 648T474 524ZM182
524Q182 493 195 468T232 429T286 415Q335 415 374 446T430 524Q414 573 375 604T286 635Q256 635 233 621T196 582T182 524Z" />
<glyph unicode="&#xab;" horiz-adv-x="704" d="M190 547H380L212 287V333L380 74H190L42 310L190 547ZM473 547H663L495 287V333L663 74H473L325 310L473 547Z" />
<glyph unicode="&#xac;" horiz-adv-x="620" d="M451 186V473L534 388H26V524H586V186H451Z" />
<glyph unicode="&#xad;" horiz-adv-x="0" />
<glyph unicode="&#xae;" horiz-adv-x="785" d="M392 140Q320 140 258 163T151 228T80 328T55 453Q55 520 80 577T150 677T258 742T392 766Q465 766 527 743T634 677T705 578T730 453Q730 385 705 328T635 229T527 163T392 140ZM392 206Q472 206 531 238T623 325T657
453Q657 524 624 580T531 667T392 699Q314 699 254 668T161 580T127 453Q127 381 160 326T254 238T392 206ZM239 631H332V278H239V631ZM423 404H308V475H415Q437 475 449 486T462 517Q462 537 450 548T415 559H308V631H423Q482 631 519 600T556 517Q556 466 519
435T423 404ZM360 443H456L566 278H457L360 443Z" />
<glyph unicode="&#xaf;" horiz-adv-x="518" d="M31 655V769H504V655H31Z" />
<glyph unicode="&#xb0;" horiz-adv-x="455" d="M228 456Q174 456 133 475T69 528T46 608Q46 653 69 687T133 740T228 759Q281 759 322 740T386 687T409 608Q409 563 386 529T322 475T228 456ZM228 534Q265 534 284 553T304 608Q304 643 285 662T228 682Q191 682
171 663T151 608Q151 572 171 553T228 534Z" />
<glyph unicode="&#xb1;" horiz-adv-x="620" d="M242 220V631H378V220H242ZM30 361V490H590V361H30ZM30 165H590V36H30V165Z" />
<glyph unicode="&#xb2;" horiz-adv-x="539" d="M39 701Q43 747 72 785T154 846T280 869Q346 869 392 850T463 798T488 721Q488 682 471 652T419 597T334 546L206 482L143 517H492V409H43V493L222 590Q264 613 291 631T333 667T347 705Q347 729 328 743T269 757Q228
757 206 741T178 701H39Z" />
<glyph unicode="&#xb3;" horiz-adv-x="580" d="M45 698Q51 774 117 821T303 869Q413 869 470 833T528 738Q528 686 480 658T336 632V648Q415 649 459 636T521 599T539 543Q539 482 481 441T297 400Q216 400 157 422T65 485T32 576H169Q174 539 205 524T288 508Q339
508 363 517T388 552Q388 571 372 581T310 591H236V678H310Q338 678 353 684T374 699T381 720Q381 738 362 749T294 761Q240 761 213 744T183 698H45Z" />
<glyph unicode="&#xb4;" horiz-adv-x="360" d="M152 812H333L200 627H27L152 812Z" />
<glyph unicode="&#xb6;" horiz-adv-x="805" d="M246 750H523V0H387V409L478 318H246Q181 318 131 345T52 421T23 534Q23 598 51 646T130 722T246 750ZM592 0V750H728V0H592Z" />
<glyph unicode="&#xb7;" horiz-adv-x="300" d="M150 261Q120 261 96 275T57 314T43 368Q43 398 57 422T95 460T150 475Q180 475 204 461T242 422T257 368Q257 338 243 314T204 276T150 261Z" />
<glyph unicode="&#xb8;" horiz-adv-x="423" d="M161 14H256L199 -71L155 -69Q177 -57 203 -50T263 -42Q329 -42 363 -67T397 -138Q397 -184 352 -215T221 -247Q145 -247 93 -218T26 -140H140Q148 -151 166 -160T221 -170Q254 -170 270 -160T287 -134Q287 -119
274 -110T230 -100Q214 -100 200 -103T176 -111H80L161 14Z" />
<glyph unicode="&#xb9;" horiz-adv-x="453" d="M317 859V468H186V833L259 751L55 719V828L214 859H317ZM49 517H428V409H49V517Z" />
<glyph unicode="&#xba;" horiz-adv-x="603" d="M302 291Q217 291 153 320T54 402T18 525Q18 594 53 646T153 728T302 758Q386 758 450 729T549 648T585 525Q585 455 550 403T450 321T302 291ZM302 411Q358 411 390 441T423 525Q423 578 391 608T302 639Q245 639
213 609T180 525Q180 471 212 441T302 411Z" />
<glyph unicode="&#xbb;" horiz-adv-x="704" d="M514 547L662 310L514 74H324L491 333V287L324 547H514ZM231 547L379 310L231 74H41L209 333V287L41 547H231Z" />
<glyph unicode="&#xbc;" horiz-adv-x="1123" d="M302 750V359H171V724L244 642L40 610V719L199 750H302ZM34 408H413V300H34V408ZM711 750H849L441 0H303L711 750ZM1039 450V0H909V389L964 393L747 135L728 177H1106V78H630V169L871 450H1039Z" />
<glyph unicode="&#xbd;" horiz-adv-x="1167" d="M302 750V359H171V724L244 642L40 610V719L199 750H302ZM34 408H413V300H34V408ZM707 750H845L437 0H299L707 750ZM676 292Q680 338 709 376T791 437T917 460Q983 460 1029 441T1100 389T1125 312Q1125 273 1108
243T1056 188T971 137L843 73L780 108H1129V0H680V84L859 181Q901 204 928 222T970 258T984 296Q984 320 965 334T906 348Q865 348 843 332T815 292H676Z" />
<glyph unicode="&#xbe;" horiz-adv-x="1222" d="M47 588Q53 664 119 711T305 759Q415 759 472 723T530 628Q530 576 482 548T338 522V538Q417 539 461 526T523 489T541 433Q541 372 483 331T299 290Q218 290 159 312T67 375T34 466H171Q176 429 207 414T290 398Q341
398 365 407T390 442Q390 461 374 471T312 481H238V568H312Q340 568 355 574T376 589T383 610Q383 628 364 639T296 651Q242 651 215 634T185 588H47ZM801 750H939L531 0H393L801 750ZM1133 450V0H1003V389L1058 393L841 135L822 177H1200V78H724V169L965 450H1133Z"
/>
<glyph unicode="&#xbf;" horiz-adv-x="688" d="M443 315Q443 269 417 235T333 172L256 135Q230 123 215 106T200 66Q200 24 236 0T339 -25Q407 -25 448 4T495 86H674Q665 -35 577 -103T339 -171Q190 -171 106 -111T22 58Q22 111 52 154T142 226L226 267Q251 279
263 294T276 331V351H438Q441 342 442 333T443 315ZM359 605Q406 605 435 578T465 506Q465 462 436 435T359 408Q312 408 283 435T254 506Q254 550 283 577T359 605Z" />
<glyph unicode="&#xc0;" horiz-adv-x="943" d="M208 151V304H726V151H208ZM594 750L940 0H739L442 671H500L204 0H2L349 750H594ZM428 972L575 807H387L216 972H428Z" />
<glyph unicode="&#xc1;" horiz-adv-x="943" d="M208 151V304H726V151H208ZM594 750L940 0H739L442 671H500L204 0H2L349 750H594ZM503 972H715L544 807H356L503 972Z" />
<glyph unicode="&#xc2;" horiz-adv-x="943" d="M208 151V304H726V151H208ZM594 750L940 0H739L442 671H500L204 0H2L349 750H594ZM372 972H571L722 807H566L429 911H514L377 807H222L372 972Z" />
<glyph unicode="&#xc3;" horiz-adv-x="943" d="M208 151V304H726V151H208ZM594 750L940 0H739L442 671H500L204 0H2L349 750H594ZM208 813Q218 888 258 932T375 977Q402 977 428 970T477 953T522 936T560 928Q582 928 596 939T613 973H735Q725 897 685 853T568
808Q541 808 515 815T466 832T421 849T383 857Q361 857 347 846T330 813H208Z" />
<glyph unicode="&#xc4;" horiz-adv-x="943" d="M208 151V304H726V151H208ZM594 750L940 0H739L442 671H500L204 0H2L349 750H594ZM318 810Q271 810 243 834T215 900Q215 940 243 963T318 987Q365 987 393 964T422 900Q422 858 394 834T318 810ZM625 810Q578 810
550 834T521 900Q521 940 549 963T625 987Q671 987 699 964T728 900Q728 858 700 834T625 810Z" />
<glyph unicode="&#xc5;" horiz-adv-x="943" d="M208 151V304H726V151H208ZM594 750L940 0H739L442 671H500L204 0H2L349 750H594ZM471 791Q382 791 332 825T282 922Q282 984 332 1018T471 1053Q562 1053 611 1019T661 922Q661 860 612 826T471 791ZM472 873Q515
873 535 885T556 921Q556 945 536 957T472 970Q428 970 408 958T387 921Q387 898 407 886T472 873Z" />
<glyph unicode="&#xc6;" horiz-adv-x="1256" d="M767 305L828 155H1218V0H694L424 701H491L207 0H5L325 750H1193V595H654L715 445H1165V305H767ZM195 151V304H689V151H195Z" />
<glyph unicode="&#xc7;" horiz-adv-x="929" d="M896 310Q885 213 829 140T681 25T472 -16Q342 -16 245 33T93 170T39 375Q39 492 93 580T244 717T472 766Q589 766 681 725T829 611T896 440H706Q696 491 666 527T586 582T471 602Q396 602 342 575T259 496T230 375Q230
305 259 254T342 176T471 148Q536 148 585 167T665 222T706 310H896ZM431 18H523L472 -70L425 -67Q450 -54 476 -47T536 -40Q603 -40 639 -66T675 -137Q675 -185 628 -216T490 -248Q412 -248 359 -220T290 -140H413Q421 -153 439 -160T490 -168Q524 -168 540 -158T557
-133Q557 -119 543 -111T501 -102Q484 -102 469 -104T441 -111H348L431 18Z" />
<glyph unicode="&#xc8;" horiz-adv-x="787" d="M704 445V305H161V445H704ZM289 375L239 65L160 155H736V0H50L108 375L50 750H731V595H160L239 685L289 375ZM353 972L500 807H312L141 972H353Z" />
<glyph unicode="&#xc9;" horiz-adv-x="787" d="M704 445V305H161V445H704ZM289 375L239 65L160 155H736V0H50L108 375L50 750H731V595H160L239 685L289 375ZM428 972H640L469 807H281L428 972Z" />
<glyph unicode="&#xca;" horiz-adv-x="787" d="M704 445V305H161V445H704ZM289 375L239 65L160 155H736V0H50L108 375L50 750H731V595H160L239 685L289 375ZM297 972H496L647 807H491L354 911H439L302 807H147L297 972Z" />
<glyph unicode="&#xcb;" horiz-adv-x="787" d="M704 445V305H161V445H704ZM289 375L239 65L160 155H736V0H50L108 375L50 750H731V595H160L239 685L289 375ZM243 810Q196 810 168 834T140 900Q140 940 168 963T243 987Q290 987 318 964T347 900Q347 858 319 834T243
810ZM550 810Q503 810 475 834T446 900Q446 940 474 963T550 987Q596 987 624 964T653 900Q653 858 625 834T550 810Z" />
<glyph unicode="&#xcc;" horiz-adv-x="335" d="M73 750H262V0H73V750ZM124 972L271 807H83L-88 972H124Z" />
<glyph unicode="&#xcd;" horiz-adv-x="335" d="M73 750H262V0H73V750ZM199 972H411L240 807H52L199 972Z" />
<glyph unicode="&#xce;" horiz-adv-x="335" d="M71 972H264L374 807H241L145 909H190L94 807H-39L71 972ZM73 750H262V0H73V750Z" />
<glyph unicode="&#xcf;" horiz-adv-x="335" d="M60 810Q20 810 -3 833T-26 899Q-26 940 -3 963T60 987Q100 987 123 964T147 899Q147 857 124 834T60 810ZM275 810Q235 810 212 833T189 899Q189 940 212 963T275 987Q315 987 338 964T361 899Q361 857 338 834T275
810ZM73 750H262V0H73V750Z" />
<glyph unicode="&#xd0;" horiz-adv-x="946" d="M27 440H467V312H27V440ZM466 750Q598 750 697 703T851 572T907 375Q907 263 852 179T697 47T466 0H100V750H466ZM288 77L196 167H480Q552 167 605 193T687 265T716 375Q716 439 687 485T605 557T480 583H196L288 673V77Z" />
<glyph unicode="&#xd1;" horiz-adv-x="963" d="M768 129L707 118V750H890V0H652L195 632L256 643V0H73V750H318L768 129ZM231 813Q241 888 281 932T398 977Q425 977 451 970T500 953T545 936T583 928Q605 928 619 939T636 973H758Q748 897 708 853T591 808Q564
808 538 815T489 832T444 849T406 857Q384 857 370 846T353 813H231Z" />
<glyph unicode="&#xd2;" horiz-adv-x="961" d="M480 -16Q348 -16 249 33T94 170T39 375Q39 492 94 580T248 717T480 766Q612 766 711 717T866 580T922 375Q922 258 867 170T712 33T480 -16ZM480 153Q558 153 614 179T700 256T731 375Q731 444 701 494T614 570T480
597Q403 597 347 571T260 494T229 375Q229 306 260 256T347 180T480 153ZM437 972L584 807H396L224 972H437Z" />
<glyph unicode="&#xd3;" horiz-adv-x="961" d="M480 -16Q348 -16 249 33T94 170T39 375Q39 492 94 580T248 717T480 766Q612 766 711 717T866 580T922 375Q922 258 867 170T712 33T480 -16ZM480 153Q558 153 614 179T700 256T731 375Q731 444 701 494T614 570T480
597Q403 597 347 571T260 494T229 375Q229 306 260 256T347 180T480 153ZM512 972H724L553 807H365L512 972Z" />
<glyph unicode="&#xd4;" horiz-adv-x="961" d="M480 -16Q348 -16 249 33T94 170T39 375Q39 492 94 580T248 717T480 766Q612 766 711 717T866 580T922 375Q922 258 867 170T712 33T480 -16ZM480 153Q558 153 614 179T700 256T731 375Q731 444 701 494T614 570T480
597Q403 597 347 571T260 494T229 375Q229 306 260 256T347 180T480 153ZM380 972H579L730 807H574L437 911H522L385 807H230L380 972Z" />
<glyph unicode="&#xd5;" horiz-adv-x="961" d="M480 -16Q348 -16 249 33T94 170T39 375Q39 492 94 580T248 717T480 766Q612 766 711 717T866 580T922 375Q922 258 867 170T712 33T480 -16ZM480 153Q558 153 614 179T700 256T731 375Q731 444 701 494T614 570T480
597Q403 597 347 571T260 494T229 375Q229 306 260 256T347 180T480 153ZM216 813Q226 888 266 932T383 977Q410 977 436 970T485 953T530 936T568 928Q590 928 604 939T621 973H743Q733 897 693 853T576 808Q549 808 523 815T474 832T429 849T391 857Q369 857
355 846T338 813H216Z" />
<glyph unicode="&#xd6;" horiz-adv-x="961" d="M480 -16Q348 -16 249 33T94 170T39 375Q39 492 94 580T248 717T480 766Q612 766 711 717T866 580T922 375Q922 258 867 170T712 33T480 -16ZM480 153Q558 153 614 179T700 256T731 375Q731 444 701 494T614 570T480
597Q403 597 347 571T260 494T229 375Q229 306 260 256T347 180T480 153ZM327 810Q280 810 252 834T224 900Q224 940 252 963T327 987Q374 987 402 964T431 900Q431 858 403 834T327 810ZM634 810Q587 810 559 834T530 900Q530 940 558 963T634 987Q680 987 708
964T737 900Q737 858 709 834T634 810Z" />
<glyph unicode="&#xd7;" horiz-adv-x="620" d="M64 197L460 593L557 497L161 101L64 197ZM64 497L161 593L557 197L460 101L64 497Z" />
<glyph unicode="&#xd8;" horiz-adv-x="960" d="M729 767H901L231 -17H59L729 767ZM480 -16Q348 -16 249 33T94 170T39 375Q39 492 94 580T248 717T480 766Q577 766 657 738T797 658T888 535T921 375Q921 258 866 170T712 33T480 -16ZM480 145Q559 145 616 172T704
252T735 375Q735 446 704 498T616 577T480 605Q401 605 344 578T256 498T225 375Q225 304 256 252T344 173T480 145Z" />
<glyph unicode="&#xd9;" horiz-adv-x="874" d="M252 332Q252 277 273 237T336 175T437 153Q497 153 538 174T600 236T622 332V750H811V323Q811 221 764 145T633 27T437 -16Q325 -16 241 26T110 145T63 323V750H252V332ZM393 972L540 807H352L181 972H393Z" />
<glyph unicode="&#xda;" horiz-adv-x="874" d="M252 332Q252 277 273 237T336 175T437 153Q497 153 538 174T600 236T622 332V750H811V323Q811 221 764 145T633 27T437 -16Q325 -16 241 26T110 145T63 323V750H252V332ZM468 972H680L509 807H321L468 972Z" />
<glyph unicode="&#xdb;" horiz-adv-x="874" d="M252 332Q252 277 273 237T336 175T437 153Q497 153 538 174T600 236T622 332V750H811V323Q811 221 764 145T633 27T437 -16Q325 -16 241 26T110 145T63 323V750H252V332ZM337 972H536L687 807H531L394 911H479L342
807H187L337 972Z" />
<glyph unicode="&#xdc;" horiz-adv-x="874" d="M252 332Q252 277 273 237T336 175T437 153Q497 153 538 174T600 236T622 332V750H811V323Q811 221 764 145T633 27T437 -16Q325 -16 241 26T110 145T63 323V750H252V332ZM283 810Q236 810 208 834T180 900Q180 940
208 963T283 987Q330 987 358 964T387 900Q387 858 359 834T283 810ZM590 810Q543 810 515 834T486 900Q486 940 514 963T590 987Q636 987 664 964T693 900Q693 858 665 834T590 810Z" />
<glyph unicode="&#xdd;" horiz-adv-x="910" d="M361 0V363H550V0H361ZM9 750H218L498 394H411L691 750H900L516 262L394 260L9 750ZM487 972H699L528 807H340L487 972Z" />
<glyph unicode="&#xde;" horiz-adv-x="820" d="M73 750H262V0H73V750ZM488 126H197V278H477Q532 278 563 305T594 380Q594 427 563 454T477 481H198V633H488Q580 633 646 602T748 513T784 380Q784 303 749 246T647 158T488 126Z" />
<glyph unicode="&#xdf;" horiz-adv-x="880" d="M59 0V475Q59 569 104 638T232 747T430 786Q533 786 604 761T712 690T748 588Q748 513 689 464T521 404L542 423Q698 420 775 365T852 215Q852 146 815 94T709 13T543 -16Q477 -16 422 -7T306 23V166Q372 141 420
131T514 121Q591 121 627 148T664 223Q664 254 646 278T587 315T476 329H399V458H443Q503 458 535 482T567 546Q567 593 528 619T419 646Q337 646 291 605T245 492V0H59Z" />
<glyph unicode="&#xe0;" horiz-adv-x="816" d="M578 0L553 207L580 285L553 362L578 570H771L736 285L771 0H578ZM624 285Q609 194 567 127T461 22T317 -16Q233 -16 170 22T70 127T34 285Q34 375 70 442T169 548T317 586Q397 586 461 549T567 444T624 285ZM222
285Q222 239 241 204T293 148T371 127Q415 127 454 147T524 203T569 285Q554 331 524 366T455 422T371 443Q327 443 294 423T241 367T222 285ZM375 812L500 627H327L194 812H375Z" />
<glyph unicode="&#xe1;" horiz-adv-x="816" d="M578 0L553 207L580 285L553 362L578 570H771L736 285L771 0H578ZM624 285Q609 194 567 127T461 22T317 -16Q233 -16 170 22T70 127T34 285Q34 375 70 442T169 548T317 586Q397 586 461 549T567 444T624 285ZM222
285Q222 239 241 204T293 148T371 127Q415 127 454 147T524 203T569 285Q554 331 524 366T455 422T371 443Q327 443 294 423T241 367T222 285ZM427 812H608L475 627H302L427 812Z" />
<glyph unicode="&#xe2;" horiz-adv-x="816" d="M578 0L553 207L580 285L553 362L578 570H771L736 285L771 0H578ZM624 285Q609 194 567 127T461 22T317 -16Q233 -16 170 22T70 127T34 285Q34 375 70 442T169 548T317 586Q397 586 461 549T567 444T624 285ZM222
285Q222 239 241 204T293 148T371 127Q415 127 454 147T524 203T569 285Q554 331 524 366T455 422T371 443Q327 443 294 423T241 367T222 285ZM310 812H502L645 627H496L363 764H448L316 627H167L310 812Z" />
<glyph unicode="&#xe3;" horiz-adv-x="816" d="M578 0L553 207L580 285L553 362L578 570H771L736 285L771 0H578ZM624 285Q609 194 567 127T461 22T317 -16Q233 -16 170 22T70 127T34 285Q34 375 70 442T169 548T317 586Q397 586 461 549T567 444T624 285ZM222
285Q222 239 241 204T293 148T371 127Q415 127 454 147T524 203T569 285Q554 331 524 366T455 422T371 443Q327 443 294 423T241 367T222 285ZM161 635Q166 718 201 766T305 814Q332 814 357 806T404 788T447 770T484 761Q505 761 519 774T537 813H650Q646 732
611 683T506 634Q480 634 455 642T407 660T365 679T328 687Q307 687 293 674T274 635H161Z" />
<glyph unicode="&#xe4;" horiz-adv-x="816" d="M578 0L553 207L580 285L553 362L578 570H771L736 285L771 0H578ZM624 285Q609 194 567 127T461 22T317 -16Q233 -16 170 22T70 127T34 285Q34 375 70 442T169 548T317 586Q397 586 461 549T567 444T624 285ZM222
285Q222 239 241 204T293 148T371 127Q415 127 454 147T524 203T569 285Q554 331 524 366T455 422T371 443Q327 443 294 423T241 367T222 285ZM254 630Q207 630 179 654T151 720Q151 760 179 783T254 807Q301 807 329 784T358 720Q358 678 330 654T254 630ZM557
630Q510 630 482 654T453 720Q453 760 481 783T557 807Q603 807 631 784T660 720Q660 678 632 654T557 630Z" />
<glyph unicode="&#xe5;" horiz-adv-x="816" d="M578 0L553 207L580 285L553 362L578 570H771L736 285L771 0H578ZM624 285Q609 194 567 127T461 22T317 -16Q233 -16 170 22T70 127T34 285Q34 375 70 442T169 548T317 586Q397 586 461 549T567 444T624 285ZM222
285Q222 239 241 204T293 148T371 127Q415 127 454 147T524 203T569 285Q554 331 524 366T455 422T371 443Q327 443 294 423T241 367T222 285ZM405 617Q320 617 272 653T223 752Q223 814 271 850T405 886Q490 886 538 850T587 752Q587 689 539 653T405 617ZM405
695Q442 695 461 710T481 752Q481 779 462 794T405 809Q369 809 349 794T329 752Q329 725 349 710T405 695Z" />
<glyph unicode="&#xe6;" horiz-adv-x="1261" d="M957 -16Q855 -16 780 23T664 130T622 285Q622 375 659 442T765 548T926 586Q1024 586 1092 542T1194 420T1226 240H724V342H1123L1069 301Q1066 350 1047 385T994 439T912 458Q866 458 831 439T776 385T756 301Q756
245 781 205T856 144T980 122Q1041 122 1100 137T1210 183V66Q1176 41 1138 23T1055 -6T957 -16ZM564 0L550 207L577 285L550 362L564 570H700L714 289L700 0H564ZM624 285Q609 194 567 127T461 22T317 -16Q233 -16 170 22T70 127T34 285Q34 375 70 442T169 548T317
586Q397 586 461 549T567 444T624 285ZM222 285Q222 239 241 204T293 148T371 127Q415 127 454 147T524 203T569 285Q554 331 524 366T455 422T371 443Q327 443 294 423T241 367T222 285Z" />
<glyph unicode="&#xe7;" horiz-adv-x="752" d="M726 237Q718 162 671 105T549 16T381 -16Q278 -16 199 22T76 128T32 285Q32 374 76 442T199 548T381 586Q474 586 548 554T670 466T726 333H541Q530 388 487 417T381 446Q332 446 296 427T239 372T219 285Q219 234
239 198T295 143T381 124Q444 124 487 154T541 237H726ZM343 14H438L381 -71L337 -69Q359 -57 385 -50T445 -42Q511 -42 545 -67T579 -138Q579 -184 534 -215T403 -247Q327 -247 275 -218T208 -140H322Q330 -151 348 -160T403 -170Q436 -170 452 -160T469 -134Q469
-119 456 -110T412 -100Q396 -100 382 -103T358 -111H262L343 14Z" />
<glyph unicode="&#xe8;" horiz-adv-x="728" d="M387 -16Q285 -16 205 22T78 128T32 287Q32 376 76 443T197 548T373 586Q473 586 545 542T656 418T695 230H181V347H593L526 305Q523 352 504 384T452 434T376 452Q328 452 293 433T239 380T219 301Q219 244 244
204T318 143T437 122Q501 122 565 139T680 189V68Q622 28 548 6T387 -16ZM341 812L466 627H292L160 812H341Z" />
<glyph unicode="&#xe9;" horiz-adv-x="728" d="M387 -16Q285 -16 205 22T78 128T32 287Q32 376 76 443T197 548T373 586Q473 586 545 542T656 418T695 230H181V347H593L526 305Q523 352 504 384T452 434T376 452Q328 452 293 433T239 380T219 301Q219 244 244
204T318 143T437 122Q501 122 565 139T680 189V68Q622 28 548 6T387 -16ZM393 812H574L441 627H268L393 812Z" />
<glyph unicode="&#xea;" horiz-adv-x="728" d="M387 -16Q285 -16 205 22T78 128T32 287Q32 376 76 443T197 548T373 586Q473 586 545 542T656 418T695 230H181V347H593L526 305Q523 352 504 384T452 434T376 452Q328 452 293 433T239 380T219 301Q219 244 244
204T318 143T437 122Q501 122 565 139T680 189V68Q622 28 548 6T387 -16ZM275 812H467L610 627H461L328 764H413L281 627H132L275 812Z" />
<glyph unicode="&#xeb;" horiz-adv-x="728" d="M387 -16Q285 -16 205 22T78 128T32 287Q32 376 76 443T197 548T373 586Q473 586 545 542T656 418T695 230H181V347H593L526 305Q523 352 504 384T452 434T376 452Q328 452 293 433T239 380T219 301Q219 244 244
204T318 143T437 122Q501 122 565 139T680 189V68Q622 28 548 6T387 -16ZM220 630Q173 630 145 654T117 720Q117 760 145 783T220 807Q267 807 295 784T324 720Q324 678 296 654T220 630ZM523 630Q476 630 448 654T419 720Q419 760 447 783T523 807Q569 807 597
784T626 720Q626 678 598 654T523 630Z" />
<glyph unicode="&#xec;" horiz-adv-x="305" d="M60 578L152 559L245 578V0H60V578ZM122 812L247 627H74L-59 812H122Z" />
<glyph unicode="&#xed;" horiz-adv-x="305" d="M60 578L152 559L245 578V0H60V578ZM174 812H355L222 627H49L174 812Z" />
<glyph unicode="&#xee;" horiz-adv-x="305" d="M56 812H248L343 627H216L129 756H175L88 627H-38L56 812ZM60 578L152 559L245 578V0H60V578Z" />
<glyph unicode="&#xef;" horiz-adv-x="305" d="M56 630Q18 630 -4 655T-27 723Q-27 767 -5 791T56 816Q95 816 117 792T140 723Q140 680 118 655T56 630ZM255 630Q216 630 194 655T171 723Q171 767 193 791T255 816Q293 816 315 792T338 723Q338 680 316 655T255
630ZM60 578L152 559L245 578V0H60V578Z" />
<glyph unicode="&#xf0;" horiz-adv-x="783" d="M394 -16Q285 -16 203 18T76 114T31 258Q31 336 72 394T189 486T362 519Q425 519 481 502T583 442L562 440Q531 501 487 556T385 663T260 758L444 786Q550 706 617 626T716 465T748 300Q748 208 706 137T585 25T394
-16ZM391 124Q446 124 484 139T544 185T565 255Q565 295 544 324T485 370T391 386Q338 386 299 371T239 326T218 255Q218 215 239 185T299 140T391 124ZM255 553V648L705 735V639L255 553Z" />
<glyph unicode="&#xf1;" horiz-adv-x="778" d="M33 570H218L255 348V0H69V376L33 570ZM468 586Q550 586 607 554T695 461T726 318V0H540V290Q540 361 505 397T405 434Q359 434 326 415T274 360T255 275L196 306Q207 397 245 459T341 553T468 586ZM153 635Q158
718 193 766T297 814Q324 814 349 806T396 788T439 770T476 761Q497 761 511 774T529 813H642Q638 732 603 683T498 634Q472 634 447 642T399 660T357 679T320 687Q299 687 285 674T266 635H153Z" />
<glyph unicode="&#xf2;" horiz-adv-x="785" d="M392 -16Q284 -16 203 22T77 127T32 285Q32 375 77 442T203 548T392 586Q500 586 581 548T708 443T753 285Q753 195 708 128T582 22T392 -16ZM392 124Q447 124 485 143T544 199T565 285Q565 335 545 371T486 426T392
446Q339 446 300 427T240 371T219 285Q219 235 240 199T300 144T392 124ZM362 812L487 627H314L181 812H362Z" />
<glyph unicode="&#xf3;" horiz-adv-x="785" d="M392 -16Q284 -16 203 22T77 128T32 285Q32 375 77 442T203 548T392 586Q500 586 581 548T708 443T753 285Q753 195 708 128T582 22T392 -16ZM392 124Q447 124 485 143T544 199T565 285Q565 335 545 371T486 426T392
446Q339 446 300 427T240 371T219 285Q219 235 240 199T300 144T392 124ZM414 812H595L462 627H289L414 812Z" />
<glyph unicode="&#xf4;" horiz-adv-x="785" d="M392 -16Q284 -16 203 22T77 128T32 285Q32 375 77 442T203 548T392 586Q500 586 581 548T708 443T753 285Q753 195 708 128T582 22T392 -16ZM392 124Q447 124 485 143T544 199T565 285Q565 335 545 371T486 426T392
446Q339 446 300 427T240 371T219 285Q219 235 240 199T300 144T392 124ZM297 812H489L632 627H483L350 764H435L303 627H154L297 812Z" />
<glyph unicode="&#xf5;" horiz-adv-x="785" d="M392 -16Q284 -16 203 22T77 128T32 285Q32 375 77 442T203 548T392 586Q500 586 581 548T708 443T753 285Q753 195 708 128T582 22T392 -16ZM392 124Q447 124 485 143T544 199T565 285Q565 335 545 371T486 426T392
446Q339 446 300 427T240 371T219 285Q219 235 240 199T300 144T392 124ZM147 635Q152 718 187 766T291 814Q318 814 343 806T390 788T433 770T470 761Q491 761 505 774T523 813H636Q632 732 597 683T492 634Q466 634 441 642T393 660T351 679T314 687Q293 687
279 674T260 635H147Z" />
<glyph unicode="&#xf6;" horiz-adv-x="785" d="M392 -16Q284 -16 203 22T77 128T32 285Q32 375 77 442T203 548T392 586Q500 586 581 548T708 443T753 285Q753 195 708 128T582 22T392 -16ZM392 124Q447 124 485 143T544 199T565 285Q565 335 545 371T486 426T392
446Q339 446 300 427T240 371T219 285Q219 235 240 199T300 144T392 124ZM241 630Q194 630 166 654T138 720Q138 760 166 783T241 807Q288 807 316 784T345 720Q345 678 317 654T241 630ZM544 630Q497 630 469 654T440 720Q440 760 468 783T544 807Q590 807 618
784T647 720Q647 678 619 654T544 630Z" />
<glyph unicode="&#xf7;" horiz-adv-x="620" d="M300 477Q262 477 238 500T214 560Q214 597 238 620T300 643Q338 643 362 620T386 560Q386 524 362 501T300 477ZM300 65Q262 65 238 88T214 148Q214 184 238 207T300 231Q338 231 362 208T386 148Q386 112 362 89T300
65ZM30 422H590V286H30V422Z" />
<glyph unicode="&#xf8;" horiz-adv-x="785" d="M575 599H743L209 -29H42L575 599ZM392 -16Q284 -16 203 22T77 127T32 285Q32 375 77 442T203 548T392 586Q500 586 581 548T708 443T753 285Q753 195 708 128T582 22T392 -16ZM392 110Q450 110 490 131T553 192T575
285Q575 339 553 378T491 439T392 460Q336 460 295 439T232 379T210 285Q210 231 232 192T295 132T392 110Z" />
<glyph unicode="&#xf9;" horiz-adv-x="766" d="M303 -15Q223 -15 167 17T82 110T52 252V570H238V279Q238 210 271 173T366 136Q412 136 444 155T493 210T511 295L569 264Q559 174 522 112T428 17T303 -15ZM547 0L511 222V570H697V194L733 0H547ZM350 812L475 627H302L169
812H350Z" />
<glyph unicode="&#xfa;" horiz-adv-x="766" d="M303 -15Q223 -15 167 17T82 110T52 252V570H238V279Q238 210 271 173T366 136Q412 136 444 155T493 210T511 295L569 264Q559 174 522 112T428 17T303 -15ZM547 0L511 222V570H697V194L733 0H547ZM402 812H583L450
627H277L402 812Z" />
<glyph unicode="&#xfb;" horiz-adv-x="766" d="M303 -15Q223 -15 167 17T82 110T52 252V570H238V279Q238 210 271 173T366 136Q412 136 444 155T493 210T511 295L569 264Q559 174 522 112T428 17T303 -15ZM547 0L511 222V570H697V194L733 0H547ZM285 812H477L620
627H471L338 764H423L291 627H142L285 812Z" />
<glyph unicode="&#xfc;" horiz-adv-x="766" d="M303 -15Q223 -15 167 17T82 110T52 252V570H238V279Q238 210 271 173T366 136Q412 136 444 155T493 210T511 295L569 264Q559 174 522 112T428 17T303 -15ZM547 0L511 222V570H697V194L733 0H547ZM229 630Q182 630
154 654T126 720Q126 760 154 783T229 807Q276 807 304 784T333 720Q333 678 305 654T229 630ZM532 630Q485 630 457 654T428 720Q428 760 456 783T532 807Q578 807 606 784T635 720Q635 678 607 654T532 630Z" />
<glyph unicode="&#xfd;" horiz-adv-x="761" d="M234 -181Q174 -181 128 -166T37 -121V10Q82 -19 121 -31T208 -44Q250 -44 281 -26T334 40L562 570H759L480 -18Q452 -78 413 -114T329 -165T234 -181ZM256 45L9 570H213L435 45H256ZM411 812H592L459 627H286L411 812Z" />
<glyph unicode="&#xfe;" horiz-adv-x="808" d="M60 770H245V398L238 374V226L245 182V-165H60V770ZM184 285Q199 377 241 444T347 548T491 586Q575 586 638 548T738 443T774 285Q774 195 738 128T639 22T491 -16Q411 -16 348 21T242 126T184 285ZM586 285Q586
331 567 366T515 422T438 443Q394 443 354 423T285 367T239 285Q255 239 284 204T354 148T438 127Q481 127 514 147T567 203T586 285Z" />
<glyph unicode="&#xff;" horiz-adv-x="761" d="M234 -181Q174 -181 128 -166T37 -121V10Q82 -19 121 -31T208 -44Q250 -44 281 -26T334 40L562 570H759L480 -18Q452 -78 413 -114T329 -165T234 -181ZM256 45L9 570H213L435 45H256ZM238 630Q191 630 163 654T135
720Q135 760 163 783T238 807Q285 807 313 784T342 720Q342 678 314 654T238 630ZM541 630Q494 630 466 654T437 720Q437 760 465 783T541 807Q587 807 615 784T644 720Q644 678 616 654T541 630Z" />
<glyph unicode="&#x2013;" horiz-adv-x="656" d="M55 420H601V280H55V420Z" />
<glyph unicode="&#x2014;" horiz-adv-x="1193" d="M55 420H601V280H55V420ZM591 420H1137V280H591V420Z" />
<glyph unicode="&#x2018;" horiz-adv-x="283" d="M242 750L147 549L136 617Q167 617 190 603T228 566T242 513Q242 485 228 462T190 424T136 410Q108 410 84 424T45 462T31 516Q31 544 44 575T90 656L151 750H242Z" />
<glyph unicode="&#x2019;" horiz-adv-x="287" d="M50 420L144 621L156 553Q126 553 102 567T64 604T50 656Q50 685 64 708T102 746T156 760Q185 760 209 746T247 708T261 654Q261 627 248 595T202 514L141 420H50Z" />
<glyph unicode="&#x201a;" horiz-adv-x="289" d="M39 -137L133 64L145 -4Q115 -4 91 10T53 47T39 99Q39 128 53 151T91 189T145 203Q174 203 198 189T236 151T250 97Q250 70 237 38T191 -43L130 -137H39Z" />
<glyph unicode="&#x201c;" horiz-adv-x="534" d="M494 750L399 549L388 617Q418 617 442 603T480 566T494 513Q494 485 480 462T442 424T388 410Q359 410 335 424T297 462T283 516Q283 544 296 575T342 656L403 750H494ZM242 750L147 549L136 617Q167 617 190
603T228 566T242 513Q242 485 228 462T190 424T136 410Q108 410 84 424T45 462T31 516Q31 544 44 575T90 656L151 750H242Z" />
<glyph unicode="&#x201d;" horiz-adv-x="538" d="M50 420L144 621L156 553Q126 553 102 567T64 604T50 656Q50 685 64 708T102 746T156 760Q185 760 209 746T247 708T261 654Q261 627 248 595T202 514L141 420H50ZM302 420L396 621L408 553Q378 553 354 567T316
604T302 656Q302 685 316 708T354 746T408 760Q437 760 461 746T499 708T513 654Q513 627 500 595T454 514L393 420H302Z" />
<glyph unicode="&#x201e;" horiz-adv-x="541" d="M39 -137L133 64L145 -4Q115 -4 91 10T53 47T39 99Q39 128 53 151T91 189T145 203Q174 203 198 189T236 151T250 97Q250 70 237 38T191 -43L130 -137H39ZM291 -137L385 64L397 -4Q367 -4 343 10T305 47T291 99Q291
128 305 151T343 189T397 203Q426 203 450 189T488 151T502 97Q502 70 489 38T443 -43L382 -137H291Z" />
<glyph unicode="&#x2022;" horiz-adv-x="390" d="M195 237Q156 237 125 255T75 305T57 375Q57 415 75 446T124 495T195 513Q234 513 265 495T314 446T333 375Q333 336 315 305T265 255T195 237Z" />
<glyph unicode="&#x2039;" horiz-adv-x="421" d="M190 547H380L212 287V333L380 74H190L42 310L190 547Z" />
<glyph unicode="&#x203a;" horiz-adv-x="421" d="M231 547L379 310L231 74H41L209 333V287L41 547H231Z" />
</font>
</defs>
</svg>
