<?xml version="1.0" standalone="no"?>
<!DOCTYPE svg PUBLIC "-//W3C//DTD SVG 1.1//EN" "http://www.w3.org/Graphics/SVG/1.1/DTD/svg11.dtd">
<svg xmlns="http://www.w3.org/2000/svg">
<defs >
<font id="Unbounded" horiz-adv-x="756" ><font-face
    font-family="Unbounded Medium"
    units-per-em="1000"
    panose-1="0 0 0 0 0 0 0 0 0 0"
    ascent="995"
    descent="-245"
    alphabetic="0" />
<glyph unicode=" " horiz-adv-x="256" />
<glyph unicode="!" horiz-adv-x="302" d="M64 750H238L210 247H92L64 750ZM151 -9Q108 -9 81 16T54 82Q54 123 81 148T151 174Q194 174 221 149T248 82Q248 42 221 17T151 -9Z" />
<glyph unicode="&quot;" horiz-adv-x="464" d="M292 447L261 750H420L389 447H292ZM74 447L43 750H202L171 447H74Z" />
<glyph unicode="#" horiz-adv-x="842" d="M229 750H364L276 0H141L229 750ZM566 750H701L613 0H478L566 750ZM68 556H798V439H68V556ZM44 309H774V192H44V309Z" />
<glyph unicode="$" horiz-adv-x="788" d="M405 -15Q296 -15 215 17T87 109T38 245H204Q211 184 264 149T408 113Q493 113 537 140T582 211Q582 237 569 255T523 285T432 303L327 313Q184 326 116 383T48 534Q48 606 89 657T206 737T383 765Q485 765 561 735T682
650T730 522H565Q559 572 514 604T381 637Q300 637 258 611T215 540Q215 519 227 502T269 473T351 457L465 447Q568 438 630 411T721 338T749 229Q749 158 707 103T588 16T405 -15ZM455 832V-82H330V832H455Z" />
<glyph unicode="%" horiz-adv-x="1252" d="M280 315Q204 315 147 342T58 420T25 537Q25 603 57 653T147 731T280 759Q356 759 413 731T502 653T534 537Q534 471 502 421T413 343T280 315ZM280 415Q336 415 369 447T402 537Q402 594 370 626T280 659Q223 659 191
627T158 537Q158 480 190 448T280 415ZM973 -14Q898 -14 841 13T751 91T719 208Q719 274 751 324T840 402T974 430Q1050 430 1107 402T1196 324T1228 208Q1228 142 1196 92T1107 14T973 -14ZM973 86Q1030 86 1062 118T1095 208Q1095 264 1063 297T974 330Q917 330
885 297T852 208Q852 151 884 119T973 86ZM768 750H894L486 0H360L768 750Z" />
<glyph unicode="&amp;" horiz-adv-x="909" d="M721 542H555Q549 588 516 616T421 645Q385 645 359 636T319 608T304 564Q304 546 316 525T357 479L919 0H707L229 406Q182 447 155 488T127 575Q127 632 161 674T260 741T415 765Q510 765 577 736T680 657T721 542ZM698
406H874L655 148Q608 92 559 56T454 2T324 -15Q233 -15 168 14T68 93T33 205Q33 261 62 307T154 384T313 427L350 361Q278 345 240 310T201 226Q201 195 218 169T269 128T346 112Q421 112 471 141T558 220L698 406Z" />
<glyph unicode="&apos;" horiz-adv-x="252" d="M43 750H209L177 447H75L43 750Z" />
<glyph unicode="(" horiz-adv-x="361" d="M206 750H338Q274 638 243 533T211 322Q211 217 242 113T338 -105H206Q122 -2 81 103T39 322Q39 437 80 542T206 750Z" />
<glyph unicode=")" horiz-adv-x="361" d="M155 750Q239 648 280 543T322 322Q322 208 281 103T155 -105H23Q87 8 118 112T149 322Q149 428 118 533T23 750H155Z" />
<glyph unicode="*" horiz-adv-x="528" d="M211 766H317L311 610L458 666L490 565L339 521L440 397L354 335L264 466L174 335L88 397L188 521L38 565L70 666L218 610L211 766Z" />
<glyph unicode="+" horiz-adv-x="620" d="M248 74V634H372V74H248ZM30 292V416H590V292H30Z" />
<glyph unicode="," horiz-adv-x="282" d="M38 -143L131 54L140 -7Q113 -7 91 6T55 42T42 91Q42 118 55 140T90 174T140 187Q169 187 191 174T226 139T239 87Q239 61 227 31T184 -46L124 -143H38Z" />
<glyph unicode="-" horiz-adv-x="361" d="M57 418H304V283H57V418Z" />
<glyph unicode="." horiz-adv-x="279" d="M139 -9Q112 -9 90 4T54 39T41 89Q41 117 54 139T89 175T139 188Q167 188 189 175T225 140T238 89Q238 62 225 40T190 4T139 -9Z" />
<glyph unicode="/" horiz-adv-x="440" d="M295 777H425L145 -27H15L295 777Z" />
<glyph unicode="0" horiz-adv-x="909" d="M455 -15Q329 -15 238 33T96 170T46 375Q46 492 96 580T237 716T455 765Q580 765 671 717T813 580T863 375Q863 258 813 170T672 34T455 -15ZM455 123Q568 123 630 189T693 375Q693 495 631 561T455 627Q342 627 279 561T216
375Q216 255 279 189T455 123Z" />
<glyph unicode="1" horiz-adv-x="495" d="M414 750V0H246V694L330 618L11 562V694L289 750H414Z" />
<glyph unicode="2" horiz-adv-x="812" d="M38 486Q44 572 94 634T226 731T414 765Q514 765 589 735T706 649T748 521Q748 465 719 417T627 321T458 216L231 91L218 137H769V0H49V120L370 308Q450 354 495 387T559 450T578 512Q578 547 559 574T503 616T408 631Q341
631 298 612T234 559T208 486H38Z" />
<glyph unicode="3" horiz-adv-x="821" d="M52 513Q58 584 102 641T229 731T426 765Q527 765 601 739T716 667T757 558Q757 507 727 466T632 400T470 376V395Q565 400 632 381T737 320T774 217Q774 150 732 98T608 15T411 -15Q298 -15 214 17T83 107T32 243H202Q210
183 262 151T411 119Q505 119 553 148T601 229Q601 260 585 281T531 312T426 323H294V442H426Q512 442 549 468T586 535Q586 581 544 606T417 631Q330 631 281 601T222 513H52Z" />
<glyph unicode="4" horiz-adv-x="832" d="M673 750V0H505V677H563L153 223L151 279H801V149H24V269L458 750H673Z" />
<glyph unicode="5" horiz-adv-x="791" d="M125 750H693V620H177L246 655L204 362H159Q182 398 220 429T315 479T444 498Q541 498 610 466T715 377T752 248Q752 171 709 112T587 19T399 -15Q291 -15 211 16T86 103T32 225H201Q213 176 264 148T399 119Q455 119
496 134T559 179T582 248Q582 287 563 316T505 362T407 378Q359 378 321 367T255 339T208 302H63L125 750Z" />
<glyph unicode="6" horiz-adv-x="841" d="M441 765Q535 765 607 737T724 661T780 550H619Q604 586 564 610T446 635Q364 635 311 605T233 518T208 381Q208 296 236 237T318 147T452 116Q509 116 548 132T607 176T627 239Q627 273 609 299T554 341T461 356Q385
356 319 321T204 225L141 269Q173 331 224 380T344 457T499 486Q590 486 657 456T760 372T797 244Q797 168 756 110T637 18T450 -15Q317 -15 227 34T92 172T47 375Q47 489 92 577T225 715T441 765Z" />
<glyph unicode="7" horiz-adv-x="728" d="M133 0L548 661L547 613H11V750H701V614L322 0H133Z" />
<glyph unicode="8" horiz-adv-x="873" d="M437 765Q613 765 707 710T801 555Q801 466 717 419T483 376V397Q647 408 737 359T827 207Q827 100 727 43T437 -15Q248 -15 147 42T46 207Q46 309 136 358T390 397V376Q241 372 157 419T72 555Q72 655 166 710T437 765ZM437
117Q544 117 600 143T656 220Q656 272 600 296T437 321Q330 321 274 297T217 220Q217 169 273 143T437 117ZM437 445Q499 445 543 455T609 486T632 539Q632 585 582 609T437 633Q343 633 292 609T241 539Q241 508 263 487T330 455T437 445Z" />
<glyph unicode="9" horiz-adv-x="841" d="M399 -15Q307 -15 235 13T117 90T61 200H222Q237 164 277 140T395 115Q478 115 530 145T607 233T632 369Q632 455 605 514T523 603T389 634Q332 634 293 618T234 575T214 511Q214 477 232 451T287 409T380 394Q456 394
522 429T636 525L700 481Q669 419 618 370T497 293T342 264Q251 264 184 294T81 378T44 506Q44 582 85 640T205 732T391 765Q524 765 614 716T749 578T794 375Q795 261 750 173T616 35T399 -15Z" />
<glyph unicode=":" horiz-adv-x="311" d="M155 -9Q113 -9 86 18T58 86Q58 127 85 154T155 181Q198 181 225 154T253 86Q253 45 226 18T155 -9ZM155 345Q113 345 86 372T58 440Q58 481 85 508T155 535Q198 535 225 508T253 440Q253 399 226 372T155 345Z" />
<glyph unicode=";" horiz-adv-x="316" d="M158 345Q116 345 88 372T60 440Q60 481 88 508T158 535Q201 535 228 508T256 440Q256 399 229 372T158 345ZM57 -143L149 54L159 -8Q115 -8 89 17T62 83Q62 123 88 148T159 174Q202 174 229 148T256 81Q256 58 245 29T202
-47L142 -143H57Z" />
<glyph unicode="&lt;" horiz-adv-x="620" d="M589 495L130 335V376L589 215V85L29 288V423L589 626V495Z" />
<glyph unicode="=" horiz-adv-x="620" d="M30 539H590V415H30V539ZM30 293H590V169H30V293Z" />
<glyph unicode="&gt;" horiz-adv-x="620" d="M31 495V626L591 423V288L31 85V215L490 376V335L31 495Z" />
<glyph unicode="?" horiz-adv-x="679" d="M250 274Q250 320 275 354T357 416L433 454Q461 468 477 487T494 531Q494 578 455 605T344 632Q273 632 229 601T178 513H17Q26 632 112 698T344 765Q490 765 572 705T655 539Q655 487 625 444T536 370L452 329Q426 316
413 300T399 260V236H255Q252 246 251 255T250 274ZM324 -9Q281 -9 254 16T227 82Q227 123 254 148T324 174Q368 174 394 149T421 82Q421 42 395 17T324 -9Z" />
<glyph unicode="@" horiz-adv-x="1031" d="M656 329Q642 232 591 175T455 117Q397 117 353 143T283 218T257 329Q257 392 282 440T352 514T455 541Q513 541 555 514T622 440T656 329ZM407 329Q407 285 433 258T501 231Q543 231 577 258T627 329Q612 372 578 399T501
427Q473 427 452 415T419 380T407 329ZM999 385Q999 307 965 250T870 161T725 129H648L615 273L634 329L614 384L638 529H792L763 329L799 148L743 201Q790 201 824 224T878 288T897 384Q897 469 852 530T726 626T536 660Q417 660 329 618T192 500T143 318Q143
221 191 150T326 39T532 0Q588 0 647 8T760 33T852 70V-27Q812 -46 758 -60T644 -82T528 -90Q380 -90 269 -40T97 102T36 317Q36 415 71 494T172 631T330 719T536 750Q676 750 779 705T941 577T999 385Z" />
<glyph unicode="A" horiz-adv-x="928" d="M200 158V296H720V158H200ZM573 750L924 0H743L436 681H492L185 0H4L355 750H573Z" />
<glyph unicode="B" horiz-adv-x="865" d="M558 370L574 404Q661 402 718 377T802 308T829 208Q829 148 801 101T717 27T579 0H53L111 385L53 750H560Q664 750 721 702T779 568Q779 522 758 479T688 407T558 370ZM221 43L156 125H544Q598 125 627 150T657 222Q657
269 623 296T523 324H207V446H503Q548 446 577 471T607 543Q607 578 582 601T510 625H156L221 707L274 385L221 43Z" />
<glyph unicode="C" horiz-adv-x="923" d="M889 305Q878 210 823 138T677 25T470 -15Q342 -15 246 34T95 170T41 375Q41 492 95 579T245 716T470 765Q586 765 676 725T822 613T889 445H718Q708 498 675 536T590 596T469 617Q390 617 333 588T244 504T213 375Q213
301 244 247T332 163T469 133Q538 133 590 153T675 212T718 305H889Z" />
<glyph unicode="D" horiz-adv-x="911" d="M433 750Q564 750 662 703T816 572T871 375Q871 263 816 179T663 47T433 0H77V750H433ZM246 67L160 150H446Q522 150 579 178T668 257T699 375Q699 443 668 493T580 572T446 600H160L246 683V67Z" />
<glyph unicode="E" horiz-adv-x="780" d="M697 440V310H160V440H697ZM274 375L224 57L150 141H728V0H53L111 375L53 750H723V609H150L224 693L274 375Z" />
<glyph unicode="F" horiz-adv-x="755" d="M159 432H701V287H159V432ZM718 750V604H161L247 691V0H77V750H718Z" />
<glyph unicode="G" horiz-adv-x="955" d="M836 325Q835 257 810 196T737 87T621 12T461 -15Q373 -15 297 11T163 88T73 210T41 375Q41 467 73 539T164 662T300 738T470 765Q590 765 678 728T820 624T888 473H717Q707 519 674 552T589 603T470 621Q391 621 334
593T245 509T213 375Q213 296 246 240T340 155T484 125Q565 125 626 150T722 222T763 333L836 325ZM507 256V379H896V0H774L751 304L786 256H507Z" />
<glyph unicode="H" horiz-adv-x="924" d="M77 750H247V0H77V750ZM677 750H847V0H677V750ZM170 454H752V305H170V454Z" />
<glyph unicode="I" horiz-adv-x="323" d="M77 750H247V0H77V750Z" />
<glyph unicode="J" horiz-adv-x="792" d="M21 364H188V335Q188 238 230 186T371 133Q468 133 511 183T555 323V750H725V315Q725 209 681 135T556 23T371 -15Q267 -15 188 24T66 138T22 323L21 364Z" />
<glyph unicode="K" horiz-adv-x="851" d="M77 0V750H246V138L198 172L662 750H843L230 0H77ZM435 367L557 476L854 0H660L435 367Z" />
<glyph unicode="L" horiz-adv-x="751" d="M247 750V75L170 150H733V0H77V750H247Z" />
<glyph unicode="M" horiz-adv-x="1206" d="M1130 750V0H968V693L1011 690L691 0H516L196 688L238 692V0H77V750H338L640 82H567L869 750H1130Z" />
<glyph unicode="N" horiz-adv-x="954" d="M772 112L713 103V750H878V0H663L183 647L241 656V0H77V750H297L772 112Z" />
<glyph unicode="O" horiz-adv-x="956" d="M478 -15Q347 -15 249 34T95 170T40 375Q40 492 95 579T248 716T478 765Q609 765 707 716T861 580T916 375Q916 258 861 171T708 34T478 -15ZM478 136Q560 136 619 165T711 248T744 375Q744 448 712 502T620 585T478 614Q397
614 337 585T245 502T212 375Q212 302 244 248T337 165T478 136Z" />
<glyph unicode="P" horiz-adv-x="796" d="M486 750Q575 750 640 719T739 632T774 502Q774 428 740 373T640 286T486 254H155V394H477Q536 394 569 423T603 502Q603 553 570 581T477 610H170L247 691V0H77V750H486Z" />
<glyph unicode="Q" horiz-adv-x="957" d="M366 296H570L900 -54H691L366 296ZM478 -15Q347 -15 249 34T95 170T40 375Q40 492 95 579T248 716T478 765Q609 765 707 716T861 580T916 375Q916 258 861 171T708 34T478 -15ZM478 136Q560 136 619 165T711 248T744
375Q744 448 712 502T620 585T478 614Q397 614 337 585T245 502T212 375Q212 302 244 248T337 165T478 136Z" />
<glyph unicode="R" horiz-adv-x="830" d="M195 417H484Q541 417 574 443T608 517Q608 564 575 590T484 616H170L247 703V0H77V750H504Q586 750 648 721T745 639T780 517Q780 448 745 396T648 315T504 285H195V417ZM325 351H519L802 0H603L325 351Z" />
<glyph unicode="S" horiz-adv-x="823" d="M37 245H209Q215 207 242 179T316 135T424 119Q513 119 564 144T616 216Q616 252 587 271T477 300L326 317Q180 333 115 385T49 532Q49 606 92 658T215 737T401 765Q505 765 586 735T715 650T767 522H595Q590 555 566
579T498 617T397 631Q316 631 268 607T220 539Q220 505 248 487T349 459L506 440Q610 429 671 405T759 339T786 235Q786 160 741 104T613 16T421 -15Q309 -15 224 17T90 108T37 245Z" />
<glyph unicode="T" horiz-adv-x="801" d="M316 674H485V0H316V674ZM17 750H783V600H17V750Z" />
<glyph unicode="U" horiz-adv-x="870" d="M237 329Q237 269 260 226T327 160T435 136Q499 136 543 159T610 226T633 329V750H803V321Q803 220 757 145T628 27T435 -15Q325 -15 243 27T114 144T67 321V750H237V329Z" />
<glyph unicode="V" horiz-adv-x="910" d="M495 75H420L726 750H906L550 0H359L4 750H186L495 75Z" />
<glyph unicode="W" horiz-adv-x="1338" d="M997 69H939L1148 750H1326L1085 0H868L632 664H706L470 0H253L12 750H192L399 69L343 70L579 750H760L997 69Z" />
<glyph unicode="X" horiz-adv-x="832" d="M481 340V441L840 0H631L375 327H454L197 0H-8L352 440V342L15 750H226L460 454H379L610 750H817L481 340Z" />
<glyph unicode="Y" horiz-adv-x="897" d="M364 0V362H534V0H364ZM11 750H200L489 385H407L696 750H885L503 267L394 266L11 750Z" />
<glyph unicode="Z" horiz-adv-x="791" d="M41 0V126L563 658L681 614H45V750H747V625L224 91L123 136H750V0H41Z" />
<glyph unicode="[" horiz-adv-x="407" d="M376 750V625H152L229 701V-57L152 20H376V-105H72V750H376Z" />
<glyph unicode="\" horiz-adv-x="440" d="M145 777L425 -27H295L15 777H145Z" />
<glyph unicode="]" horiz-adv-x="407" d="M31 750H335V-105H31V20H255L179 -57V701L255 625H31V750Z" />
<glyph unicode="^" horiz-adv-x="620" d="M446 375L291 649H331L174 375H35L249 750H371L586 375H446Z" />
<glyph unicode="_" horiz-adv-x="482" d="M-26 -30H508V-143H-26V-30Z" />
<glyph unicode="`" horiz-adv-x="346" d="M193 807L317 627H160L29 807H193Z" />
<glyph unicode="a" horiz-adv-x="806" d="M584 0L560 208L587 284L560 359L584 569H757L724 284L757 0H584ZM628 284Q612 194 570 127T463 22T318 -15Q235 -15 171 22T72 127T36 284Q36 374 71 441T171 546T318 584Q398 584 462 547T570 443T628 284ZM205 284Q205
234 225 196T282 137T365 115Q412 115 453 136T527 196T577 284Q559 334 527 372T454 432T365 454Q318 454 282 433T226 373T205 284Z" />
<glyph unicode="b" horiz-adv-x="799" d="M63 770H230V388L207 343V219L230 173V0H63V770ZM171 284Q187 375 230 442T337 547T481 584Q564 584 628 547T728 442T764 284Q764 195 728 128T628 23T481 -15Q401 -15 337 22T231 126T171 284ZM594 284Q594 334 574
372T517 432T435 454Q388 454 346 433T273 373T223 284Q241 234 272 196T346 137T435 115Q481 115 517 136T573 196T594 284Z" />
<glyph unicode="c" horiz-adv-x="743" d="M716 232Q706 159 660 103T540 16T377 -15Q275 -15 198 22T77 128T33 284Q33 373 76 440T197 546T377 584Q467 584 540 553T659 466T716 336H549Q536 394 490 425T377 457Q324 457 285 437T224 378T203 284Q203 230 224
192T284 133T377 112Q444 112 490 145T549 232H716Z" />
<glyph unicode="d" horiz-adv-x="808" d="M587 0L563 215L595 283L564 366L609 770H782L727 296L760 0H587ZM628 284Q612 194 570 127T463 22T318 -15Q235 -15 171 22T72 127T36 284Q36 374 71 441T171 546T318 584Q398 584 462 547T570 443T628 284ZM205 284Q205
234 225 196T282 137T365 115Q412 115 453 136T527 196T577 284Q559 334 527 372T454 432T365 454Q318 454 282 433T226 373T205 284Z" />
<glyph unicode="e" horiz-adv-x="722" d="M384 -15Q283 -15 204 22T79 128T33 286Q33 375 76 442T196 546T369 584Q468 584 539 541T648 418T687 232H167V343H597L532 303Q528 353 508 388T452 442T370 461Q319 461 282 441T224 384T203 298Q203 239 229 197T305
133T426 111Q490 111 555 129T672 182V70Q616 30 542 8T384 -15Z" />
<glyph unicode="f" horiz-adv-x="563" d="M437 659Q367 659 336 632T305 543V0H138V532Q138 610 168 666T261 754T417 785Q460 785 494 779T563 761V635Q534 647 503 653T437 659ZM19 400V526H551V400H19Z" />
<glyph unicode="g" horiz-adv-x="796" d="M569 141V240L575 261V385L569 406V569H736V152Q736 44 689 -30T557 -142T362 -180Q284 -180 219 -160T90 -99V32Q151 -15 217 -35T352 -55Q457 -55 513 -6T569 141ZM310 52Q231 52 169 85T70 178T34 318Q34 398 70 457T168
550T310 584Q370 584 419 566T508 517T575 452T616 381T631 316Q631 279 609 233T544 146T443 79T310 52ZM365 170Q430 170 482 205T575 318Q535 396 482 431T365 467Q314 467 278 449T222 397T202 318Q202 274 221 241T277 189T365 170Z" />
<glyph unicode="h" horiz-adv-x="757" d="M63 770H230V0H63V770ZM447 584Q528 584 585 552T672 459T702 316V0H535V291Q535 368 498 407T391 447Q342 447 306 426T250 366T230 275L175 304Q186 394 223 456T319 551T447 584Z" />
<glyph unicode="i" horiz-adv-x="293" d="M63 575L146 559L230 575V0H63V575ZM146 634Q101 634 73 657T44 720Q44 760 72 783T146 807Q192 807 220 784T248 720Q248 681 220 658T146 634Z" />
<glyph unicode="j" horiz-adv-x="293" d="M63 575L146 559L230 575V-165H63V575ZM146 634Q101 634 73 657T44 720Q44 760 72 783T146 807Q192 807 220 784T248 720Q248 681 220 658T146 634Z" />
<glyph unicode="k" horiz-adv-x="714" d="M230 138L183 155L521 569H703L215 0H63V770H230V138ZM359 279L482 374L719 0H528L359 279Z" />
<glyph unicode="l" horiz-adv-x="293" d="M63 770H230V0H63V770Z" />
<glyph unicode="m" horiz-adv-x="1182" d="M36 569H203L239 352V0H72V377L36 569ZM442 584Q518 584 572 552T654 459T683 316V0H516V291Q516 368 483 407T385 447Q340 447 307 426T257 366T239 275L184 304Q194 394 230 456T320 551T442 584ZM885 584Q961 584
1015 552T1098 459T1127 316V0H960V291Q960 368 927 407T829 447Q784 447 751 426T701 366T683 275L628 304Q638 394 674 456T764 551T885 584Z" />
<glyph unicode="n" horiz-adv-x="766" d="M36 569H203L239 352V0H72V377L36 569ZM456 584Q537 584 594 552T681 459T711 316V0H544V291Q544 368 507 407T399 447Q351 447 315 426T259 366T239 275L184 304Q194 394 232 456T328 551T456 584Z" />
<glyph unicode="o" horiz-adv-x="778" d="M389 -15Q283 -15 203 22T78 127T33 284Q33 374 78 441T203 546T389 584Q495 584 575 547T699 442T744 284Q744 195 700 128T575 23T389 -15ZM389 112Q447 112 488 133T552 192T575 284Q575 338 553 376T489 436T389 457Q332
457 290 436T226 377T203 284Q203 231 225 193T290 133T389 112Z" />
<glyph unicode="p" horiz-adv-x="800" d="M63 569H230V388L223 366V229L230 188V-165H63V569ZM172 284Q189 375 231 442T338 547T482 584Q566 584 629 547T729 442T765 284Q765 195 729 128T630 23T482 -15Q402 -15 339 22T232 126T172 284ZM596 284Q596 334 576
372T519 432T436 454Q389 454 347 433T274 373T224 284Q242 234 273 196T347 137T436 115Q483 115 519 136T575 196T596 284Z" />
<glyph unicode="q" horiz-adv-x="800" d="M738 569V-165H571V188L578 229V366L571 388V569H738ZM628 284Q612 194 569 127T462 22T318 -15Q235 -15 171 22T71 127T35 284Q35 374 71 441T171 546T318 584Q398 584 462 547T569 443T628 284ZM205 284Q205 234 225
196T282 137T364 115Q412 115 453 136T527 196T576 284Q559 334 527 372T454 432T364 454Q318 454 282 433T226 373T205 284Z" />
<glyph unicode="r" horiz-adv-x="530" d="M36 569H205L239 364V0H72V382L36 569ZM516 575V431Q490 437 464 440T415 443Q365 443 325 422T262 357T239 246L204 288Q210 349 226 402T270 496T341 560T441 584Q460 584 479 582T516 575Z" />
<glyph unicode="s" horiz-adv-x="719" d="M686 179Q686 118 651 74T545 8T374 -15Q270 -15 193 10T73 83T27 192H197Q203 164 227 144T289 112T379 101Q450 101 486 117T523 165Q523 188 498 200T404 218L298 226Q203 234 147 258T68 318T44 399Q44 460 82 501T188
563T347 584Q439 584 511 559T626 490T676 388H506Q502 409 484 427T430 458T339 470Q276 470 242 456T208 412Q208 392 229 380T307 362L445 351Q537 343 590 321T664 262T686 179Z" />
<glyph unicode="t" horiz-adv-x="579" d="M5 443V517L124 556L195 719H291V569H543V443H291V236Q291 170 318 144T414 117Q457 117 490 125T553 148V18Q524 6 476 -4T377 -15Q288 -15 233 13T151 93T124 212V443H5Z" />
<glyph unicode="u" horiz-adv-x="754" d="M304 -15Q225 -15 170 17T85 110T55 252V569H222V277Q222 201 258 162T360 122Q409 122 443 142T497 202T516 293L570 264Q560 176 523 114T430 18T304 -15ZM551 0L516 216V569H683V191L718 0H551Z" />
<glyph unicode="v" horiz-adv-x="742" d="M404 77L344 78L559 569H737L465 0H276L5 569H189L404 77Z" />
<glyph unicode="w" horiz-adv-x="1120" d="M822 91H767L945 569H1112L892 0H721L531 491H591L398 0H227L7 569H176L355 91H298L480 569H643L822 91Z" />
<glyph unicode="x" horiz-adv-x="682" d="M-9 0L260 322L259 260L7 569H194L372 355H314L493 569H677L417 257L409 335L692 0H502L308 230H369L177 0H-9Z" />
<glyph unicode="y" horiz-adv-x="746" d="M224 -180Q168 -180 123 -166T38 -125V-5Q80 -32 118 -44T202 -56Q243 -56 275 -38T328 28L565 569H742L458 -26Q432 -82 395 -116T315 -165T224 -180ZM260 36L9 569H193L423 36H260Z" />
<glyph unicode="z" horiz-adv-x="672" d="M38 0V118L456 475L568 445H41V569H632V451L214 94L118 123H634V0H38Z" />
<glyph unicode="{" horiz-adv-x="440" d="M408 631H308Q277 631 264 613T260 563L289 460Q306 402 284 367T213 322Q261 313 283 278T289 185L260 82Q251 50 264 32T308 14H408V-105H237Q184 -105 149 -82T102 -18T106 71L147 199Q157 230 142 248T97 266H33V379H97Q126
379 141 396T147 446L106 574Q90 623 102 663T149 726T237 750H408V631Z" />
<glyph unicode="|" horiz-adv-x="298" d="M77 750H222V-98H77V750Z" />
<glyph unicode="}" horiz-adv-x="440" d="M32 631V750H204Q257 750 292 727T339 663T335 574L294 446Q284 414 299 397T344 379H408V266H344Q314 266 299 248T294 199L335 71Q351 22 339 -18T292 -81T204 -105H32V14H133Q164 14 176 32T181 82L152 185Q135 243
157 278T228 322Q179 332 157 367T152 460L181 563Q189 594 177 612T133 631H32Z" />
<glyph unicode="~" horiz-adv-x="620" d="M30 395Q107 431 195 431Q239 431 274 423T346 406T425 398Q512 398 590 433V313Q513 277 425 277Q382 277 346 285T275 302T195 310Q108 310 30 275V395Z" />
<glyph unicode="&#xa0;" horiz-adv-x="256" />
<glyph unicode="&#xa1;" horiz-adv-x="291" d="M233 -155H59L87 348H205L233 -155ZM146 604Q189 604 216 579T243 513Q243 472 216 447T146 421Q103 421 76 446T49 513Q49 553 76 578T146 604Z" />
<glyph unicode="&#xa2;" horiz-adv-x="773" d="M336 653H438V-85H336V653ZM723 229Q714 158 669 103T552 16T391 -15Q292 -15 216 23T98 128T55 283Q55 372 97 439T215 545T391 583Q479 583 550 552T667 466T723 338H566Q555 396 508 429T391 463Q336 463 296
442T233 381T211 283Q211 228 233 188T295 126T391 104Q458 104 506 137T566 229H723Z" />
<glyph unicode="&#xa3;" horiz-adv-x="796" d="M48 414H639V300H48V414ZM222 100L167 124H762V0H49V137Q148 155 198 186T248 261Q248 289 234 312T200 357T158 405T123 465T109 546Q109 612 148 661T259 737T425 765Q518 765 590 736T705 655T751 533H583Q575
581 534 608T429 636Q360 636 320 608T279 531Q279 498 292 473T326 427T366 385T400 338T414 281Q414 239 390 203T323 141T222 100Z" />
<glyph unicode="&#xa4;" horiz-adv-x="711" d="M355 139Q265 139 204 168T110 249T77 369Q77 437 109 489T203 570T355 599Q445 599 507 570T601 489T634 369Q634 302 602 250T507 168T355 139ZM355 256Q429 256 463 286T498 369Q498 423 464 452T355 482Q282
482 248 453T213 369Q213 316 247 286T355 256ZM102 621L220 525L148 470L44 561L102 621ZM608 621L666 555L563 470L490 525L608 621ZM102 117L44 177L148 268L220 213L102 117ZM608 117L490 213L563 268L666 177L608 117Z" />
<glyph unicode="&#xa5;" horiz-adv-x="852" d="M88 402H366L426 368L479 402H766V299H88V402ZM88 240H766V137H88V240ZM342 0V362H511V0H342ZM25 750H213L468 384H385L638 750H827L480 267L372 266L25 750Z" />
<glyph unicode="&#xa6;" horiz-adv-x="298" d="M77 235H222V-98H77V235ZM222 417H77V750H222V417Z" />
<glyph unicode="&#xa7;" horiz-adv-x="852" d="M417 765Q531 765 608 736T725 658T768 556H600Q597 584 577 606T516 643T415 658Q335 658 300 637T264 585Q264 558 287 543T364 511L588 451Q666 431 713 407T781 351T802 275Q802 217 753 180T600 134L590 175Q624
187 639 205T655 247Q655 281 627 300T539 337L307 401Q234 421 187 443T116 497T92 581Q92 631 127 673T235 740T417 765ZM435 -144Q321 -144 244 -114T128 -37T84 65H252Q255 38 275 15T336 -22T437 -36Q517 -36 552 -15T588 36Q588 63 565 78T488 110L264 170Q155
199 103 240T50 347Q50 404 99 441T251 488L262 446Q229 435 213 417T197 375Q197 341 225 321T313 284L545 220Q618 200 666 179T737 125T761 41Q761 -10 725 -52T618 -119T435 -144Z" />
<glyph unicode="&#xa8;" horiz-adv-x="567" d="M134 634Q91 634 65 656T38 717Q38 755 64 777T134 799Q177 799 203 777T230 717Q230 679 204 657T134 634ZM433 634Q390 634 364 656T337 717Q337 755 363 777T433 799Q476 799 502 777T529 717Q529 679 503 657T433 634Z" />
<glyph unicode="&#xa9;" horiz-adv-x="908" d="M454 -15Q372 -15 300 13T172 94T86 218T55 375Q55 460 86 531T172 655T299 736T454 765Q537 765 609 737T736 656T822 532T853 375Q853 290 822 219T736 95T609 14T454 -15ZM454 57Q521 57 579 80T681 145T750 246T775
375Q775 446 751 504T682 604T579 670T454 693Q387 693 329 670T227 605T158 504T133 375Q133 304 157 246T226 146T329 80T454 57ZM705 339Q699 278 666 233T579 163T455 138Q379 138 322 168T234 252T202 377Q202 449 233 502T322 586T455 617Q524 617 578 592T665
522T705 416H584Q576 462 542 487T455 513Q394 513 359 476T324 377Q324 315 359 278T455 241Q510 241 543 266T584 339H705Z" />
<glyph unicode="&#xaa;" horiz-adv-x="625" d="M441 304L422 466L444 524L422 586L441 746H590L563 525L590 304H441ZM477 524Q466 456 434 404T352 322T240 292Q176 292 127 321T50 403T22 524Q22 595 50 647T127 729T240 758Q303 758 352 729T434 648T477 524ZM169
524Q169 490 183 463T223 421T282 406Q333 406 375 439T436 524Q417 578 375 611T282 645Q248 645 223 630T184 588T169 524Z" />
<glyph unicode="&#xab;" horiz-adv-x="675" d="M193 544H364L196 289V334L364 78H193L43 311L193 544ZM461 544H632L464 289V334L632 78H461L311 311L461 544Z" />
<glyph unicode="&#xac;" horiz-adv-x="620" d="M463 191V471L538 394H26V518H586V191H463Z" />
<glyph unicode="&#xad;" horiz-adv-x="0" />
<glyph unicode="&#xae;" horiz-adv-x="777" d="M388 144Q317 144 256 167T151 232T81 331T56 455Q56 522 81 578T150 677T256 742T388 765Q460 765 521 742T626 677T696 579T721 455Q721 388 696 332T627 233T521 167T388 144ZM388 208Q466 208 525 239T617 327T651
455Q651 526 618 582T525 669T388 701Q311 701 252 670T160 582T126 455Q126 384 159 328T252 240T388 208ZM239 633H325V280H239V633ZM419 409H303V475H412Q436 475 449 487T463 520Q463 542 450 554T412 566H303V633H419Q477 633 513 602T550 520Q550 470 514
440T419 409ZM356 445H446L559 280H457L356 445Z" />
<glyph unicode="&#xaf;" horiz-adv-x="510" d="M31 659V763H491V659H31Z" />
<glyph unicode="&#xb0;" horiz-adv-x="441" d="M221 466Q169 466 130 484T69 536T47 612Q47 656 69 689T130 740T221 759Q272 759 311 741T372 689T394 612Q394 569 372 536T311 485T221 466ZM221 539Q258 539 278 558T298 612Q298 648 278 667T221 686Q183 686
163 667T143 612Q143 577 163 558T221 539Z" />
<glyph unicode="&#xb1;" horiz-adv-x="620" d="M248 216V630H372V216H248ZM30 364V482H590V364H30ZM30 160H590V42H30V160Z" />
<glyph unicode="&#xb2;" horiz-adv-x="536" d="M41 705Q45 750 74 787T154 846T277 869Q343 869 389 850T459 798T483 721Q483 682 465 652T412 595T325 542L195 474L133 509H489V409H45V487L221 584Q264 607 293 627T338 666T353 709Q353 735 332 750T268 766Q223
766 199 749T169 705H41Z" />
<glyph unicode="&#xb3;" horiz-adv-x="575" d="M47 699Q54 776 119 822T301 869Q409 869 465 833T521 738Q521 688 474 660T332 632V648Q409 649 452 636T514 598T532 542Q532 481 475 441T294 400Q215 400 157 422T67 484T33 575H160Q166 535 199 518T286 501Q340
501 367 512T394 550Q394 571 377 582T310 594H232V676H310Q339 676 355 682T379 700T386 722Q386 742 366 754T293 767Q236 767 207 750T174 699H47Z" />
<glyph unicode="&#xb4;" horiz-adv-x="346" d="M153 807H317L186 627H29L153 807Z" />
<glyph unicode="&#xb6;" horiz-adv-x="795" d="M242 750H514V0H389V409L474 324H242Q178 324 129 351T51 427T23 537Q23 600 51 648T128 723T242 750ZM590 0V750H715V0H590Z" />
<glyph unicode="&#xb7;" horiz-adv-x="291" d="M145 270Q118 270 96 283T60 318T47 368Q47 396 60 418T95 454T145 467Q173 467 195 454T231 419T244 368Q244 341 231 319T196 283T145 270Z" />
<glyph unicode="&#xb8;" horiz-adv-x="416" d="M160 12H248L193 -72L152 -70Q173 -58 198 -50T257 -42Q322 -42 355 -67T388 -137Q388 -182 345 -213T218 -244Q144 -244 94 -215T28 -139H135Q144 -151 162 -161T218 -171Q251 -171 267 -161T284 -134Q284 -118
271 -108T227 -98Q209 -98 195 -102T170 -111H81L160 12Z" />
<glyph unicode="&#xb9;" horiz-adv-x="449" d="M311 859V465H189V834L256 760L56 726V827L215 859H311ZM51 509H425V409H51V509Z" />
<glyph unicode="&#xba;" horiz-adv-x="597" d="M299 292Q216 292 153 321T55 403T20 525Q20 595 55 647T153 728T299 758Q382 758 444 729T542 648T577 525Q577 456 542 404T445 322T299 292ZM299 402Q360 402 395 435T431 525Q431 583 396 615T299 648Q237 648
202 616T167 525Q167 468 202 435T299 402Z" />
<glyph unicode="&#xbb;" horiz-adv-x="675" d="M483 544L632 311L483 78H311L479 334V289L311 544H483ZM215 544L364 311L215 78H44L211 334V289L44 544H215Z" />
<glyph unicode="&#xbc;" horiz-adv-x="1107" d="M295 750V356H173V725L240 651L40 617V718L199 750H295ZM35 400H409V300H35V400ZM711 750H837L429 0H304L711 750ZM1020 450V0H901V395L954 398L729 135L711 175H1090V83H621V166L867 450H1020Z" />
<glyph unicode="&#xbd;" horiz-adv-x="1157" d="M296 750V356H174V725L241 651L41 617V718L200 750H296ZM36 400H410V300H36V400ZM706 750H832L424 0H299L706 750ZM669 296Q673 341 702 378T782 437T905 460Q971 460 1017 441T1087 389T1111 312Q1111 273 1093
243T1040 186T953 133L823 65L761 100H1117V0H673V78L849 175Q892 198 921 218T966 257T981 300Q981 326 960 341T896 357Q851 357 827 340T797 296H669Z" />
<glyph unicode="&#xbe;" horiz-adv-x="1202" d="M49 589Q56 666 121 712T303 759Q411 759 467 723T523 628Q523 578 476 550T334 522V538Q411 539 454 526T516 488T534 432Q534 371 477 331T296 290Q217 290 159 312T69 374T35 465H162Q168 425 201 408T288 391Q342
391 369 402T396 440Q396 461 379 472T312 484H234V566H312Q341 566 357 572T381 590T388 612Q388 632 368 644T295 657Q238 657 209 640T176 589H49ZM798 750H924L516 0H391L798 750ZM1111 450V0H992V395L1045 398L820 135L802 175H1181V83H712V166L958 450H1111Z"
/>
<glyph unicode="&#xbf;" horiz-adv-x="675" d="M428 321Q428 275 403 241T320 179L244 141Q216 127 200 108T184 64Q184 17 223 -10T333 -37Q405 -37 449 -5T500 82H660Q652 -37 566 -103T333 -170Q187 -170 105 -110T23 56Q23 108 53 151T142 225L225 266Q251
279 264 295T278 335V359H423Q426 349 427 340T428 321ZM353 604Q396 604 423 579T450 513Q450 472 423 447T353 421Q309 421 283 446T256 513Q256 553 282 578T353 604Z" />
<glyph unicode="&#xc0;" horiz-adv-x="928" d="M200 158V296H720V158H200ZM573 750L924 0H743L436 681H492L185 0H4L355 750H573ZM412 969L559 808H388L219 969H412Z" />
<glyph unicode="&#xc1;" horiz-adv-x="928" d="M200 158V296H720V158H200ZM573 750L924 0H743L436 681H492L185 0H4L355 750H573ZM504 969H697L528 808H357L504 969Z" />
<glyph unicode="&#xc2;" horiz-adv-x="928" d="M200 158V296H720V158H200ZM573 750L924 0H743L436 681H492L185 0H4L355 750H573ZM373 969H554L704 808H561L426 912H501L366 808H224L373 969Z" />
<glyph unicode="&#xc3;" horiz-adv-x="928" d="M200 158V296H720V158H200ZM573 750L924 0H743L436 681H492L185 0H4L355 750H573ZM209 814Q218 887 256 929T367 972Q395 972 420 964T470 947T515 929T554 921Q576 921 590 933T607 968H719Q710 896 671 853T560
810Q533 810 507 818T458 836T413 854T374 862Q352 862 338 850T321 814H209Z" />
<glyph unicode="&#xc4;" horiz-adv-x="928" d="M200 158V296H720V158H200ZM573 750L924 0H743L436 681H492L185 0H4L355 750H573ZM312 815Q269 815 243 838T217 899Q217 936 243 958T312 981Q356 981 382 959T408 899Q408 861 382 838T312 815ZM615 815Q572 815
546 838T519 899Q519 936 545 958T615 981Q658 981 684 959T711 899Q711 861 685 838T615 815Z" />
<glyph unicode="&#xc5;" horiz-adv-x="928" d="M200 158V296H720V158H200ZM573 750L924 0H743L436 681H492L185 0H4L355 750H573ZM465 793Q380 793 332 826T284 919Q284 978 332 1011T465 1045Q551 1045 598 1012T645 919Q645 860 598 827T465 793ZM465 870Q508
870 528 882T549 919Q549 943 529 955T465 968Q421 968 401 956T380 919Q380 895 400 883T465 870Z" />
<glyph unicode="&#xc6;" horiz-adv-x="1253" d="M751 310L821 141H1217V0H702L420 708H483L188 0H7L332 750H1187V609H631L700 440H1161V310H751ZM187 158V296H686V158H187Z" />
<glyph unicode="&#xc7;" horiz-adv-x="923" d="M889 305Q878 210 823 138T677 25T470 -15Q342 -15 246 34T95 170T41 375Q41 492 95 579T245 716T470 765Q586 765 676 725T822 613T889 445H718Q708 498 675 536T590 596T469 617Q390 617 333 588T244 504T213 375Q213
301 244 247T332 163T469 133Q538 133 590 153T675 212T718 305H889ZM431 16H518L467 -71L424 -68Q448 -55 473 -48T531 -41Q596 -41 631 -66T666 -136Q666 -183 621 -213T489 -243Q413 -243 362 -216T295 -139H409Q418 -153 437 -161T489 -169Q523 -169 539 -159T556
-132Q556 -118 542 -109T499 -100Q481 -100 466 -102T438 -110H351L431 16Z" />
<glyph unicode="&#xc8;" horiz-adv-x="780" d="M697 440V310H160V440H697ZM274 375L224 57L150 141H728V0H53L111 375L53 750H723V609H150L224 693L274 375ZM341 969L488 808H317L148 969H341Z" />
<glyph unicode="&#xc9;" horiz-adv-x="780" d="M697 440V310H160V440H697ZM274 375L224 57L150 141H728V0H53L111 375L53 750H723V609H150L224 693L274 375ZM433 969H626L457 808H286L433 969Z" />
<glyph unicode="&#xca;" horiz-adv-x="780" d="M697 440V310H160V440H697ZM274 375L224 57L150 141H728V0H53L111 375L53 750H723V609H150L224 693L274 375ZM302 969H483L633 808H490L355 912H430L295 808H153L302 969Z" />
<glyph unicode="&#xcb;" horiz-adv-x="780" d="M697 440V310H160V440H697ZM274 375L224 57L150 141H728V0H53L111 375L53 750H723V609H150L224 693L274 375ZM242 815Q199 815 173 838T147 899Q147 936 173 958T242 981Q286 981 312 959T338 899Q338 861 312 838T242
815ZM545 815Q502 815 476 838T449 899Q449 936 475 958T545 981Q588 981 614 959T641 899Q641 861 615 838T545 815Z" />
<glyph unicode="&#xcc;" horiz-adv-x="323" d="M77 750H247V0H77V750ZM109 969L256 808H85L-84 969H109Z" />
<glyph unicode="&#xcd;" horiz-adv-x="323" d="M77 750H247V0H77V750ZM201 969H394L225 808H54L201 969Z" />
<glyph unicode="&#xce;" horiz-adv-x="323" d="M74 969H249L360 808H237L141 911H182L86 808H-36L74 969ZM77 750H247V0H77V750Z" />
<glyph unicode="&#xcf;" horiz-adv-x="323" d="M58 815Q20 815 -1 837T-23 898Q-23 936 -2 958T58 981Q95 981 117 959T139 898Q139 860 117 838T58 815ZM266 815Q229 815 207 837T185 898Q185 936 207 958T266 981Q303 981 325 959T347 898Q347 860 325 838T266
815ZM77 750H247V0H77V750Z" />
<glyph unicode="&#xd0;" horiz-adv-x="940" d="M27 435H463V317H27V435ZM463 750Q593 750 691 703T845 572T900 375Q900 263 845 179T692 47T463 0H106V750H463ZM275 67L189 150H475Q552 150 609 178T697 257T728 375Q728 443 697 493T609 572T475 600H189L275 683V67Z" />
<glyph unicode="&#xd1;" horiz-adv-x="954" d="M772 112L713 103V750H878V0H663L183 647L241 656V0H77V750H297L772 112ZM235 814Q244 887 282 929T393 972Q421 972 446 964T496 947T541 929T580 921Q602 921 616 933T633 968H745Q736 896 697 853T586 810Q559
810 533 818T484 836T439 854T400 862Q378 862 364 850T347 814H235Z" />
<glyph unicode="&#xd2;" horiz-adv-x="956" d="M478 -15Q347 -15 249 34T95 170T40 375Q40 492 95 579T248 716T478 765Q609 765 707 716T861 580T916 375Q916 258 861 171T708 34T478 -15ZM478 136Q560 136 619 165T711 248T744 375Q744 448 712 502T620 585T478
614Q397 614 337 585T245 502T212 375Q212 302 244 248T337 165T478 136ZM426 969L572 808H402L233 969H426Z" />
<glyph unicode="&#xd3;" horiz-adv-x="956" d="M478 -15Q347 -15 249 34T95 170T40 375Q40 492 95 579T248 716T478 765Q609 765 707 716T861 580T916 375Q916 258 861 171T708 34T478 -15ZM478 136Q560 136 619 165T711 248T744 375Q744 448 712 502T620 585T478
614Q397 614 337 585T245 502T212 375Q212 302 244 248T337 165T478 136ZM518 969H711L542 808H371L518 969Z" />
<glyph unicode="&#xd4;" horiz-adv-x="956" d="M478 -15Q347 -15 249 34T95 170T40 375Q40 492 95 579T248 716T478 765Q609 765 707 716T861 580T916 375Q916 258 861 171T708 34T478 -15ZM478 136Q560 136 619 165T711 248T744 375Q744 448 712 502T620 585T478
614Q397 614 337 585T245 502T212 375Q212 302 244 248T337 165T478 136ZM387 969H568L718 808H575L440 912H515L380 808H238L387 969Z" />
<glyph unicode="&#xd5;" horiz-adv-x="956" d="M478 -15Q347 -15 249 34T95 170T40 375Q40 492 95 579T248 716T478 765Q609 765 707 716T861 580T916 375Q916 258 861 171T708 34T478 -15ZM478 136Q560 136 619 165T711 248T744 375Q744 448 712 502T620 585T478
614Q397 614 337 585T245 502T212 375Q212 302 244 248T337 165T478 136ZM223 814Q232 887 270 929T381 972Q409 972 434 964T484 947T529 929T568 921Q590 921 604 933T621 968H733Q724 896 685 853T574 810Q547 810 521 818T472 836T427 854T388 862Q366 862
352 850T335 814H223Z" />
<glyph unicode="&#xd6;" horiz-adv-x="956" d="M478 -15Q347 -15 249 34T95 170T40 375Q40 492 95 579T248 716T478 765Q609 765 707 716T861 580T916 375Q916 258 861 171T708 34T478 -15ZM478 136Q560 136 619 165T711 248T744 375Q744 448 712 502T620 585T478
614Q397 614 337 585T245 502T212 375Q212 302 244 248T337 165T478 136ZM326 815Q283 815 257 838T231 899Q231 936 257 958T326 981Q370 981 396 959T422 899Q422 861 396 838T326 815ZM629 815Q586 815 560 838T533 899Q533 936 559 958T629 981Q672 981 698
959T725 899Q725 861 699 838T629 815Z" />
<glyph unicode="&#xd7;" horiz-adv-x="620" d="M69 193L465 589L552 501L156 105L69 193ZM69 501L156 589L552 193L465 105L69 501Z" />
<glyph unicode="&#xd8;" horiz-adv-x="956" d="M736 766H895L220 -16H60L736 766ZM477 -15Q347 -15 249 34T95 170T40 375Q40 492 95 579T248 716T477 765Q573 765 653 737T791 658T882 535T915 375Q915 258 860 171T707 34T477 -15ZM477 131Q560 131 620 160T713
245T747 375Q747 450 714 505T620 589T477 619Q395 619 335 590T242 505T209 375Q209 300 242 245T335 161T477 131Z" />
<glyph unicode="&#xd9;" horiz-adv-x="870" d="M237 329Q237 269 260 226T327 160T435 136Q499 136 543 159T610 226T633 329V750H803V321Q803 220 757 145T628 27T435 -15Q325 -15 243 27T114 144T67 321V750H237V329ZM383 969L529 808H358L190 969H383Z" />
<glyph unicode="&#xda;" horiz-adv-x="870" d="M237 329Q237 269 260 226T327 160T435 136Q499 136 543 159T610 226T633 329V750H803V321Q803 220 757 145T628 27T435 -15Q325 -15 243 27T114 144T67 321V750H237V329ZM474 969H667L498 808H327L474 969Z" />
<glyph unicode="&#xdb;" horiz-adv-x="870" d="M237 329Q237 269 260 226T327 160T435 136Q499 136 543 159T610 226T633 329V750H803V321Q803 220 757 145T628 27T435 -15Q325 -15 243 27T114 144T67 321V750H237V329ZM344 969H525L675 808H532L397 912H472L337
808H195L344 969Z" />
<glyph unicode="&#xdc;" horiz-adv-x="870" d="M237 329Q237 269 260 226T327 160T435 136Q499 136 543 159T610 226T633 329V750H803V321Q803 220 757 145T628 27T435 -15Q325 -15 243 27T114 144T67 321V750H237V329ZM283 815Q240 815 214 838T188 899Q188 936
214 958T283 981Q327 981 353 959T379 899Q379 861 353 838T283 815ZM586 815Q543 815 517 838T490 899Q490 936 516 958T586 981Q629 981 655 959T682 899Q682 861 656 838T586 815Z" />
<glyph unicode="&#xdd;" horiz-adv-x="897" d="M364 0V362H534V0H364ZM11 750H200L489 385H407L696 750H885L503 267L394 266L11 750ZM488 969H681L512 808H341L488 969Z" />
<glyph unicode="&#xde;" horiz-adv-x="811" d="M77 750H247V0H77V750ZM486 132H189V271H476Q536 271 569 300T603 380Q603 430 570 459T476 489H190V627H486Q575 627 640 597T739 510T774 380Q774 305 740 249T640 163T486 132Z" />
<glyph unicode="&#xdf;" horiz-adv-x="864" d="M62 0V482Q62 574 105 642T229 747T421 785Q524 785 593 759T696 689T730 586Q730 511 673 463T506 403L526 422Q682 420 758 365T834 214Q834 146 798 95T695 14T531 -15Q467 -15 412 -6T297 25V156Q361 131 410
121T505 110Q587 110 626 140T665 220Q665 254 646 280T582 322T459 337H388V455H432Q499 455 533 482T567 552Q567 602 525 630T412 658Q327 658 279 615T230 496V0H62Z" />
<glyph unicode="&#xe0;" horiz-adv-x="806" d="M584 0L560 208L587 284L560 359L584 569H757L724 284L757 0H584ZM628 284Q612 194 570 127T463 22T318 -15Q235 -15 171 22T72 127T36 284Q36 374 71 441T171 546T318 584Q398 584 462 547T570 443T628 284ZM205
284Q205 234 225 196T282 137T365 115Q412 115 453 136T527 196T577 284Q559 334 527 372T454 432T365 454Q318 454 282 433T226 373T205 284ZM363 807L487 627H330L199 807H363Z" />
<glyph unicode="&#xe1;" horiz-adv-x="806" d="M584 0L560 208L587 284L560 359L584 569H757L724 284L757 0H584ZM628 284Q612 194 570 127T463 22T318 -15Q235 -15 171 22T72 127T36 284Q36 374 71 441T171 546T318 584Q398 584 462 547T570 443T628 284ZM205
284Q205 234 225 196T282 137T365 115Q412 115 453 136T527 196T577 284Q559 334 527 372T454 432T365 454Q318 454 282 433T226 373T205 284ZM429 807H593L462 627H305L429 807Z" />
<glyph unicode="&#xe2;" horiz-adv-x="806" d="M584 0L560 208L587 284L560 359L584 569H757L724 284L757 0H584ZM628 284Q612 194 570 127T463 22T318 -15Q235 -15 171 22T72 127T36 284Q36 374 71 441T171 546T318 584Q398 584 462 547T570 443T628 284ZM205
284Q205 234 225 196T282 137T365 115Q412 115 453 136T527 196T577 284Q559 334 527 372T454 432T365 454Q318 454 282 433T226 373T205 284ZM311 807H486L629 627H493L361 762H436L305 627H168L311 807Z" />
<glyph unicode="&#xe3;" horiz-adv-x="806" d="M584 0L560 208L587 284L560 359L584 569H757L724 284L757 0H584ZM628 284Q612 194 570 127T463 22T318 -15Q235 -15 171 22T72 127T36 284Q36 374 71 441T171 546T318 584Q398 584 462 547T570 443T628 284ZM205
284Q205 234 225 196T282 137T365 115Q412 115 453 136T527 196T577 284Q559 334 527 372T454 432T365 454Q318 454 282 433T226 373T205 284ZM160 637Q165 716 199 763T300 810Q326 810 351 802T398 783T441 764T478 755Q499 755 513 769T532 808H637Q633 731
599 684T498 636Q471 636 446 644T399 663T357 682T320 691Q299 691 285 677T266 637H160Z" />
<glyph unicode="&#xe4;" horiz-adv-x="806" d="M584 0L560 208L587 284L560 359L584 569H757L724 284L757 0H584ZM628 284Q612 194 570 127T463 22T318 -15Q235 -15 171 22T72 127T36 284Q36 374 71 441T171 546T318 584Q398 584 462 547T570 443T628 284ZM205
284Q205 234 225 196T282 137T365 115Q412 115 453 136T527 196T577 284Q559 334 527 372T454 432T365 454Q318 454 282 433T226 373T205 284ZM250 634Q207 634 181 656T154 717Q154 755 180 777T250 799Q293 799 319 777T346 717Q346 679 320 657T250 634ZM549
634Q506 634 480 656T453 717Q453 755 479 777T549 799Q592 799 618 777T645 717Q645 679 619 657T549 634Z" />
<glyph unicode="&#xe5;" horiz-adv-x="806" d="M584 0L560 208L587 284L560 359L584 569H757L724 284L757 0H584ZM628 284Q612 194 570 127T463 22T318 -15Q235 -15 171 22T72 127T36 284Q36 374 71 441T171 546T318 584Q398 584 462 547T570 443T628 284ZM205
284Q205 234 225 196T282 137T365 115Q412 115 453 136T527 196T577 284Q559 334 527 372T454 432T365 454Q318 454 282 433T226 373T205 284ZM398 617Q318 617 271 652T224 748Q224 808 271 843T398 878Q480 878 526 843T572 748Q572 687 526 652T398 617ZM398
690Q435 690 455 705T476 747Q476 776 456 791T398 806Q362 806 342 791T321 747Q321 720 341 705T398 690Z" />
<glyph unicode="&#xe6;" horiz-adv-x="1258" d="M953 -15Q852 -15 779 23T665 130T624 284Q624 373 661 440T765 546T924 584Q1021 584 1088 540T1190 419T1222 242H713V340H1132L1078 298Q1075 350 1055 387T999 445T910 465Q862 465 824 445T765 388T744 298Q744
239 769 198T846 134T971 111Q1033 111 1093 127T1206 177V68Q1172 43 1133 24T1050 -5T953 -15ZM570 0L557 208L584 284L557 359L570 569H693L706 288L693 0H570ZM628 284Q612 194 570 127T463 22T318 -15Q235 -15 171 22T72 127T36 284Q36 374 71 441T171 546T318
584Q398 584 462 547T570 443T628 284ZM205 284Q205 234 225 196T282 137T365 115Q412 115 453 136T527 196T577 284Q559 334 527 372T454 432T365 454Q318 454 282 433T226 373T205 284Z" />
<glyph unicode="&#xe7;" horiz-adv-x="743" d="M716 232Q706 159 660 103T540 16T377 -15Q275 -15 198 22T77 128T33 284Q33 373 76 440T197 546T377 584Q467 584 540 553T659 466T716 336H549Q536 394 490 425T377 457Q324 457 285 437T224 378T203 284Q203 230
224 192T284 133T377 112Q444 112 490 145T549 232H716ZM340 12H428L373 -72L332 -70Q353 -58 378 -50T437 -42Q502 -42 535 -67T568 -137Q568 -182 525 -213T398 -244Q324 -244 274 -215T208 -139H315Q324 -151 342 -161T398 -171Q431 -171 447 -161T464 -134Q464
-118 451 -108T407 -98Q389 -98 375 -102T350 -111H261L340 12Z" />
<glyph unicode="&#xe8;" horiz-adv-x="722" d="M384 -15Q283 -15 204 22T79 128T33 286Q33 375 76 442T196 546T369 584Q468 584 539 541T648 418T687 232H167V343H597L532 303Q528 353 508 388T452 442T370 461Q319 461 282 441T224 384T203 298Q203 239 229
197T305 133T426 111Q490 111 555 129T672 182V70Q616 30 542 8T384 -15ZM332 807L455 627H298L167 807H332Z" />
<glyph unicode="&#xe9;" horiz-adv-x="722" d="M384 -15Q283 -15 204 22T79 128T33 286Q33 375 76 442T196 546T369 584Q468 584 539 541T648 418T687 232H167V343H597L532 303Q528 353 508 388T452 442T370 461Q319 461 282 441T224 384T203 298Q203 239 229
197T305 133T426 111Q490 111 555 129T672 182V70Q616 30 542 8T384 -15ZM397 807H561L430 627H273L397 807Z" />
<glyph unicode="&#xea;" horiz-adv-x="722" d="M384 -15Q283 -15 204 22T79 128T33 286Q33 375 76 442T196 546T369 584Q468 584 539 541T648 418T687 232H167V343H597L532 303Q528 353 508 388T452 442T370 461Q319 461 282 441T224 384T203 298Q203 239 229
197T305 133T426 111Q490 111 555 129T672 182V70Q616 30 542 8T384 -15ZM279 807H454L597 627H461L329 762H404L273 627H136L279 807Z" />
<glyph unicode="&#xeb;" horiz-adv-x="722" d="M384 -15Q283 -15 204 22T79 128T33 286Q33 375 76 442T196 546T369 584Q468 584 539 541T648 418T687 232H167V343H597L532 303Q528 353 508 388T452 442T370 461Q319 461 282 441T224 384T203 298Q203 239 229
197T305 133T426 111Q490 111 555 129T672 182V70Q616 30 542 8T384 -15ZM218 634Q175 634 149 656T122 717Q122 755 148 777T218 799Q261 799 287 777T314 717Q314 679 288 657T218 634ZM517 634Q474 634 448 656T421 717Q421 755 447 777T517 799Q560 799 586
777T613 717Q613 679 587 657T517 634Z" />
<glyph unicode="&#xec;" horiz-adv-x="293" d="M63 575L146 559L230 575V0H63V575ZM111 807L235 627H78L-53 807H111Z" />
<glyph unicode="&#xed;" horiz-adv-x="293" d="M63 575L146 559L230 575V0H63V575ZM176 807H340L209 627H52L176 807Z" />
<glyph unicode="&#xee;" horiz-adv-x="293" d="M58 807H233L329 627H212L125 755H166L79 627H-37L58 807ZM63 575L146 559L230 575V0H63V575Z" />
<glyph unicode="&#xef;" horiz-adv-x="293" d="M54 634Q18 634 -3 657T-25 720Q-25 761 -4 784T54 807Q91 807 111 784T132 720Q132 680 112 657T54 634ZM246 634Q210 634 189 657T167 720Q167 761 188 784T246 807Q283 807 304 784T325 720Q325 680 304 657T246
634ZM63 575L146 559L230 575V0H63V575Z" />
<glyph unicode="&#xf0;" horiz-adv-x="777" d="M391 -15Q283 -15 203 19T77 114T32 256Q32 334 74 393T190 485T363 518Q428 518 487 499T594 431L571 430Q540 493 495 551T393 661T266 760L432 785Q539 705 607 625T707 462T740 294Q740 206 699 136T581 26T391
-15ZM388 112Q446 112 488 129T552 178T575 254Q575 298 553 330T488 379T388 397Q331 397 289 380T225 331T202 254Q202 211 224 179T289 129T388 112ZM257 555V645L700 731V641L257 555Z" />
<glyph unicode="&#xf1;" horiz-adv-x="766" d="M36 569H203L239 352V0H72V377L36 569ZM456 584Q537 584 594 552T681 459T711 316V0H544V291Q544 368 507 407T399 447Q351 447 315 426T259 366T239 275L184 304Q194 394 232 456T328 551T456 584ZM152 637Q157
716 191 763T292 810Q318 810 343 802T390 783T433 764T470 755Q491 755 505 769T524 808H629Q625 731 591 684T490 636Q463 636 438 644T391 663T349 682T312 691Q291 691 277 677T258 637H152Z" />
<glyph unicode="&#xf2;" horiz-adv-x="778" d="M389 -15Q283 -15 203 22T78 127T33 284Q33 374 78 441T203 546T389 584Q495 584 575 547T699 442T744 284Q744 195 700 128T575 23T389 -15ZM389 112Q447 112 488 133T552 192T575 284Q575 338 553 376T489 436T389
457Q332 457 290 436T226 377T203 284Q203 231 225 193T290 133T389 112ZM353 807L477 627H320L189 807H353Z" />
<glyph unicode="&#xf3;" horiz-adv-x="778" d="M389 -15Q283 -15 203 22T78 127T33 284Q33 374 78 441T203 546T389 584Q495 584 575 547T699 442T744 284Q744 195 700 128T575 23T389 -15ZM389 112Q447 112 488 133T552 192T575 284Q575 338 553 376T489 436T389
457Q332 457 290 436T226 377T203 284Q203 231 225 193T290 133T389 112ZM419 807H583L452 627H295L419 807Z" />
<glyph unicode="&#xf4;" horiz-adv-x="778" d="M389 -15Q283 -15 203 22T78 127T33 284Q33 374 78 441T203 546T389 584Q495 584 575 547T699 442T744 284Q744 195 700 128T575 23T389 -15ZM389 112Q447 112 488 133T552 192T575 284Q575 338 553 376T489 436T389
457Q332 457 290 436T226 377T203 284Q203 231 225 193T290 133T389 112ZM301 807H476L619 627H483L351 762H426L295 627H158L301 807Z" />
<glyph unicode="&#xf5;" horiz-adv-x="778" d="M389 -15Q283 -15 203 22T78 127T33 284Q33 374 78 441T203 546T389 584Q495 584 575 547T699 442T744 284Q744 195 700 128T575 23T389 -15ZM389 112Q447 112 488 133T552 192T575 284Q575 338 553 376T489 436T389
457Q332 457 290 436T226 377T203 284Q203 231 225 193T290 133T389 112ZM150 637Q155 716 189 763T290 810Q316 810 341 802T388 783T431 764T468 755Q489 755 503 769T522 808H627Q623 731 589 684T488 636Q461 636 436 644T389 663T347 682T310 691Q289 691
275 677T256 637H150Z" />
<glyph unicode="&#xf6;" horiz-adv-x="778" d="M389 -15Q283 -15 203 22T78 127T33 284Q33 374 78 441T203 546T389 584Q495 584 575 547T699 442T744 284Q744 195 700 128T575 23T389 -15ZM389 112Q447 112 488 133T552 192T575 284Q575 338 553 376T489 436T389
457Q332 457 290 436T226 377T203 284Q203 231 225 193T290 133T389 112ZM240 634Q197 634 171 656T144 717Q144 755 170 777T240 799Q283 799 309 777T336 717Q336 679 310 657T240 634ZM539 634Q496 634 470 656T443 717Q443 755 469 777T539 799Q582 799 608
777T635 717Q635 679 609 657T539 634Z" />
<glyph unicode="&#xf7;" horiz-adv-x="620" d="M300 478Q264 478 241 500T218 557Q218 592 241 614T300 636Q336 636 359 614T382 557Q382 523 359 501T300 478ZM300 72Q264 72 241 94T218 151Q218 186 241 208T300 230Q336 230 359 208T382 151Q382 117 359 95T300
72ZM30 416H590V292H30V416Z" />
<glyph unicode="&#xf8;" horiz-adv-x="778" d="M581 597H734L196 -29H43L581 597ZM389 -15Q283 -15 203 22T78 127T33 284Q33 374 78 441T203 546T389 584Q495 584 575 547T699 442T744 284Q744 195 700 128T575 23T389 -15ZM389 100Q450 100 493 122T560 186T584
284Q584 341 561 382T494 446T389 469Q329 469 286 447T218 383T194 284Q194 228 218 187T285 123T389 100Z" />
<glyph unicode="&#xf9;" horiz-adv-x="754" d="M304 -15Q225 -15 170 17T85 110T55 252V569H222V277Q222 201 258 162T360 122Q409 122 443 142T497 202T516 293L570 264Q560 176 523 114T430 18T304 -15ZM551 0L516 216V569H683V191L718 0H551ZM338 807L462 627H305L174
807H338Z" />
<glyph unicode="&#xfa;" horiz-adv-x="754" d="M304 -15Q225 -15 170 17T85 110T55 252V569H222V277Q222 201 258 162T360 122Q409 122 443 142T497 202T516 293L570 264Q560 176 523 114T430 18T304 -15ZM551 0L516 216V569H683V191L718 0H551ZM404 807H568L437
627H280L404 807Z" />
<glyph unicode="&#xfb;" horiz-adv-x="754" d="M304 -15Q225 -15 170 17T85 110T55 252V569H222V277Q222 201 258 162T360 122Q409 122 443 142T497 202T516 293L570 264Q560 176 523 114T430 18T304 -15ZM551 0L516 216V569H683V191L718 0H551ZM286 807H461L604
627H468L336 762H411L280 627H143L286 807Z" />
<glyph unicode="&#xfc;" horiz-adv-x="754" d="M304 -15Q225 -15 170 17T85 110T55 252V569H222V277Q222 201 258 162T360 122Q409 122 443 142T497 202T516 293L570 264Q560 176 523 114T430 18T304 -15ZM551 0L516 216V569H683V191L718 0H551ZM225 634Q182 634
156 656T129 717Q129 755 155 777T225 799Q268 799 294 777T321 717Q321 679 295 657T225 634ZM524 634Q481 634 455 656T428 717Q428 755 454 777T524 799Q567 799 593 777T620 717Q620 679 594 657T524 634Z" />
<glyph unicode="&#xfd;" horiz-adv-x="746" d="M224 -180Q168 -180 123 -166T38 -125V-5Q80 -32 118 -44T202 -56Q243 -56 275 -38T328 28L565 569H742L458 -26Q432 -82 395 -116T315 -165T224 -180ZM260 36L9 569H193L423 36H260ZM411 807H575L444 627H287L411 807Z" />
<glyph unicode="&#xfe;" horiz-adv-x="800" d="M63 770H230V388L223 366V229L230 188V-165H63V770ZM172 284Q189 375 231 442T338 547T482 584Q566 584 629 547T729 442T765 284Q765 195 729 128T630 23T482 -15Q402 -15 339 22T232 126T172 284ZM596 284Q596
334 576 372T519 432T436 454Q389 454 347 433T274 373T224 284Q242 234 273 196T347 137T436 115Q483 115 519 136T575 196T596 284Z" />
<glyph unicode="&#xff;" horiz-adv-x="746" d="M224 -180Q168 -180 123 -166T38 -125V-5Q80 -32 118 -44T202 -56Q243 -56 275 -38T328 28L565 569H742L458 -26Q432 -82 395 -116T315 -165T224 -180ZM260 36L9 569H193L423 36H260ZM232 634Q189 634 163 656T136
717Q136 755 162 777T232 799Q275 799 301 777T328 717Q328 679 302 657T232 634ZM531 634Q488 634 462 656T435 717Q435 755 461 777T531 799Q574 799 600 777T627 717Q627 679 601 657T531 634Z" />
<glyph unicode="&#x2013;" horiz-adv-x="652" d="M56 414H596V288H56V414Z" />
<glyph unicode="&#x2014;" horiz-adv-x="1182" d="M56 414H596V288H56V414ZM586 414H1126V288H586V414Z" />
<glyph unicode="&#x2018;" horiz-adv-x="272" d="M230 750L141 558L131 619Q159 619 180 606T215 572T229 524Q229 497 216 476T181 441T131 428Q105 428 83 441T47 476T34 526Q34 553 46 582T88 657L147 750H230Z" />
<glyph unicode="&#x2019;" horiz-adv-x="277" d="M52 438L141 630L151 569Q124 569 102 582T67 616T54 664Q54 691 67 712T102 746T151 759Q178 759 200 747T235 712T248 661Q248 636 236 607T194 530L135 438H52Z" />
<glyph unicode="&#x201a;" horiz-adv-x="279" d="M40 -134L129 58L139 -3Q112 -3 90 10T55 44T42 92Q42 119 55 140T90 174T139 187Q166 187 188 175T223 140T236 89Q236 64 224 35T182 -42L123 -134H40Z" />
<glyph unicode="&#x201c;" horiz-adv-x="510" d="M468 750L378 558L369 619Q396 619 418 606T453 572T466 524Q466 497 453 476T418 441T369 428Q342 428 320 441T285 476T271 526Q271 553 283 582T325 657L384 750H468ZM230 750L141 558L131 619Q159 619 180
606T215 572T229 524Q229 497 216 476T181 441T131 428Q105 428 83 441T47 476T34 526Q34 553 46 582T88 657L147 750H230Z" />
<glyph unicode="&#x201d;" horiz-adv-x="514" d="M52 438L141 630L151 569Q124 569 102 582T67 616T54 664Q54 691 67 712T102 746T151 759Q178 759 200 747T235 712T248 661Q248 636 236 607T194 530L135 438H52ZM289 438L378 630L388 569Q361 569 339 582T304
616T291 664Q291 691 304 712T339 746T388 759Q415 759 437 747T472 712T485 661Q485 636 473 607T431 530L372 438H289Z" />
<glyph unicode="&#x201e;" horiz-adv-x="517" d="M40 -134L129 58L139 -3Q112 -3 90 10T55 44T42 92Q42 119 55 140T90 174T139 187Q166 187 188 175T223 140T236 89Q236 64 224 35T182 -42L123 -134H40ZM278 -134L367 58L377 -3Q350 -3 328 10T293 44T280 92Q280
119 293 140T328 174T377 187Q404 187 426 175T461 140T474 89Q474 64 462 35T420 -42L361 -134H278Z" />
<glyph unicode="&#x2022;" horiz-adv-x="385" d="M192 242Q155 242 125 259T78 307T60 375Q60 413 77 443T125 490T192 508Q230 508 260 491T307 443T325 375Q325 338 308 308T261 260T192 242Z" />
<glyph unicode="&#x2039;" horiz-adv-x="408" d="M193 544H364L196 289V334L364 78H193L43 311L193 544Z" />
<glyph unicode="&#x203a;" horiz-adv-x="408" d="M215 544L364 311L215 78H44L211 334V289L44 544H215Z" />
</font>
</defs>
</svg>
